<?xml version="1.0" encoding="utf-8"?>
<!-- Generator: Adobe Illustrator 27.5.0, SVG Export Plug-In . SVG Version: 6.00 Build 0)  -->
<svg version="1.1" xmlns="http://www.w3.org/2000/svg" xmlns:xlink="http://www.w3.org/1999/xlink" x="0px" y="0px"
	 viewBox="0 250 750 500" style="enable-background:new 0 0 750 500;" xml:space="preserve">
<g id="BACKGROUND">
	<rect width="750" height="500"/>
</g>
<g id="OBJECTS">
	<g>
		<g>
			<g>
				<path style="fill:#DE8C00;" d="M60.667,320.925c10.148,0,20.297,0,30.445,0c26.487,0,52.975,0,79.463,0
					c36.891,0,73.782,0,110.672,0c41.358,0,82.715,0,124.073,0c39.889,0,79.777,0,119.666,0c32.483,0,64.967,0,97.45,0
					c19.142,0,38.283,0,57.425,0c2.713,0,5.426,0,8.139,0c1.29,0,1.29-2,0-2c-10.148,0-20.297,0-30.445,0
					c-26.487,0-52.976,0-79.463,0c-36.891,0-73.781,0-110.672,0c-41.358,0-82.716,0-124.074,0c-39.889,0-79.777,0-119.665,0
					c-32.483,0-64.966,0-97.45,0c-19.142,0-38.283,0-57.425,0c-2.713,0-5.426,0-8.139,0
					C59.377,318.925,59.377,320.925,60.667,320.925L60.667,320.925z"/>
			</g>
		</g>
		<g>
			<g>
				<g>
					<path style="fill:#004900;" d="M214.09,430.682c1.027,4.762-3.301,9.412-5.852,10.02l-0.068,0.013
						c-2.775,0.507-18.188-4.219-21.607-8.23c-0.619-0.737-0.939-1.511-1.035-2.287c-0.438-3.53,3.584-7.114,3.584-7.114
						s3.279-2.781,6.621-3.295C199.078,419.285,213.063,425.92,214.09,430.682z"/>
					<path style="fill:#004900;" d="M214.428,417.916c-0.445,1.93-1.301,3.849-2.584,5.052c-2.704,2.545-14.438,5.64-17.23,4.935
						c-1.202-0.303-2.77-1.039-4.205-2.339c-1.9-1.707-3.588-4.421-3.896-8.471c-0.521-7.093,16.15-10.88,21.463-10.438
						c5.297,0.428,6.527,5.772,6.527,5.772C214.943,413.622,214.936,415.775,214.428,417.916z"/>
					<path style="fill:#004900;" d="M213.08,399.758c1.223,4.716-2.908,9.541-5.434,10.254l-0.066,0.016
						c-2.752,0.621-18.348-3.461-21.93-7.328c-0.648-0.711-1.002-1.471-1.129-2.242c-0.584-3.51,3.285-7.257,3.285-7.257
						s3.162-2.915,6.48-3.565C197.607,388.992,211.855,395.043,213.08,399.758z"/>
					<path style="fill:#004900;" d="M211.936,384.307c-0.637,1.876-1.68,3.699-3.077,4.768c-2.946,2.263-14.929,4.168-17.638,3.189
						c-1.166-0.423-2.652-1.311-3.95-2.749c-1.72-1.889-3.128-4.758-3.03-8.817c0.191-7.109,17.158-9.21,22.4-8.238
						c5.227,0.956,5.918,6.396,5.918,6.396C212.877,380.086,212.654,382.228,211.936,384.307z"/>
					<path style="fill:#004900;" d="M213.679,364.821c1.531,4.624-2.273,9.711-4.745,10.589l-0.067,0.02
						c-2.703,0.802-18.534-2.243-22.364-5.865c-0.694-0.667-1.095-1.402-1.275-2.163c-0.813-3.464,2.802-7.458,2.802-7.458
						s2.961-3.116,6.229-3.985C197.53,355.1,212.145,360.196,213.679,364.821z"/>
					<path style="fill:#004900;" d="M213.891,346.145c0.039,1.98-0.32,4.051-1.27,5.53c-2,3.13-12.62,9-15.5,9
						c-1.24,0-2.94-0.33-4.649-1.24c-2.261-1.19-4.56-3.409-5.851-7.26c-2.24-6.75,13-14.5,18.26-15.37c5.24-0.88,7.74,4,7.74,4
						C213.34,341.855,213.859,343.945,213.891,346.145z"/>
					<path style="fill:#004900;" d="M214.166,336.341c0.121,4.87-5,8.63-7.619,8.75h-0.07c-2.82-0.02-17.08-7.54-19.689-12.12
						c-0.471-0.84-0.641-1.66-0.591-2.439c0.23-3.551,4.851-6.32,4.851-6.32s3.74-2.12,7.119-2
						C201.547,322.341,214.047,331.471,214.166,336.341z"/>
				</g>
				<g>
					<g>
						<path style="fill:#DE8C00;" d="M199,317.008c0,21.301,0,42.603,0,63.903c0,25.866,0,51.732,0,77.598c0,0.749,0,1.499,0,2.249
							c0,1.29,2,1.29,2,0c0-21.301,0-42.603,0-63.903c0-25.866,0-51.732,0-77.598c0-0.749,0-1.499,0-2.249
							C201,315.718,199,315.718,199,317.008L199,317.008z"/>
					</g>
				</g>
				<g>
					<g>
						<path style="fill:#42A732;" d="M214.09,430.682c1.027,4.762-3.301,9.412-5.852,10.02l-0.068,0.013
							c1.902-6.753-13.393-12.459-18.996-12.595c-2.596-0.057-3.477,0.936-3.646,2.077c-0.438-3.53,3.584-7.114,3.584-7.114
							s3.279-2.781,6.621-3.295C199.078,419.285,213.063,425.92,214.09,430.682z"/>
						<g>
							<path style="fill:#004900;" d="M190.506,423.076c0,0,0.393-0.006,1.077,0.058c0.68,0.077,1.663,0.171,2.815,0.426
								c1.158,0.229,2.489,0.599,3.884,1.087c0.69,0.262,1.418,0.503,2.12,0.836c0.716,0.303,1.426,0.648,2.126,1.015
								c0.708,0.351,1.375,0.777,2.043,1.173c0.682,0.376,1.275,0.868,1.889,1.279c0.62,0.404,1.141,0.902,1.67,1.323
								c0.534,0.417,0.989,0.869,1.407,1.286c0.419,0.416,0.814,0.784,1.123,1.151c0.31,0.365,0.579,0.683,0.802,0.945
								c0.44,0.525,0.68,0.833,0.68,0.833s-0.306-0.249-0.82-0.698c-0.255-0.225-0.564-0.498-0.919-0.812
								c-0.355-0.313-0.797-0.618-1.244-0.988c-0.453-0.363-0.94-0.757-1.49-1.131c-0.549-0.373-1.092-0.813-1.712-1.188
								c-0.614-0.38-1.223-0.811-1.887-1.177c-0.657-0.375-1.311-0.78-2.006-1.112c-0.676-0.367-1.362-0.715-2.056-1.02
								c-0.683-0.329-1.371-0.615-2.038-0.897c-1.339-0.542-2.61-1.005-3.717-1.354c-1.105-0.358-2.04-0.626-2.702-0.788
								C190.89,423.157,190.506,423.076,190.506,423.076z"/>
						</g>
					</g>
					<g>
						<path style="fill:#42A732;" d="M214.428,417.916c-10.047-2.73-21.075,5.297-24.02,7.649c-1.9-1.707-3.588-4.421-3.896-8.471
							c-0.521-7.093,16.15-10.88,21.463-10.438c5.297,0.428,6.527,5.772,6.527,5.772
							C214.943,413.622,214.936,415.775,214.428,417.916z"/>
						<g>
							<path style="fill:#004900;" d="M188.057,420.19c0,0,0.283-0.332,0.84-0.852c0.559-0.516,1.363-1.259,2.423-2.028
								c1.053-0.778,2.327-1.634,3.769-2.425c0.726-0.384,1.486-0.768,2.275-1.12c0.808-0.308,1.602-0.693,2.448-0.94
								c0.838-0.27,1.677-0.536,2.529-0.706c0.423-0.094,0.842-0.188,1.257-0.279c0.422-0.055,0.838-0.108,1.248-0.162
								c0.41-0.047,0.81-0.117,1.206-0.143c0.397-0.006,0.786-0.013,1.165-0.02c0.755-0.022,1.467-0.028,2.123,0.054
								c0.655,0.054,1.255,0.107,1.78,0.187c0.52,0.115,0.974,0.215,1.347,0.298c0.739,0.177,1.162,0.277,1.162,0.277
								s-0.434-0.031-1.192-0.086c-0.375-0.032-0.831-0.072-1.354-0.119c-0.524,0.002-1.115,0.004-1.759,0.006
								c-0.642-0.03-1.335,0.032-2.066,0.112c-0.365,0.035-0.739,0.071-1.122,0.107c-0.379,0.064-0.767,0.131-1.161,0.198
								c-0.393,0.066-0.793,0.135-1.198,0.204c-0.398,0.101-0.802,0.201-1.208,0.304c-0.821,0.174-1.629,0.445-2.438,0.715
								c-0.822,0.227-1.598,0.593-2.387,0.881c-0.768,0.338-1.532,0.662-2.252,1.014c-0.709,0.375-1.42,0.691-2.058,1.063
								c-0.652,0.346-1.251,0.705-1.799,1.045c-1.093,0.684-2.007,1.264-2.615,1.714C188.4,419.923,188.057,420.19,188.057,420.19z"
								/>
						</g>
					</g>
					<g>
						<path style="fill:#42A732;" d="M213.08,399.758c1.223,4.716-2.908,9.541-5.434,10.254l-0.066,0.016
							c1.619-6.827-13.898-11.894-19.502-11.797c-2.596,0.051-3.436,1.078-3.557,2.227c-0.584-3.51,3.285-7.257,3.285-7.257
							s3.162-2.915,6.48-3.565C197.607,388.992,211.855,395.043,213.08,399.758z"/>
						<g>
							<path style="fill:#004900;" d="M189.199,393.137c0,0,0.392-0.022,1.078,0.013c0.683,0.05,1.669,0.102,2.83,0.309
								c1.167,0.182,2.511,0.495,3.926,0.925c0.701,0.233,1.438,0.444,2.153,0.748c0.728,0.272,1.452,0.588,2.166,0.925
								c0.723,0.32,1.405,0.72,2.09,1.087c0.696,0.348,1.309,0.814,1.94,1.2c0.636,0.379,1.178,0.854,1.724,1.253
								c0.551,0.395,1.024,0.827,1.459,1.227c0.436,0.398,0.845,0.75,1.17,1.104c0.324,0.352,0.607,0.659,0.84,0.911
								c0.462,0.507,0.714,0.805,0.714,0.805s-0.316-0.236-0.848-0.663c-0.264-0.215-0.584-0.475-0.953-0.773
								c-0.367-0.298-0.822-0.585-1.283-0.936c-0.467-0.344-0.971-0.718-1.536-1.068c-0.564-0.35-1.125-0.767-1.759-1.115
								c-0.629-0.354-1.255-0.761-1.934-1.098c-0.673-0.348-1.343-0.726-2.051-1.028c-0.69-0.339-1.391-0.657-2.097-0.934
								c-0.696-0.3-1.396-0.558-2.073-0.811c-1.36-0.486-2.649-0.895-3.771-1.199c-1.119-0.313-2.064-0.541-2.732-0.676
								C189.586,393.202,189.199,393.137,189.199,393.137z"/>
						</g>
					</g>
					<g>
						<path style="fill:#42A732;" d="M211.936,384.307c-9.725-3.722-21.5,3.162-24.665,5.207c-1.72-1.889-3.128-4.758-3.03-8.817
							c0.191-7.109,17.158-9.21,22.4-8.238c5.227,0.956,5.918,6.396,5.918,6.396C212.877,380.086,212.654,382.228,211.936,384.307z"
							/>
						<g>
							<path style="fill:#004900;" d="M185.467,383.932c0,0,0.315-0.302,0.921-0.764c0.609-0.456,1.483-1.115,2.614-1.775
								c1.126-0.669,2.479-1.393,3.993-2.035c0.761-0.309,1.556-0.616,2.377-0.887c0.834-0.226,1.663-0.53,2.53-0.691
								c0.861-0.185,1.722-0.365,2.587-0.449c0.431-0.052,0.857-0.103,1.279-0.152c0.425-0.012,0.845-0.024,1.258-0.036
								c0.413-0.006,0.818-0.035,1.214-0.021c0.396,0.033,0.784,0.065,1.161,0.098c0.754,0.053,1.462,0.118,2.107,0.266
								c0.647,0.119,1.238,0.231,1.753,0.363c0.506,0.166,0.947,0.311,1.311,0.431c0.718,0.25,1.128,0.393,1.128,0.393
								s-0.428-0.074-1.178-0.204c-0.37-0.07-0.82-0.156-1.335-0.254c-0.521-0.051-1.109-0.108-1.751-0.171
								c-0.636-0.094-1.332-0.101-2.067-0.095c-0.366-0.002-0.743-0.004-1.128-0.006c-0.384,0.026-0.776,0.054-1.175,0.081
								c-0.398,0.027-0.803,0.056-1.212,0.083c-0.407,0.061-0.818,0.121-1.233,0.182c-0.834,0.091-1.666,0.28-2.497,0.468
								c-0.841,0.144-1.649,0.43-2.463,0.638c-0.798,0.26-1.59,0.505-2.342,0.783c-0.743,0.302-1.482,0.546-2.154,0.852
								c-0.684,0.278-1.315,0.576-1.895,0.859c-1.156,0.57-2.123,1.056-2.773,1.443
								C185.835,383.699,185.467,383.932,185.467,383.932z"/>
						</g>
					</g>
					<g>
						<path style="fill:#42A732;" d="M213.679,364.821c1.531,4.624-2.273,9.711-4.745,10.589l-0.067,0.02
							c1.168-6.918-14.65-10.95-20.236-10.484c-2.587,0.222-3.355,1.303-3.402,2.456c-0.813-3.464,2.802-7.458,2.802-7.458
							s2.961-3.116,6.229-3.985C197.53,355.1,212.145,360.196,213.679,364.821z"/>
						<g>
							<path style="fill:#004900;" d="M189.413,359.789c0,0,0.39-0.048,1.077-0.059c0.685,0.005,1.671-0.008,2.844,0.121
								c1.176,0.105,2.539,0.329,3.979,0.664c0.714,0.187,1.464,0.349,2.198,0.605c0.745,0.224,1.487,0.491,2.223,0.78
								c0.742,0.273,1.45,0.626,2.157,0.947c0.718,0.3,1.361,0.725,2.015,1.068c0.66,0.336,1.232,0.775,1.803,1.138
								c0.576,0.357,1.076,0.758,1.537,1.127c0.461,0.369,0.893,0.692,1.24,1.024c0.347,0.33,0.649,0.617,0.898,0.853
								c0.495,0.476,0.766,0.756,0.766,0.756s-0.33-0.215-0.89-0.607c-0.278-0.196-0.615-0.435-1.002-0.709
								c-0.386-0.272-0.859-0.528-1.342-0.849c-0.489-0.311-1.016-0.651-1.603-0.964c-0.586-0.313-1.173-0.691-1.829-0.997
								c-0.651-0.313-1.303-0.676-2.002-0.968c-0.694-0.303-1.388-0.636-2.115-0.892c-0.711-0.292-1.431-0.564-2.154-0.793
								c-0.714-0.253-1.43-0.464-2.122-0.672c-1.39-0.396-2.703-0.719-3.841-0.948c-1.137-0.238-2.096-0.403-2.771-0.493
								C189.803,359.829,189.413,359.789,189.413,359.789z"/>
						</g>
					</g>
					<g>
						<path style="fill:#42A732;" d="M213.891,346.145c-10.41-0.189-19.141,10.29-21.42,13.29c-2.261-1.19-4.56-3.409-5.851-7.26
							c-2.24-6.75,13-14.5,18.26-15.37c5.24-0.88,7.74,4,7.74,4C213.34,341.855,213.859,343.945,213.891,346.145z"/>
						<g>
							<path style="fill:#004900;" d="M188.875,354.8c0,0,0.193-0.392,0.606-1.031c0.417-0.637,1.015-1.554,1.854-2.56
								c0.831-1.012,1.858-2.152,3.062-3.273c0.61-0.55,1.253-1.108,1.933-1.643c0.708-0.496,1.383-1.064,2.144-1.511
								c0.747-0.467,1.495-0.93,2.279-1.304c0.387-0.194,0.771-0.387,1.151-0.578c0.396-0.156,0.786-0.31,1.17-0.462
								c0.386-0.146,0.757-0.312,1.134-0.433c0.384-0.104,0.759-0.205,1.124-0.304c0.727-0.207,1.415-0.387,2.072-0.468
								c0.649-0.108,1.243-0.203,1.772-0.255c0.533-0.016,0.997-0.029,1.379-0.041c0.76-0.009,1.194-0.015,1.194-0.015
								s-0.428,0.076-1.177,0.209c-0.372,0.06-0.824,0.132-1.342,0.215c-0.508,0.13-1.08,0.276-1.705,0.437
								c-0.63,0.127-1.287,0.357-1.976,0.614c-0.345,0.123-0.7,0.249-1.062,0.378c-0.352,0.155-0.711,0.314-1.077,0.476
								c-0.365,0.161-0.736,0.325-1.111,0.491c-0.362,0.195-0.729,0.392-1.098,0.591c-0.753,0.369-1.471,0.83-2.188,1.289
								c-0.743,0.421-1.405,0.966-2.099,1.438c-0.662,0.516-1.324,1.017-1.936,1.533c-0.595,0.537-1.208,1.019-1.735,1.534
								c-0.548,0.494-1.04,0.989-1.489,1.453c-0.893,0.93-1.637,1.716-2.116,2.301C189.142,354.456,188.875,354.8,188.875,354.8z"/>
						</g>
					</g>
					<g>
						<path style="fill:#42A732;" d="M214.166,336.341c0.121,4.87-5,8.63-7.619,8.75h-0.07c3.13-6.28-10.83-14.74-16.311-15.92
							c-2.539-0.54-3.59,0.271-3.97,1.36c0.23-3.551,4.851-6.32,4.851-6.32s3.74-2.12,7.119-2
							C201.547,322.341,214.047,331.471,214.166,336.341z"/>
						<g>
							<path style="fill:#004900;" d="M192.416,324.466c0,0,0.387,0.067,1.047,0.257c0.654,0.204,1.602,0.478,2.686,0.944
								c1.095,0.441,2.333,1.053,3.613,1.793c0.629,0.386,1.299,0.759,1.927,1.218c0.647,0.431,1.28,0.902,1.899,1.394
								c0.631,0.476,1.205,1.02,1.789,1.533c0.599,0.496,1.09,1.091,1.617,1.608c0.533,0.514,0.953,1.101,1.394,1.612
								c0.447,0.51,0.809,1.039,1.142,1.526c0.334,0.486,0.653,0.922,0.888,1.341c0.236,0.416,0.442,0.779,0.611,1.078
								c0.335,0.599,0.512,0.945,0.512,0.945s-0.254-0.302-0.675-0.839c-0.208-0.269-0.461-0.595-0.752-0.97
								c-0.29-0.373-0.668-0.756-1.037-1.202c-0.377-0.441-0.783-0.919-1.253-1.39c-0.47-0.469-0.921-1.002-1.459-1.485
								c-0.533-0.488-1.05-1.025-1.634-1.509c-0.576-0.491-1.143-1.012-1.764-1.468c-0.596-0.486-1.205-0.956-1.83-1.385
								c-0.609-0.451-1.232-0.86-1.834-1.261c-1.214-0.783-2.377-1.475-3.399-2.025c-1.019-0.559-1.887-0.996-2.507-1.278
								C192.778,324.617,192.416,324.466,192.416,324.466z"/>
						</g>
					</g>
				</g>
			</g>
			<g>
				<path style="fill:#F3AF00;" d="M193.951,304.658c0,0-2.299-4.944-7.128-1.725c-4.829,3.219,0.575,7.932,0.575,7.932
					s-6.208-2.068-7.933,2.875c-1.725,4.943,3.449,5.748,3.449,5.748s-6.553,4.139-4.369,9.888c2.185,5.749,6.898,3.22,6.898,3.22
					s-3.334,5.633,0.46,9.082c3.794,3.449,9.427-1.494,9.427-1.494s1.495,4.139,6.208,4.599c4.714,0.46,6.208-5.864,6.208-5.864
					s2.414,2.415,6.323,1.15c3.909-1.265,1.839-8.968,1.839-8.968s5.059,1.495,6.438-2.644c1.38-4.14-3.564-6.898-3.564-6.898
					s4.254-2.99,2.299-8.853c-1.955-5.863-8.048-2.529-8.048-2.529s5.519-7.013,0.23-9.657c-5.289-2.644-9.198,3.909-9.198,3.909
					s0.345-8.623-5.174-8.392C193.376,296.265,193.951,304.658,193.951,304.658z"/>
				<path style="fill:#DE8C00;" d="M195.79,314.315c0,0-3.794-5.059-6.898-0.919c-3.104,4.139-0.115,7.933-0.115,7.933
					s-4.484,1.609-3.219,6.323c1.265,4.714,5.979,2.415,5.979,2.415s-1.955,3.334,1.15,5.059c3.104,1.725,7.128-2.414,7.128-2.414
					s1.839,3.908,6.208,2.184c4.369-1.725,1.955-6.438,1.955-6.438s4.943,1.148,5.863-3.795c0.92-4.943-4.254-6.208-4.254-6.208
					s2.299-1.38,0.345-5.749c-1.955-4.369-5.864,0-5.864,0s-1.495-6.668-4.829-5.863C195.906,307.647,195.79,314.315,195.79,314.315
					z"/>
				<path style="fill:#F3AF00;" d="M197.745,319.029c0,0-1.955-2.3-3.909-0.346c-1.955,1.955,0.805,3.449,0.805,3.449
					s-3.794,1.494-2.299,3.68c1.495,2.184,5.289,0,5.289,0s-0.689,3.449,2.759,3.564c3.449,0.115,2.53-3.794,2.53-3.794
					s3.449,0.345,3.219-2.989c-0.23-3.334-2.414-1.954-2.414-1.954s1.149-3.104-1.725-4.714
					C199.124,314.315,197.745,319.029,197.745,319.029z"/>
			</g>
			<g>
				<path style="fill:#FF5012;" d="M202.433,439.504c0,0-0.396-5.252-3.369-4.658c-2.973,0.595-2.874,5.748-2.874,5.748
					s-3.865-3.567-6.342-1.387c-2.478,2.18,0.099,5.549,0.099,5.549s-5.45,0.99-4.955,5.152c0.496,4.162,4.46,4.162,4.46,4.162
					s-2.874,2.577-0.893,5.055c1.982,2.477,5.55-0.1,5.55-0.1s0.1,3.469,3.171,4.46c3.072,0.991,4.955-2.775,4.955-2.775
					s1.685,1.783,4.262,0.594c2.575-1.189,1.585-3.963,1.585-3.963s2.774,0.495,4.558-2.478c1.783-2.973-1.189-4.756-1.189-4.756
					s3.072-1.486,2.181-5.55c-0.892-4.063-4.757-1.585-4.757-1.585s2.576-4.955-1.09-6.244
					C204.117,435.44,202.433,439.504,202.433,439.504z"/>
				<path style="fill:#C93114;" d="M199.459,445.178c0,0-1.189-2.899-3.27-2.305c-2.081,0.594-1.264,4.905-1.264,4.905
					s-3.791,0.297-3.567,3.122c0.223,2.824,3.791,1.932,3.791,1.932s-1.562,2.155,0.52,3.642c2.081,1.487,4.46-1.188,4.46-1.188
					s0.669,2.452,3.419,1.932c2.75-0.52,1.337-4.014,1.337-4.014s2.899,0.967,3.643-2.08c0.742-3.048-2.527-3.865-2.527-3.865
					s1.561-2.602-0.817-4.607C202.804,440.643,199.459,445.178,199.459,445.178z"/>
			</g>
		</g>
		<g>
			<g>
				<g>
					<path style="fill:#004900;" d="M536.102,430.682c-1.027,4.762,3.301,9.412,5.852,10.02l0.068,0.013
						c2.775,0.507,18.188-4.219,21.607-8.23c0.619-0.737,0.939-1.511,1.035-2.287c0.438-3.53-3.584-7.114-3.584-7.114
						s-3.279-2.781-6.621-3.295C551.113,419.285,537.129,425.92,536.102,430.682z"/>
					<path style="fill:#004900;" d="M535.764,417.916c0.445,1.93,1.301,3.849,2.584,5.052c2.704,2.545,14.438,5.64,17.23,4.935
						c1.202-0.303,2.77-1.039,4.205-2.339c1.9-1.707,3.588-4.421,3.896-8.471c0.521-7.093-16.15-10.88-21.463-10.438
						c-5.297,0.428-6.527,5.772-6.527,5.772C535.248,413.622,535.255,415.775,535.764,417.916z"/>
					<path style="fill:#004900;" d="M537.111,399.758c-1.223,4.716,2.908,9.541,5.434,10.254l0.066,0.016
						c2.752,0.621,18.348-3.461,21.93-7.328c0.648-0.711,1.002-1.471,1.129-2.242c0.584-3.51-3.285-7.257-3.285-7.257
						s-3.162-2.915-6.48-3.565C552.584,388.992,538.336,395.043,537.111,399.758z"/>
					<path style="fill:#004900;" d="M538.256,384.307c0.637,1.876,1.68,3.699,3.077,4.768c2.946,2.263,14.929,4.168,17.638,3.189
						c1.166-0.423,2.652-1.311,3.95-2.749c1.72-1.889,3.128-4.758,3.03-8.817c-0.191-7.109-17.158-9.21-22.4-8.238
						c-5.227,0.956-5.918,6.396-5.918,6.396C537.315,380.086,537.537,382.228,538.256,384.307z"/>
					<path style="fill:#004900;" d="M536.513,364.821c-1.531,4.624,2.273,9.711,4.745,10.589l0.067,0.02
						c2.703,0.802,18.534-2.243,22.364-5.865c0.694-0.667,1.095-1.402,1.274-2.163c0.813-3.464-2.802-7.458-2.802-7.458
						s-2.961-3.116-6.23-3.985C552.661,355.1,538.046,360.196,536.513,364.821z"/>
					<path style="fill:#004900;" d="M536.301,346.145c-0.039,1.98,0.32,4.051,1.271,5.53c2,3.13,12.62,9,15.5,9
						c1.24,0,2.94-0.33,4.649-1.24c2.261-1.19,4.561-3.409,5.851-7.26c2.24-6.75-13-14.5-18.26-15.37c-5.24-0.88-7.74,4-7.74,4
						C536.852,341.855,536.332,343.945,536.301,346.145z"/>
					<path style="fill:#004900;" d="M536.025,336.341c-0.121,4.87,5,8.63,7.619,8.75h0.07c2.82-0.02,17.08-7.54,19.69-12.12
						c0.471-0.84,0.641-1.66,0.591-2.439c-0.229-3.551-4.851-6.32-4.851-6.32s-3.74-2.12-7.119-2
						C548.644,322.341,536.144,331.471,536.025,336.341z"/>
				</g>
				<g>
					<g>
						<path style="fill:#DE8C00;" d="M549.191,317.008c0,21.301,0,42.603,0,63.903c0,25.866,0,51.732,0,77.598
							c0,0.749,0,1.499,0,2.249c0,1.29,2,1.29,2,0c0-21.301,0-42.603,0-63.903c0-25.866,0-51.732,0-77.598c0-0.749,0-1.499,0-2.249
							C551.191,315.718,549.191,315.718,549.191,317.008L549.191,317.008z"/>
					</g>
				</g>
				<g>
					<g>
						<path style="fill:#42A732;" d="M536.102,430.682c-1.027,4.762,3.301,9.412,5.852,10.02l0.068,0.013
							c-1.902-6.753,13.393-12.459,18.996-12.595c2.596-0.057,3.477,0.936,3.646,2.077c0.438-3.53-3.584-7.114-3.584-7.114
							s-3.279-2.781-6.621-3.295C551.113,419.285,537.129,425.92,536.102,430.682z"/>
						<g>
							<path style="fill:#004900;" d="M559.685,423.076c0,0-0.384,0.081-1.045,0.248c-0.661,0.162-1.597,0.43-2.701,0.788
								c-1.108,0.35-2.378,0.813-3.717,1.354c-0.666,0.281-1.355,0.567-2.038,0.897c-0.694,0.305-1.38,0.652-2.057,1.02
								c-0.694,0.332-1.349,0.737-2.006,1.112c-0.665,0.365-1.273,0.797-1.888,1.177c-0.618,0.375-1.162,0.814-1.711,1.188
								c-0.549,0.374-1.037,0.768-1.49,1.131c-0.445,0.37-0.889,0.676-1.243,0.988c-0.354,0.314-0.665,0.587-0.92,0.812
								c-0.514,0.449-0.819,0.698-0.819,0.698s0.239-0.308,0.68-0.833c0.223-0.263,0.492-0.58,0.802-0.945
								c0.309-0.367,0.704-0.735,1.123-1.151c0.418-0.417,0.873-0.869,1.407-1.286c0.528-0.421,1.05-0.919,1.67-1.323
								c0.613-0.411,1.207-0.903,1.889-1.279c0.669-0.395,1.335-0.822,2.043-1.173c0.7-0.366,1.409-0.712,2.126-1.015
								c0.702-0.333,1.43-0.574,2.12-0.836c1.396-0.488,2.727-0.857,3.884-1.087c1.152-0.255,2.135-0.349,2.815-0.426
								C559.293,423.07,559.685,423.076,559.685,423.076z"/>
						</g>
					</g>
					<g>
						<path style="fill:#42A732;" d="M535.764,417.916c10.047-2.73,21.075,5.297,24.02,7.649c1.9-1.707,3.588-4.421,3.896-8.471
							c0.521-7.093-16.15-10.88-21.463-10.438c-5.297,0.428-6.527,5.772-6.527,5.772
							C535.248,413.622,535.255,415.775,535.764,417.916z"/>
						<g>
							<path style="fill:#004900;" d="M562.135,420.19c0,0-0.343-0.267-0.964-0.702c-0.607-0.45-1.521-1.03-2.614-1.714
								c-0.549-0.34-1.146-0.699-1.799-1.045c-0.639-0.371-1.35-0.688-2.059-1.063c-0.72-0.352-1.483-0.676-2.252-1.014
								c-0.788-0.288-1.563-0.654-2.387-0.881c-0.808-0.27-1.616-0.541-2.436-0.715c-0.407-0.102-0.811-0.203-1.209-0.304
								c-0.405-0.069-0.805-0.138-1.198-0.204c-0.394-0.067-0.781-0.134-1.16-0.198c-0.383-0.036-0.758-0.072-1.122-0.107
								c-0.732-0.08-1.425-0.143-2.066-0.112c-0.645-0.002-1.235-0.004-1.759-0.006c-0.523,0.047-0.979,0.087-1.354,0.119
								c-0.759,0.055-1.192,0.086-1.192,0.086s0.422-0.101,1.161-0.277c0.374-0.083,0.827-0.183,1.348-0.298
								c0.525-0.079,1.125-0.133,1.78-0.187c0.656-0.082,1.367-0.076,2.123-0.054c0.378,0.007,0.767,0.014,1.164,0.02
								c0.396,0.025,0.797,0.096,1.206,0.143c0.41,0.054,0.826,0.107,1.248,0.162c0.414,0.092,0.834,0.186,1.257,0.279
								c0.852,0.17,1.69,0.437,2.529,0.706c0.846,0.247,1.64,0.633,2.447,0.94c0.79,0.353,1.55,0.736,2.275,1.12
								c1.442,0.791,2.717,1.646,3.77,2.425c1.06,0.77,1.863,1.513,2.423,2.028C561.852,419.858,562.135,420.19,562.135,420.19z"/>
						</g>
					</g>
					<g>
						<path style="fill:#42A732;" d="M537.111,399.758c-1.223,4.716,2.908,9.541,5.434,10.254l0.066,0.016
							c-1.619-6.827,13.898-11.894,19.502-11.797c2.596,0.051,3.435,1.078,3.557,2.227c0.584-3.51-3.285-7.257-3.285-7.257
							s-3.162-2.915-6.48-3.565C552.584,388.992,538.336,395.043,537.111,399.758z"/>
						<g>
							<path style="fill:#004900;" d="M560.992,393.137c0,0-0.387,0.065-1.054,0.204c-0.668,0.135-1.613,0.363-2.732,0.676
								c-1.12,0.304-2.41,0.713-3.771,1.199c-0.677,0.253-1.377,0.511-2.072,0.811c-0.706,0.276-1.406,0.595-2.098,0.934
								c-0.708,0.303-1.378,0.681-2.051,1.028c-0.679,0.337-1.305,0.743-1.935,1.098c-0.634,0.349-1.194,0.766-1.759,1.115
								c-0.565,0.351-1.067,0.725-1.535,1.068c-0.461,0.351-0.916,0.638-1.283,0.936c-0.368,0.299-0.688,0.559-0.953,0.773
								c-0.532,0.427-0.848,0.663-0.848,0.663s0.252-0.298,0.714-0.805c0.232-0.252,0.516-0.559,0.84-0.911
								c0.324-0.354,0.733-0.705,1.17-1.104c0.435-0.399,0.908-0.832,1.459-1.227c0.546-0.398,1.088-0.874,1.724-1.253
								c0.63-0.386,1.243-0.853,1.94-1.2c0.685-0.367,1.367-0.767,2.09-1.087c0.715-0.337,1.438-0.652,2.166-0.925
								c0.716-0.304,1.452-0.515,2.153-0.748c1.415-0.43,2.76-0.743,3.926-0.925c1.162-0.207,2.147-0.259,2.83-0.309
								C560.6,393.114,560.992,393.137,560.992,393.137z"/>
						</g>
					</g>
					<g>
						<path style="fill:#42A732;" d="M538.256,384.307c9.725-3.722,21.5,3.162,24.665,5.207c1.72-1.889,3.128-4.758,3.03-8.817
							c-0.191-7.109-17.158-9.21-22.4-8.238c-5.227,0.956-5.918,6.396-5.918,6.396C537.315,380.086,537.537,382.228,538.256,384.307
							z"/>
						<g>
							<path style="fill:#004900;" d="M564.725,383.932c0,0-0.368-0.232-1.029-0.603c-0.649-0.388-1.617-0.873-2.773-1.443
								c-0.58-0.283-1.211-0.581-1.895-0.859c-0.672-0.306-1.411-0.55-2.154-0.852c-0.752-0.278-1.544-0.523-2.342-0.783
								c-0.814-0.208-1.622-0.494-2.463-0.638c-0.832-0.188-1.663-0.377-2.497-0.468c-0.415-0.06-0.826-0.121-1.233-0.182
								c-0.409-0.027-0.813-0.056-1.212-0.083c-0.398-0.027-0.791-0.055-1.175-0.081c-0.385,0.002-0.761,0.004-1.127,0.006
								c-0.735-0.007-1.432,0.001-2.067,0.095c-0.642,0.063-1.23,0.12-1.751,0.171c-0.516,0.098-0.966,0.184-1.336,0.254
								c-0.749,0.13-1.178,0.204-1.178,0.204s0.41-0.143,1.128-0.393c0.363-0.119,0.805-0.265,1.311-0.431
								c0.516-0.132,1.106-0.244,1.753-0.363c0.644-0.147,1.354-0.213,2.107-0.266c0.377-0.032,0.765-0.065,1.16-0.098
								c0.396-0.014,0.802,0.016,1.215,0.021c0.413,0.012,0.833,0.024,1.258,0.036c0.422,0.05,0.849,0.101,1.278,0.152
								c0.865,0.084,1.727,0.265,2.587,0.449c0.867,0.161,1.695,0.466,2.53,0.691c0.82,0.271,1.616,0.577,2.376,0.887
								c1.515,0.643,2.868,1.366,3.993,2.035c1.132,0.66,2.006,1.319,2.614,1.775C564.41,383.63,564.725,383.932,564.725,383.932z"
								/>
						</g>
					</g>
					<g>
						<path style="fill:#42A732;" d="M536.513,364.821c-1.531,4.624,2.273,9.711,4.745,10.589l0.067,0.02
							c-1.168-6.918,14.65-10.95,20.236-10.484c2.587,0.222,3.356,1.303,3.402,2.456c0.813-3.464-2.802-7.458-2.802-7.458
							s-2.961-3.116-6.23-3.985C552.661,355.1,538.046,360.196,536.513,364.821z"/>
						<g>
							<path style="fill:#004900;" d="M560.778,359.789c0,0-0.391,0.04-1.065,0.135c-0.675,0.09-1.634,0.255-2.771,0.493
								c-1.139,0.23-2.452,0.553-3.841,0.948c-0.693,0.208-1.408,0.419-2.122,0.672c-0.724,0.229-1.442,0.501-2.154,0.793
								c-0.727,0.256-1.421,0.589-2.114,0.892c-0.7,0.292-1.352,0.655-2.003,0.968c-0.655,0.306-1.243,0.684-1.828,0.997
								c-0.587,0.313-1.114,0.652-1.604,0.964c-0.483,0.32-0.956,0.576-1.342,0.849c-0.387,0.274-0.724,0.513-1.002,0.709
								c-0.559,0.392-0.89,0.607-0.89,0.607s0.271-0.28,0.766-0.756c0.249-0.236,0.551-0.523,0.898-0.853
								c0.346-0.332,0.778-0.655,1.239-1.024c0.461-0.369,0.962-0.77,1.537-1.127c0.571-0.362,1.143-0.802,1.803-1.138
								c0.654-0.343,1.297-0.768,2.015-1.068c0.708-0.321,1.416-0.675,2.158-0.947c0.734-0.289,1.477-0.557,2.222-0.78
								c0.734-0.256,1.483-0.418,2.198-0.605c1.44-0.335,2.803-0.559,3.978-0.664c1.173-0.129,2.16-0.116,2.845-0.121
								C560.389,359.741,560.778,359.789,560.778,359.789z"/>
						</g>
					</g>
					<g>
						<path style="fill:#42A732;" d="M536.301,346.145c10.41-0.189,19.141,10.29,21.42,13.29c2.261-1.19,4.561-3.409,5.851-7.26
							c2.24-6.75-13-14.5-18.26-15.37c-5.24-0.88-7.74,4-7.74,4C536.852,341.855,536.332,343.945,536.301,346.145z"/>
						<g>
							<path style="fill:#004900;" d="M561.316,354.8c0,0-0.268-0.344-0.763-0.917c-0.48-0.585-1.224-1.371-2.116-2.301
								c-0.449-0.464-0.941-0.959-1.489-1.453c-0.527-0.516-1.14-0.997-1.735-1.534c-0.612-0.517-1.273-1.018-1.936-1.533
								c-0.695-0.472-1.357-1.017-2.1-1.438c-0.718-0.459-1.435-0.92-2.188-1.289c-0.369-0.199-0.735-0.395-1.098-0.591
								c-0.375-0.166-0.746-0.33-1.111-0.491c-0.366-0.161-0.726-0.32-1.077-0.476c-0.362-0.129-0.717-0.255-1.063-0.378
								c-0.688-0.257-1.346-0.487-1.976-0.614c-0.625-0.16-1.197-0.307-1.704-0.437c-0.518-0.083-0.971-0.155-1.343-0.215
								c-0.749-0.133-1.177-0.209-1.177-0.209s0.435,0.006,1.194,0.015c0.382,0.012,0.847,0.025,1.379,0.041
								c0.529,0.052,1.123,0.147,1.773,0.255c0.656,0.081,1.345,0.261,2.071,0.468c0.365,0.099,0.74,0.199,1.124,0.304
								c0.378,0.121,0.749,0.287,1.135,0.433c0.385,0.152,0.775,0.306,1.17,0.462c0.38,0.191,0.764,0.384,1.151,0.578
								c0.784,0.374,1.532,0.837,2.279,1.304c0.761,0.446,1.435,1.015,2.143,1.511c0.68,0.534,1.322,1.093,1.933,1.643
								c1.205,1.12,2.232,2.261,3.062,3.273c0.84,1.006,1.438,1.923,1.855,2.56C561.123,354.408,561.316,354.8,561.316,354.8z"/>
						</g>
					</g>
					<g>
						<path style="fill:#42A732;" d="M536.025,336.341c-0.121,4.87,5,8.63,7.619,8.75h0.07c-3.13-6.28,10.83-14.74,16.311-15.92
							c2.539-0.54,3.59,0.271,3.97,1.36c-0.229-3.551-4.851-6.32-4.851-6.32s-3.74-2.12-7.119-2
							C548.644,322.341,536.144,331.471,536.025,336.341z"/>
						<g>
							<path style="fill:#004900;" d="M557.775,324.466c0,0-0.361,0.151-0.979,0.439c-0.62,0.282-1.489,0.72-2.508,1.278
								c-1.023,0.551-2.185,1.242-3.398,2.025c-0.602,0.4-1.226,0.81-1.835,1.261c-0.625,0.429-1.234,0.898-1.83,1.385
								c-0.62,0.456-1.188,0.977-1.764,1.468c-0.584,0.483-1.102,1.021-1.634,1.509c-0.538,0.483-0.99,1.017-1.46,1.485
								c-0.47,0.471-0.875,0.948-1.253,1.39c-0.369,0.446-0.747,0.829-1.037,1.202c-0.29,0.375-0.543,0.701-0.752,0.97
								c-0.421,0.537-0.675,0.839-0.675,0.839s0.178-0.347,0.513-0.945c0.169-0.299,0.375-0.662,0.61-1.078
								c0.235-0.419,0.555-0.855,0.889-1.341c0.333-0.487,0.695-1.017,1.143-1.526c0.44-0.512,0.86-1.099,1.393-1.612
								c0.526-0.518,1.018-1.112,1.616-1.608c0.584-0.514,1.158-1.058,1.789-1.533c0.619-0.491,1.252-0.963,1.899-1.394
								c0.628-0.459,1.297-0.832,1.927-1.218c1.28-0.74,2.518-1.352,3.613-1.793c1.084-0.466,2.032-0.74,2.685-0.944
								C557.389,324.533,557.775,324.466,557.775,324.466z"/>
						</g>
					</g>
				</g>
			</g>
			<g>
				<path style="fill:#F3AF00;" d="M556.24,304.658c0,0,2.299-4.944,7.129-1.725c4.828,3.219-0.576,7.932-0.576,7.932
					s6.209-2.068,7.934,2.875c1.725,4.943-3.449,5.748-3.449,5.748s6.553,4.139,4.369,9.888c-2.185,5.749-6.898,3.22-6.898,3.22
					s3.334,5.633-0.46,9.082c-3.794,3.449-9.427-1.494-9.427-1.494s-1.495,4.139-6.209,4.599c-4.714,0.46-6.209-5.864-6.209-5.864
					s-2.414,2.415-6.322,1.15c-3.91-1.265-1.84-8.968-1.84-8.968s-5.059,1.495-6.439-2.644c-1.38-4.14,3.564-6.898,3.564-6.898
					s-4.254-2.99-2.299-8.853c1.955-5.863,8.048-2.529,8.048-2.529s-5.519-7.013-0.229-9.657c5.288-2.644,9.197,3.909,9.197,3.909
					s-0.345-8.623,5.174-8.392C556.815,296.265,556.24,304.658,556.24,304.658z"/>
				<path style="fill:#DE8C00;" d="M554.4,314.315c0,0,3.795-5.059,6.898-0.919c3.104,4.139,0.115,7.933,0.115,7.933
					s4.484,1.609,3.219,6.323c-1.264,4.714-5.979,2.415-5.979,2.415s1.955,3.334-1.149,5.059s-7.128-2.414-7.128-2.414
					s-1.84,3.908-6.209,2.184c-4.368-1.725-1.954-6.438-1.954-6.438s-4.943,1.148-5.863-3.795s4.254-6.208,4.254-6.208
					s-2.3-1.38-0.345-5.749c1.954-4.369,5.863,0,5.863,0s1.494-6.668,4.828-5.863C554.285,307.647,554.4,314.315,554.4,314.315z"/>
				<path style="fill:#F3AF00;" d="M552.446,319.029c0,0,1.954-2.3,3.909-0.346c1.955,1.955-0.805,3.449-0.805,3.449
					s3.794,1.494,2.299,3.68c-1.494,2.184-5.288,0-5.288,0s0.69,3.449-2.759,3.564c-3.449,0.115-2.53-3.794-2.53-3.794
					s-3.448,0.345-3.219-2.989c0.229-3.334,2.414-1.954,2.414-1.954s-1.149-3.104,1.725-4.714
					C551.066,314.315,552.446,319.029,552.446,319.029z"/>
			</g>
			<g>
				<path style="fill:#FF5012;" d="M547.759,439.504c0,0,0.396-5.252,3.369-4.658c2.973,0.595,2.874,5.748,2.874,5.748
					s3.865-3.567,6.342-1.387c2.477,2.18-0.099,5.549-0.099,5.549s5.45,0.99,4.955,5.152c-0.496,4.162-4.46,4.162-4.46,4.162
					s2.874,2.577,0.893,5.055c-1.982,2.477-5.55-0.1-5.55-0.1s-0.1,3.469-3.171,4.46c-3.072,0.991-4.955-2.775-4.955-2.775
					s-1.685,1.783-4.262,0.594c-2.575-1.189-1.585-3.963-1.585-3.963s-2.775,0.495-4.559-2.478
					c-1.783-2.973,1.189-4.756,1.189-4.756s-3.072-1.486-2.181-5.55c0.892-4.063,4.757-1.585,4.757-1.585s-2.576-4.955,1.09-6.244
					C546.074,435.44,547.759,439.504,547.759,439.504z"/>
				<path style="fill:#C93114;" d="M550.732,445.178c0,0,1.189-2.899,3.27-2.305c2.081,0.594,1.264,4.905,1.264,4.905
					s3.791,0.297,3.567,3.122c-0.223,2.824-3.791,1.932-3.791,1.932s1.562,2.155-0.52,3.642c-2.081,1.487-4.46-1.188-4.46-1.188
					s-0.669,2.452-3.419,1.932c-2.75-0.52-1.337-4.014-1.337-4.014s-2.899,0.967-3.643-2.08c-0.742-3.048,2.527-3.865,2.527-3.865
					s-1.561-2.602,0.817-4.607C547.388,440.643,550.732,445.178,550.732,445.178z"/>
			</g>
		</g>
		<g>
			<g>
				<g>
					<path style="fill:#004900;" d="M508.467,326.091c0,0,11.501,22.334,0.834,42.834c0,0-14-13-13.834-39.167
						C495.634,303.591,506.467,321.924,508.467,326.091z"/>
					<g>
						<path style="fill:#42A732;" d="M509.301,368.925c0,0-0.555-3.139-1.309-7.83c-0.388-2.342-0.84-5.074-1.324-8.001
							c-0.228-1.464-0.513-2.969-0.771-4.501c-0.245-1.535-0.548-3.084-0.835-4.636c-0.545-3.109-1.2-6.192-1.794-9.089
							c-0.326-1.441-0.641-2.834-0.939-4.155c-0.346-1.308-0.652-2.552-0.931-3.704c-0.32-1.14-0.614-2.184-0.875-3.109
							c-0.243-0.936-0.524-1.726-0.735-2.386c-0.416-1.329-0.654-2.089-0.654-2.089s0.372,0.704,1.022,1.936
							c0.313,0.624,0.73,1.37,1.086,2.274c0.377,0.896,0.824,1.902,1.249,3.022c0.404,1.127,0.842,2.35,1.276,3.653
							c0.392,1.314,0.819,2.697,1.213,4.143c0.352,1.452,0.771,2.943,1.097,4.479c0.311,1.538,0.67,3.094,0.951,4.661
							c0.267,1.571,0.55,3.14,0.773,4.691c0.252,1.548,0.428,3.081,0.605,4.563c0.197,1.478,0.31,2.918,0.438,4.279
							c0.133,1.36,0.204,2.652,0.283,3.843C509.413,365.735,509.301,368.925,509.301,368.925z"/>
					</g>
				</g>
				<g>
					<path style="fill:#42A700;" d="M482.834,326.091c0,0-11.501,22.334-0.834,42.834c0,0,14-13,13.834-39.167
						C495.667,303.591,484.834,321.924,482.834,326.091z"/>
					<g>
						<path style="fill:#004900;" d="M482,368.925c0,0-0.112-3.189,0.172-7.956c0.079-1.19,0.15-2.482,0.283-3.843
							c0.129-1.361,0.241-2.801,0.439-4.279c0.178-1.482,0.354-3.015,0.605-4.563c0.224-1.551,0.507-3.119,0.773-4.691
							c0.281-1.567,0.641-3.123,0.951-4.661c0.326-1.535,0.745-3.026,1.097-4.479c0.394-1.445,0.821-2.829,1.213-4.143
							c0.435-1.304,0.872-2.526,1.276-3.653c0.425-1.12,0.872-2.127,1.249-3.022c0.355-0.904,0.773-1.65,1.086-2.274
							c0.65-1.232,1.022-1.936,1.022-1.936s-0.238,0.76-0.654,2.089c-0.211,0.66-0.492,1.45-0.735,2.386
							c-0.261,0.926-0.555,1.97-0.875,3.109c-0.278,1.152-0.585,2.396-0.931,3.704c-0.299,1.321-0.613,2.714-0.939,4.155
							c-0.594,2.896-1.249,5.98-1.794,9.089c-0.287,1.552-0.59,3.101-0.835,4.636c-0.258,1.532-0.543,3.037-0.771,4.501
							c-0.484,2.927-0.936,5.659-1.324,8.001C482.555,365.786,482,368.925,482,368.925z"/>
					</g>
				</g>
			</g>
			<g>
				<path style="fill:#FF5012;" d="M492.477,303c0,0-1.486-3.196-4.608-1.115c-3.121,2.081,0.372,5.128,0.372,5.128
					s-4.014-1.337-5.128,1.858c-1.115,3.195,2.229,3.716,2.229,3.716s-4.236,2.676-2.824,6.392c1.411,3.717,4.459,2.082,4.459,2.082
					s-2.155,3.641,0.297,5.871c2.453,2.229,6.095-0.967,6.095-0.967s0.966,2.676,4.014,2.973c3.047,0.298,4.014-3.79,4.014-3.79
					s1.561,1.562,4.087,0.743c2.527-0.817,1.189-5.797,1.189-5.797s3.271,0.967,4.162-1.709c0.892-2.676-2.304-4.46-2.304-4.46
					s2.75-1.933,1.486-5.723c-1.264-3.79-5.203-1.636-5.203-1.636s3.568-4.533,0.149-6.242c-3.419-1.71-5.946,2.526-5.946,2.526
					s0.224-5.574-3.344-5.425C492.105,297.574,492.477,303,492.477,303z"/>
				<path style="fill:#C93114;" d="M493.666,309.242c0,0-2.452-3.27-4.458-0.594c-2.008,2.676-0.075,5.128-0.075,5.128
					s-2.898,1.04-2.081,4.088c0.817,3.047,3.865,1.56,3.865,1.56s-1.264,2.155,0.742,3.271c2.007,1.115,4.608-1.561,4.608-1.561
					s1.189,2.526,4.014,1.412c2.824-1.115,1.264-4.162,1.264-4.162s3.196,0.742,3.79-2.453c0.595-3.195-2.75-4.014-2.75-4.014
					s1.486-0.892,0.224-3.716c-1.264-2.824-3.791,0-3.791,0s-0.966-4.311-3.121-3.79
					C493.741,304.932,493.666,309.242,493.666,309.242z"/>
			</g>
		</g>
		<g>
			<g>
				<g>
					<path style="fill:#004900;" d="M266.467,328.091c0,0,11.501,22.334,0.833,42.834c0,0-14-13-13.833-39.167
						C253.634,305.591,264.467,323.924,266.467,328.091z"/>
					<g>
						<path style="fill:#42A732;" d="M267.301,370.925c0.001,0-0.555-3.139-1.308-7.83c-0.388-2.342-0.84-5.074-1.324-8.001
							c-0.229-1.464-0.514-2.969-0.771-4.501c-0.245-1.535-0.548-3.084-0.835-4.636c-0.545-3.109-1.201-6.192-1.794-9.089
							c-0.326-1.441-0.641-2.834-0.939-4.155c-0.346-1.308-0.652-2.552-0.931-3.704c-0.32-1.14-0.614-2.184-0.874-3.109
							c-0.243-0.936-0.524-1.726-0.735-2.386c-0.417-1.329-0.654-2.089-0.654-2.089s0.372,0.704,1.022,1.936
							c0.313,0.624,0.731,1.37,1.086,2.274c0.377,0.896,0.825,1.902,1.25,3.022c0.404,1.127,0.841,2.35,1.275,3.653
							c0.393,1.314,0.82,2.697,1.213,4.143c0.352,1.452,0.771,2.943,1.096,4.479c0.311,1.538,0.67,3.094,0.951,4.661
							c0.268,1.571,0.55,3.14,0.774,4.691c0.252,1.548,0.428,3.081,0.605,4.563c0.197,1.478,0.31,2.918,0.439,4.279
							c0.132,1.36,0.204,2.652,0.283,3.843C267.414,367.735,267.3,370.925,267.301,370.925z"/>
					</g>
				</g>
				<g>
					<path style="fill:#42A700;" d="M240.833,328.091c0,0-11.501,22.334-0.833,42.834c0,0,14-13,13.833-39.167
						C253.667,305.591,242.833,323.924,240.833,328.091z"/>
					<g>
						<path style="fill:#004900;" d="M240,370.925c0,0-0.113-3.189,0.172-7.956c0.079-1.19,0.151-2.482,0.283-3.843
							c0.129-1.361,0.242-2.801,0.439-4.279c0.178-1.482,0.354-3.015,0.605-4.563c0.224-1.551,0.506-3.119,0.774-4.691
							c0.281-1.567,0.64-3.123,0.951-4.661c0.325-1.535,0.744-3.026,1.096-4.479c0.394-1.445,0.821-2.829,1.213-4.143
							c0.434-1.304,0.872-2.526,1.275-3.653c0.425-1.12,0.872-2.127,1.249-3.022c0.355-0.904,0.773-1.65,1.086-2.274
							c0.65-1.232,1.022-1.936,1.022-1.936s-0.238,0.76-0.654,2.089c-0.211,0.66-0.492,1.45-0.735,2.386
							c-0.26,0.926-0.554,1.97-0.875,3.109c-0.279,1.152-0.585,2.397-0.931,3.704c-0.299,1.321-0.614,2.714-0.939,4.155
							c-0.593,2.896-1.249,5.98-1.794,9.089c-0.287,1.552-0.59,3.101-0.835,4.636c-0.257,1.532-0.542,3.037-0.771,4.501
							c-0.484,2.927-0.936,5.659-1.324,8.001C240.555,367.786,239.999,370.925,240,370.925z"/>
					</g>
				</g>
			</g>
			<g>
				<path style="fill:#FF5012;" d="M248.913,305.596c0,0-3.345-3.79-5.574-0.669c-2.23,3.121,0,4.607,0,4.607
					s-4.162,0.075-4.608,3.865c-0.446,3.791,1.784,4.683,1.784,4.683s-2.453,2.229-0.892,5.648c1.561,3.419,3.642,1.486,3.642,1.486
					s-0.818,3.939,1.189,4.979c2.007,1.041,5.798-2.006,5.798-2.006s0.297,3.641,3.938,3.418c3.643-0.223,4.534-3.939,4.534-3.939
					s1.561,2.156,4.014,0.818c2.452-1.338,0.669-4.607,0.669-4.607s4.385,0.223,5.202-4.162c0.817-4.386-3.345-5.5-3.345-5.5
					s4.014-2.453,2.155-5.426c-1.857-2.973-4.756-0.967-4.756-0.967s1.486-4.162-1.189-5.128c-2.676-0.966-5.203,1.71-5.203,1.71
					s-0.817-4.609-4.385-3.717C248.318,301.583,248.913,305.596,248.913,305.596z"/>
				<path style="fill:#C93114;" d="M255.75,309.758c0,0-1.486-4.46-4.607-3.271c-3.121,1.19-1.784,5.203-1.784,5.203
					s-3.567-1.486-4.756,1.709c-1.189,3.196,1.263,4.236,1.263,4.236s-2.973,2.23-1.783,4.758c1.189,2.525,5.054,1.709,5.054,1.709
					s0.223,2.155,2.378,2.676c2.155,0.52,4.46-2.601,4.46-2.601s1.71,1.783,3.939,0c2.229-1.783,0.743-3.717,0.743-3.717
					s3.121,0.074,2.75-3.79c-0.372-3.864-3.717-3.79-3.717-3.79s1.71-2.23,0.595-3.643
					C259.169,307.825,255.75,309.758,255.75,309.758z"/>
			</g>
		</g>
		<g>
			<g>
				<g>
					<path style="fill:#004900;" d="M131.833,328.091c0,0-11.5,22.334-0.833,42.834c0,0,14-13,13.833-39.167
						C144.667,305.591,133.833,323.924,131.833,328.091z"/>
					<g>
						<path style="fill:#42A732;" d="M131,370.925c0.001,0-0.113-3.189,0.172-7.956c0.079-1.19,0.151-2.482,0.283-3.843
							c0.129-1.361,0.242-2.801,0.439-4.279c0.178-1.482,0.354-3.015,0.605-4.563c0.224-1.551,0.506-3.119,0.774-4.691
							c0.281-1.567,0.64-3.123,0.951-4.661c0.325-1.535,0.744-3.026,1.096-4.479c0.394-1.445,0.821-2.829,1.213-4.143
							c0.434-1.304,0.872-2.526,1.275-3.653c0.425-1.12,0.872-2.127,1.249-3.022c0.355-0.904,0.773-1.65,1.086-2.274
							c0.65-1.232,1.022-1.936,1.022-1.936s-0.238,0.76-0.654,2.089c-0.211,0.66-0.492,1.45-0.735,2.386
							c-0.26,0.926-0.554,1.97-0.874,3.109c-0.279,1.152-0.585,2.397-0.931,3.704c-0.299,1.321-0.614,2.714-0.939,4.155
							c-0.593,2.896-1.249,5.98-1.794,9.089c-0.287,1.552-0.59,3.101-0.835,4.636c-0.257,1.532-0.542,3.037-0.771,4.501
							c-0.484,2.927-0.936,5.659-1.324,8.001C131.555,367.786,130.999,370.925,131,370.925z"/>
					</g>
				</g>
				<g>
					<path style="fill:#42A700;" d="M157.467,328.091c0,0,11.5,22.334,0.833,42.834c0,0-14-13-13.833-39.167
						C144.634,305.591,155.467,323.924,157.467,328.091z"/>
					<g>
						<path style="fill:#004900;" d="M158.301,370.925c0.001,0-0.555-3.139-1.308-7.83c-0.388-2.342-0.84-5.074-1.324-8.001
							c-0.229-1.464-0.514-2.969-0.771-4.501c-0.245-1.535-0.548-3.084-0.835-4.636c-0.545-3.109-1.201-6.192-1.794-9.089
							c-0.326-1.441-0.641-2.834-0.939-4.155c-0.346-1.308-0.652-2.552-0.931-3.704c-0.32-1.14-0.614-2.184-0.875-3.109
							c-0.243-0.936-0.524-1.726-0.735-2.386c-0.417-1.329-0.654-2.089-0.654-2.089s0.372,0.704,1.022,1.936
							c0.313,0.624,0.731,1.37,1.086,2.274c0.377,0.896,0.825,1.902,1.249,3.022c0.404,1.127,0.841,2.35,1.275,3.653
							c0.393,1.314,0.82,2.697,1.213,4.143c0.352,1.452,0.771,2.943,1.096,4.479c0.311,1.538,0.67,3.094,0.951,4.661
							c0.268,1.571,0.55,3.14,0.774,4.691c0.251,1.548,0.428,3.081,0.605,4.563c0.197,1.478,0.31,2.918,0.439,4.279
							c0.132,1.36,0.204,2.652,0.283,3.843C158.414,367.735,158.3,370.925,158.301,370.925z"/>
					</g>
				</g>
			</g>
			<g>
				<path style="fill:#F3AF00;" d="M147.25,309.258c0,0-0.396-5.252-3.37-4.658c-2.973,0.595-2.873,5.748-2.873,5.748
					s-3.865-3.567-6.342-1.388c-2.479,2.181,0.098,5.55,0.098,5.55s-5.45,0.991-4.954,5.152c0.495,4.162,4.46,4.162,4.46,4.162
					s-2.875,2.577-0.894,5.055c1.982,2.477,5.55-0.1,5.55-0.1s0.1,3.469,3.172,4.46c3.071,0.991,4.955-2.775,4.955-2.775
					s1.684,1.783,4.261,0.594c2.576-1.189,1.585-3.964,1.585-3.964s2.775,0.496,4.559-2.477c1.784-2.973-1.189-4.756-1.189-4.756
					s3.072-1.486,2.18-5.55c-0.892-4.064-4.757-1.585-4.757-1.585s2.577-4.955-1.089-6.244
					C148.935,305.194,147.25,309.258,147.25,309.258z"/>
				<path style="fill:#DE8C00;" d="M144.276,314.931c0,0-1.189-2.898-3.27-2.304c-2.082,0.594-1.264,4.905-1.264,4.905
					s-3.791,0.297-3.568,3.121c0.224,2.825,3.791,1.933,3.791,1.933s-1.56,2.155,0.521,3.643c2.081,1.486,4.46-1.189,4.46-1.189
					s0.668,2.452,3.418,1.932c2.75-0.52,1.338-4.013,1.338-4.013s2.899,0.966,3.642-2.081c0.743-3.048-2.526-3.865-2.526-3.865
					s1.561-2.602-0.817-4.607C147.621,310.397,144.276,314.931,144.276,314.931z"/>
			</g>
		</g>
		<g>
			<g>
				<g>
					<path style="fill:#004900;" d="M361.333,327.591c0,0-11.5,22.334-0.833,42.834c0,0,14-13,13.834-39.167
						C374.167,305.091,363.333,323.424,361.333,327.591z"/>
					<g>
						<path style="fill:#42A732;" d="M360.5,370.425c0,0-0.113-3.189,0.172-7.956c0.079-1.19,0.151-2.482,0.283-3.843
							c0.129-1.361,0.242-2.801,0.439-4.279c0.178-1.482,0.354-3.015,0.605-4.563c0.224-1.551,0.506-3.119,0.774-4.691
							c0.281-1.567,0.64-3.123,0.951-4.661c0.326-1.535,0.744-3.026,1.096-4.479c0.394-1.445,0.821-2.829,1.213-4.143
							c0.434-1.304,0.872-2.526,1.275-3.653c0.425-1.12,0.872-2.127,1.25-3.022c0.355-0.904,0.773-1.65,1.086-2.274
							c0.65-1.232,1.022-1.936,1.022-1.936s-0.238,0.76-0.654,2.089c-0.211,0.66-0.492,1.45-0.735,2.386
							c-0.26,0.926-0.554,1.97-0.874,3.109c-0.279,1.152-0.585,2.396-0.931,3.704c-0.299,1.321-0.614,2.714-0.939,4.155
							c-0.593,2.896-1.249,5.98-1.794,9.089c-0.287,1.552-0.59,3.101-0.835,4.636c-0.257,1.532-0.543,3.037-0.771,4.501
							c-0.484,2.927-0.936,5.659-1.324,8.001C361.055,367.286,360.499,370.425,360.5,370.425z"/>
					</g>
				</g>
				<g>
					<path style="fill:#42A700;" d="M386.967,327.591c0,0,11.501,22.334,0.834,42.834c0,0-14-13-13.834-39.167
						C374.134,305.091,384.967,323.424,386.967,327.591z"/>
					<g>
						<path style="fill:#004900;" d="M387.801,370.425c0,0-0.555-3.139-1.309-7.83c-0.388-2.342-0.84-5.074-1.324-8.001
							c-0.228-1.464-0.513-2.969-0.771-4.501c-0.245-1.535-0.548-3.084-0.835-4.636c-0.545-3.109-1.2-6.192-1.794-9.089
							c-0.326-1.441-0.641-2.834-0.939-4.155c-0.346-1.308-0.652-2.552-0.931-3.704c-0.32-1.14-0.614-2.184-0.875-3.109
							c-0.243-0.936-0.524-1.726-0.735-2.386c-0.416-1.329-0.654-2.089-0.654-2.089s0.372,0.704,1.022,1.936
							c0.313,0.624,0.73,1.37,1.086,2.274c0.377,0.896,0.824,1.902,1.249,3.022c0.404,1.127,0.842,2.35,1.276,3.653
							c0.392,1.314,0.819,2.697,1.213,4.143c0.352,1.452,0.771,2.943,1.097,4.479c0.311,1.538,0.67,3.094,0.951,4.661
							c0.267,1.571,0.55,3.14,0.773,4.691c0.252,1.548,0.428,3.081,0.605,4.563c0.197,1.478,0.31,2.918,0.439,4.279
							c0.133,1.36,0.204,2.652,0.283,3.843C387.913,367.235,387.801,370.425,387.801,370.425z"/>
					</g>
				</g>
			</g>
			<g>
				<path style="fill:#F3AF00;" d="M369.892,308.089c0,0-1.486-3.196-4.607-1.114c-3.122,2.08,0.371,5.127,0.371,5.127
					s-4.013-1.337-5.128,1.859c-1.115,3.195,2.23,3.716,2.23,3.716s-4.236,2.675-2.824,6.392c1.412,3.716,4.46,2.081,4.46,2.081
					s-2.156,3.642,0.297,5.871c2.453,2.229,6.095-0.966,6.095-0.966s0.966,2.676,4.013,2.973c3.048,0.297,4.014-3.791,4.014-3.791
					s1.561,1.562,4.088,0.744c2.526-0.818,1.19-5.797,1.19-5.797s3.271,0.966,4.162-1.71c0.892-2.676-2.305-4.46-2.305-4.46
					s2.75-1.932,1.487-5.723c-1.264-3.79-5.203-1.635-5.203-1.635s3.567-4.533,0.149-6.243c-3.42-1.709-5.946,2.527-5.946,2.527
					s0.223-5.575-3.345-5.426C369.52,302.663,369.892,308.089,369.892,308.089z"/>
				<path style="fill:#DE8C00;" d="M371.081,314.332c0,0-2.452-3.271-4.459-0.595c-2.007,2.676-0.074,5.128-0.074,5.128
					s-2.898,1.041-2.082,4.088c0.818,3.047,3.865,1.561,3.865,1.561s-1.264,2.156,0.743,3.271c2.007,1.115,4.608-1.561,4.608-1.561
					s1.189,2.526,4.013,1.412c2.825-1.115,1.264-4.162,1.264-4.162s3.196,0.743,3.791-2.452c0.595-3.196-2.75-4.014-2.75-4.014
					s1.486-0.893,0.224-3.717c-1.265-2.824-3.791,0-3.791,0s-0.967-4.31-3.122-3.79
					C371.155,310.022,371.081,314.332,371.081,314.332z"/>
			</g>
		</g>
		<g>
			<g>
				<g>
					<path style="fill:#004900;" d="M590.834,327.591c0,0-11.501,22.334-0.834,42.834c0,0,14-13,13.834-39.167
						C603.667,305.091,592.834,323.424,590.834,327.591z"/>
					<g>
						<path style="fill:#42A732;" d="M590,370.425c0,0-0.112-3.189,0.172-7.956c0.079-1.19,0.15-2.482,0.283-3.843
							c0.129-1.361,0.241-2.801,0.438-4.279c0.178-1.482,0.354-3.015,0.605-4.563c0.224-1.551,0.507-3.119,0.773-4.691
							c0.281-1.567,0.641-3.123,0.951-4.661c0.326-1.535,0.745-3.026,1.097-4.479c0.394-1.445,0.821-2.829,1.213-4.143
							c0.435-1.304,0.872-2.526,1.276-3.653c0.425-1.12,0.872-2.127,1.249-3.022c0.355-0.904,0.773-1.65,1.086-2.274
							c0.65-1.232,1.023-1.936,1.023-1.936s-0.238,0.76-0.654,2.089c-0.211,0.66-0.492,1.45-0.735,2.386
							c-0.261,0.926-0.555,1.97-0.875,3.109c-0.279,1.152-0.585,2.396-0.931,3.704c-0.299,1.321-0.614,2.714-0.94,4.155
							c-0.594,2.896-1.249,5.98-1.794,9.089c-0.287,1.552-0.59,3.101-0.835,4.636c-0.258,1.532-0.543,3.037-0.77,4.501
							c-0.484,2.927-0.938,5.659-1.324,8.001C590.555,367.286,590,370.425,590,370.425z"/>
					</g>
				</g>
				<g>
					<path style="fill:#42A700;" d="M616.467,327.591c0,0,11.501,22.334,0.834,42.834c0,0-14-13-13.834-39.167
						C603.634,305.091,614.467,323.424,616.467,327.591z"/>
					<g>
						<path style="fill:#004900;" d="M617.301,370.425c0,0-0.555-3.139-1.309-7.83c-0.387-2.342-0.84-5.074-1.324-8.001
							c-0.228-1.464-0.513-2.969-0.771-4.501c-0.245-1.535-0.548-3.084-0.835-4.636c-0.545-3.109-1.2-6.192-1.794-9.089
							c-0.325-1.441-0.641-2.834-0.939-4.155c-0.346-1.308-0.651-2.552-0.931-3.704c-0.32-1.14-0.614-2.184-0.875-3.109
							c-0.243-0.936-0.524-1.726-0.735-2.386c-0.416-1.329-0.654-2.089-0.654-2.089s0.372,0.704,1.023,1.936
							c0.313,0.624,0.73,1.37,1.086,2.274c0.377,0.896,0.824,1.902,1.249,3.022c0.404,1.127,0.842,2.35,1.276,3.653
							c0.392,1.314,0.819,2.697,1.213,4.143c0.352,1.452,0.771,2.943,1.097,4.479c0.311,1.538,0.67,3.094,0.951,4.661
							c0.267,1.571,0.55,3.14,0.773,4.691c0.252,1.548,0.428,3.081,0.605,4.563c0.197,1.478,0.31,2.918,0.439,4.279
							c0.133,1.36,0.204,2.652,0.283,3.843C617.413,367.235,617.301,370.425,617.301,370.425z"/>
					</g>
				</g>
			</g>
			<g>
				<path style="fill:#F3AF00;" d="M598.709,306.127c0,0-3.344-3.791-5.573-0.669c-2.23,3.122,0,4.608,0,4.608
					s-4.163,0.074-4.608,3.865c-0.446,3.789,1.784,4.682,1.784,4.682s-2.454,2.23-0.893,5.648c1.562,3.419,3.643,1.486,3.643,1.486
					s-0.818,3.94,1.189,4.981c2.007,1.04,5.797-2.008,5.797-2.008s0.298,3.643,3.939,3.42c3.642-0.224,4.534-3.939,4.534-3.939
					s1.561,2.155,4.013,0.817c2.453-1.338,0.67-4.608,0.67-4.608s4.385,0.223,5.202-4.162c0.817-4.385-3.345-5.5-3.345-5.5
					s4.014-2.452,2.155-5.426c-1.857-2.973-4.756-0.966-4.756-0.966s1.485-4.161-1.19-5.128c-2.676-0.967-5.203,1.709-5.203,1.709
					s-0.817-4.607-4.386-3.716C598.115,302.113,598.709,306.127,598.709,306.127z"/>
				<path style="fill:#DE8C00;" d="M605.547,310.289c0,0-1.486-4.459-4.607-3.27c-3.122,1.189-1.784,5.202-1.784,5.202
					s-3.567-1.487-4.757,1.71c-1.189,3.195,1.264,4.236,1.264,4.236s-2.973,2.229-1.784,4.756c1.19,2.527,5.055,1.709,5.055,1.709
					s0.223,2.156,2.378,2.676c2.155,0.522,4.46-2.602,4.46-2.602s1.709,1.784,3.94,0c2.229-1.783,0.743-3.716,0.743-3.716
					s3.121,0.075,2.75-3.79c-0.372-3.865-3.717-3.791-3.717-3.791s1.71-2.229,0.595-3.642
					C608.966,308.356,605.547,310.289,605.547,310.289z"/>
			</g>
		</g>
		<g>
			<g>
				<g>
					<path style="fill:#42A700;" d="M95.983,395.131c0,0-6.767,2.406-11.13,8.201c-4.363,5.795-0.33,11.146,5.264,5.22
						C95.711,402.627,95.983,395.131,95.983,395.131z"/>
					<path style="fill:#42A700;" d="M96.358,414.006c0,0-6.767,2.406-11.13,8.201c-4.363,5.795-0.33,11.146,5.264,5.22
						C96.086,421.502,96.358,414.006,96.358,414.006z"/>
					<path style="fill:#42A700;" d="M95.983,432.006c0,0-6.767,2.406-11.13,8.201c-4.363,5.795-0.33,11.146,5.264,5.22
						C95.711,439.502,95.983,432.006,95.983,432.006z"/>
					<path style="fill:#42A700;" d="M96.133,395.381c0,0,6.767,2.406,11.13,8.201c4.363,5.795,0.33,11.146-5.264,5.22
						C96.405,402.877,96.133,395.381,96.133,395.381z"/>
					<path style="fill:#42A700;" d="M96.258,414.006c0,0,6.767,2.406,11.13,8.201c4.363,5.795,0.33,11.146-5.264,5.22
						C96.53,421.502,96.258,414.006,96.258,414.006z"/>
					<path style="fill:#42A700;" d="M96.508,432.131c0,0,6.767,2.406,11.13,8.201c4.363,5.795,0.33,11.146-5.264,5.22
						C96.78,439.627,96.508,432.131,96.508,432.131z"/>
					<path style="fill:#42A700;" d="M96.125,449.008c0,0-3.75,6.125-3.5,13.375s6.75,8.875,7.375,0.75
						S96.125,449.008,96.125,449.008z"/>
				</g>
				<g>
					<path style="fill:#004900;" d="M96,465.383c0,0-0.141-2.02-0.389-5.554c-0.107-1.767-0.237-3.913-0.386-6.374
						c-0.069-1.23-0.144-2.54-0.221-3.921c-0.076-1.381,0.022-2.832-0.004-4.347c0-12.117,0-28.273,0-44.43
						c0-16.156,0-32.313,0-44.43c0.031-1.515-0.077-2.966,0.018-4.347c0.082-1.381,0.159-2.69,0.232-3.921
						c0.146-2.461,0.272-4.607,0.377-6.374c0.216-3.534,0.373-5.554,0.373-5.554s0.157,2.02,0.373,5.554
						c0.104,1.767,0.231,3.913,0.377,6.374c0.073,1.23,0.15,2.54,0.232,3.921c0.095,1.381-0.013,2.832,0.018,4.347
						c0,12.117,0,28.273,0,44.43c0,16.156,0,32.313,0,44.43c-0.026,1.515,0.071,2.966-0.004,4.347
						c-0.078,1.381-0.152,2.69-0.221,3.921c-0.149,2.461-0.279,4.607-0.386,6.374C96.141,463.363,96,465.383,96,465.383z"/>
				</g>
				<g>
					<g>
						<path style="fill:#004900;" d="M95.5,397.008c0,0-0.417,0.692-1.139,1.641c-0.716,0.953-1.733,2.166-2.809,3.325
							c-1.08,1.154-2.218,2.254-3.12,3.034c-0.896,0.786-1.558,1.25-1.558,1.25s0.416-0.692,1.138-1.641
							c0.715-0.954,1.733-2.167,2.81-3.325c1.08-1.153,2.22-2.253,3.121-3.034C94.839,397.472,95.5,397.008,95.5,397.008z"/>
					</g>
					<g>
						<path style="fill:#004900;" d="M95.5,397.008c0,0,0.204,0.13,0.544,0.375c0.334,0.252,0.83,0.592,1.389,1.037
							c1.129,0.88,2.577,2.116,3.97,3.41c1.389,1.299,2.723,2.656,3.679,3.722c0.483,0.527,0.856,0.999,1.131,1.314
							c0.268,0.322,0.412,0.517,0.412,0.517s-0.204-0.13-0.544-0.375c-0.333-0.252-0.83-0.591-1.39-1.036
							c-1.13-0.88-2.577-2.116-3.969-3.411c-1.388-1.3-2.722-2.657-3.678-3.723c-0.483-0.527-0.857-0.998-1.131-1.313
							C95.644,397.202,95.5,397.008,95.5,397.008z"/>
					</g>
					<g>
						<path style="fill:#004900;" d="M95.5,416.383c0,0-0.419,0.678-1.141,1.603c-0.717,0.932-1.735,2.114-2.811,3.242
							c-1.081,1.123-2.218,2.191-3.119,2.946c-0.894,0.762-1.555,1.208-1.555,1.208s0.418-0.679,1.141-1.605
							c0.716-0.933,1.735-2.114,2.811-3.241c1.081-1.122,2.219-2.189,3.119-2.945C94.84,416.83,95.5,416.383,95.5,416.383z"/>
					</g>
					<g>
						<path style="fill:#004900;" d="M95.5,416.008c0,0,0.771,0.495,1.836,1.335c1.071,0.833,2.441,2.007,3.756,3.238
							c1.31,1.237,2.566,2.531,3.464,3.55c0.903,1.013,1.444,1.752,1.444,1.752s-0.771-0.495-1.837-1.334
							c-1.071-0.833-2.44-2.008-3.755-3.239c-1.31-1.237-2.565-2.532-3.463-3.551C96.041,416.747,95.5,416.008,95.5,416.008z"/>
					</g>
					<g>
						<path style="fill:#004900;" d="M96.125,433.508c0,0-0.465,0.732-1.258,1.739c-0.787,1.014-1.898,2.306-3.067,3.542
							c-1.174,1.232-2.406,2.41-3.377,3.248c-0.965,0.845-1.673,1.346-1.673,1.346s0.464-0.733,1.257-1.74
							c0.787-1.014,1.898-2.305,3.068-3.541c1.174-1.232,2.407-2.409,3.378-3.247C95.418,434.01,96.125,433.508,96.125,433.508z"/>
					</g>
					<g>
						<path style="fill:#004900;" d="M96,433.133c0,0,0.198,0.149,0.528,0.429c0.322,0.285,0.803,0.674,1.342,1.174
							c1.089,0.992,2.478,2.373,3.81,3.809c1.326,1.439,2.593,2.933,3.496,4.097c0.457,0.577,0.805,1.089,1.064,1.432
							c0.252,0.351,0.385,0.561,0.385,0.561s-0.199-0.149-0.528-0.428c-0.322-0.286-0.804-0.673-1.343-1.174
							c-1.089-0.992-2.478-2.374-3.809-3.809c-1.325-1.44-2.592-2.934-3.495-4.098c-0.457-0.578-0.806-1.088-1.065-1.432
							C96.134,433.343,96,433.133,96,433.133z"/>
					</g>
				</g>
			</g>
			<g>
				<g>
					<path style="fill:#004900;" d="M78.666,421.925c0,0-9.166-13.166-3.333-56.333C81.166,322.425,93,321.925,94.5,321.925
						s9.667,4.334,3.834,42.667C92.5,402.925,78.666,421.925,78.666,421.925z"/>
					<g>
						<path style="fill:#42A732;" d="M78.666,420.925c0,0-0.027-1.512,0.004-4.156c0.051-2.644,0.083-6.423,0.278-10.952
							c0.177-4.53,0.469-9.813,0.9-15.465c0.226-2.824,0.448-5.745,0.749-8.707c0.298-2.962,0.613-5.97,0.966-8.975
							c0.367-3.002,0.769-6.001,1.199-8.949c0.412-2.951,0.921-5.84,1.412-8.636c0.492-2.796,1.052-5.485,1.607-8.028
							c0.295-1.268,0.582-2.503,0.859-3.696c0.311-1.186,0.61-2.331,0.898-3.431c0.316-1.093,0.62-2.14,0.908-3.135
							c0.324-0.985,0.632-1.92,0.92-2.798c0.621-1.741,1.161-3.258,1.696-4.473c0.486-1.233,0.967-2.161,1.286-2.794
							c0.316-0.634,0.485-0.972,0.485-0.972s-0.134,0.353-0.386,1.016c-0.262,0.658-0.617,1.631-1.021,2.886
							c-0.439,1.241-0.863,2.787-1.347,4.554c-0.463,1.774-0.928,3.79-1.426,5.989c-0.467,2.208-0.938,4.605-1.409,7.148
							c-0.454,2.546-0.893,5.237-1.334,8.024c-0.437,2.788-0.827,5.679-1.236,8.614c-0.406,2.937-0.78,5.926-1.127,8.918
							c-0.375,2.989-0.712,5.984-1.031,8.934c-0.313,2.951-0.62,5.855-0.918,8.666c-0.552,5.629-1.067,10.883-1.509,15.386
							C79.235,414.912,78.666,420.925,78.666,420.925z"/>
					</g>
				</g>
				<g>
					<path style="fill:#42A700;" d="M112.632,421.925c0,0,9.166-13.166,3.333-56.333s-17.666-43.667-19.166-43.667
						s-9.667,4.334-3.833,42.667C98.799,402.925,112.632,421.925,112.632,421.925z"/>
					<g>
						<path style="fill:#004900;" d="M112.632,420.925c0,0-0.569-6.013-1.423-15.031c-0.441-4.503-0.957-9.757-1.509-15.386
							c-0.298-2.811-0.605-5.715-0.918-8.666c-0.32-2.949-0.657-5.944-1.031-8.934c-0.347-2.992-0.721-5.981-1.127-8.918
							c-0.41-2.935-0.799-5.826-1.236-8.614c-0.441-2.787-0.88-5.479-1.334-8.024c-0.472-2.543-0.942-4.94-1.409-7.148
							c-0.497-2.199-0.963-4.215-1.426-5.989c-0.484-1.767-0.909-3.313-1.347-4.554c-0.404-1.255-0.759-2.228-1.021-2.886
							c-0.251-0.662-0.386-1.016-0.386-1.016s0.168,0.338,0.485,0.972c0.319,0.633,0.8,1.56,1.286,2.794
							c0.535,1.215,1.075,2.731,1.696,4.473c0.289,0.878,0.596,1.813,0.92,2.798c0.288,0.995,0.591,2.042,0.908,3.135
							c0.288,1.1,0.588,2.245,0.898,3.431c0.277,1.193,0.564,2.428,0.859,3.696c0.555,2.543,1.115,5.232,1.607,8.028
							c0.49,2.796,0.999,5.685,1.412,8.636c0.43,2.948,0.832,5.947,1.199,8.949c0.353,3.005,0.668,6.013,0.966,8.975
							c0.3,2.962,0.523,5.883,0.748,8.707c0.431,5.652,0.723,10.935,0.9,15.465c0.195,4.529,0.228,8.309,0.278,10.952
							C112.66,419.413,112.632,420.925,112.632,420.925z"/>
					</g>
				</g>
			</g>
			<g>
				<path style="fill:#FF5012;" d="M87.395,303.685c0,0-5.173-5.863-8.622-1.034c-3.449,4.828,0,7.127,0,7.127
					s-6.438,0.115-7.129,5.979C70.955,321.62,74.403,323,74.403,323s-3.794,3.449-1.379,8.737c2.415,5.288,5.633,2.3,5.633,2.3
					s-1.265,6.094,1.84,7.703c3.104,1.609,8.968-3.104,8.968-3.104s0.46,5.634,6.093,5.288c5.633-0.345,7.013-6.094,7.013-6.094
					s2.414,3.335,6.209,1.266c3.793-2.07,1.034-7.129,1.034-7.129s6.783,0.346,8.048-6.438c1.265-6.783-5.174-8.508-5.174-8.508
					s6.209-3.795,3.334-8.393c-2.874-4.6-7.357-1.495-7.357-1.495s2.299-6.439-1.84-7.933c-4.139-1.495-8.048,2.645-8.048,2.645
					s-1.265-7.129-6.783-5.749C86.476,297.477,87.395,303.685,87.395,303.685z"/>
				<path style="fill:#C93114;" d="M97.972,310.123c0,0-2.299-6.898-7.128-5.058c-4.829,1.84-2.759,8.048-2.759,8.048
					s-5.519-2.3-7.358,2.644c-1.84,4.944,1.954,6.554,1.954,6.554s-4.599,3.449-2.759,7.358c1.84,3.908,7.818,2.645,7.818,2.645
					s0.345,3.334,3.679,4.139c3.335,0.805,6.898-4.023,6.898-4.023s2.645,2.759,6.094,0c3.449-2.76,1.149-5.749,1.149-5.749
					s4.829,0.114,4.254-5.863c-0.575-5.978-5.749-5.864-5.749-5.864s2.645-3.449,0.92-5.633
					C103.261,307.134,97.972,310.123,97.972,310.123z"/>
				<path style="fill:#FF5012;" d="M91.419,317.826c0,0,0-4.6,2.185-4.484s3.449,3.795,3.449,3.795s2.644-1.381,4.599,1.264
					c1.955,2.645-1.609,3.334-1.609,3.334s2.874,5.289,0,7.014c-2.874,1.725-6.208-2.989-6.208-2.989s-5.059,5.518-6.439,2.759
					c-1.379-2.759,1.84-5.863,1.84-5.863s-5.059-1.839-3.795-4.599C86.706,315.297,91.419,317.826,91.419,317.826z"/>
			</g>
		</g>
		<g>
			<g>
				<g>
					<path style="fill:#42A700;" d="M312.983,394.131c0,0-6.767,2.406-11.13,8.201c-4.363,5.795-0.33,11.146,5.264,5.22
						C312.711,401.627,312.983,394.131,312.983,394.131z"/>
					<path style="fill:#42A700;" d="M313.358,413.006c0,0-6.767,2.406-11.13,8.201c-4.363,5.795-0.33,11.146,5.264,5.22
						C313.086,420.502,313.358,413.006,313.358,413.006z"/>
					<path style="fill:#42A700;" d="M312.983,431.006c0,0-6.767,2.406-11.13,8.201c-4.363,5.795-0.33,11.146,5.264,5.22
						C312.711,438.502,312.983,431.006,312.983,431.006z"/>
					<path style="fill:#42A700;" d="M313.133,394.381c0,0,6.767,2.406,11.13,8.201c4.363,5.795,0.33,11.146-5.264,5.22
						C313.405,401.877,313.133,394.381,313.133,394.381z"/>
					<path style="fill:#42A700;" d="M313.258,413.006c0,0,6.767,2.406,11.13,8.201c4.363,5.795,0.33,11.146-5.264,5.22
						C313.53,420.502,313.258,413.006,313.258,413.006z"/>
					<path style="fill:#42A700;" d="M313.508,431.131c0,0,6.767,2.406,11.13,8.201c4.363,5.795,0.33,11.146-5.264,5.22
						C313.78,438.627,313.508,431.131,313.508,431.131z"/>
					<path style="fill:#42A700;" d="M313.125,448.008c0,0-3.75,6.125-3.5,13.375s6.75,8.875,7.375,0.75
						S313.125,448.008,313.125,448.008z"/>
				</g>
				<g>
					<path style="fill:#004900;" d="M313,464.383c0,0-0.141-2.02-0.389-5.554c-0.107-1.767-0.237-3.913-0.386-6.374
						c-0.069-1.23-0.144-2.54-0.221-3.921c-0.076-1.381,0.022-2.832-0.004-4.347c0-12.117,0-28.273,0-44.43
						c0-16.156,0-32.313,0-44.43c0.031-1.515-0.077-2.966,0.018-4.347c0.081-1.381,0.159-2.69,0.232-3.921
						c0.145-2.461,0.272-4.607,0.377-6.374c0.216-3.534,0.373-5.554,0.373-5.554s0.157,2.02,0.373,5.554
						c0.104,1.767,0.232,3.913,0.377,6.374c0.073,1.23,0.15,2.54,0.232,3.921c0.095,1.381-0.013,2.832,0.018,4.347
						c0,12.117,0,28.273,0,44.43c0,16.156,0,32.313,0,44.43c-0.026,1.515,0.071,2.966-0.004,4.347
						c-0.078,1.381-0.152,2.69-0.221,3.921c-0.149,2.461-0.279,4.607-0.386,6.374C313.141,462.363,313,464.383,313,464.383z"/>
				</g>
				<g>
					<g>
						<path style="fill:#004900;" d="M312.5,396.008c0,0-0.417,0.692-1.139,1.641c-0.716,0.953-1.733,2.166-2.809,3.325
							c-1.08,1.154-2.219,2.254-3.12,3.034c-0.896,0.786-1.558,1.25-1.558,1.25s0.416-0.692,1.138-1.641
							c0.716-0.954,1.733-2.167,2.81-3.325c1.081-1.153,2.22-2.253,3.121-3.034C311.839,396.472,312.5,396.008,312.5,396.008z"/>
					</g>
					<g>
						<path style="fill:#004900;" d="M312.5,396.008c0,0,0.204,0.13,0.544,0.375c0.333,0.252,0.83,0.592,1.389,1.037
							c1.129,0.88,2.577,2.116,3.97,3.41c1.389,1.299,2.723,2.656,3.679,3.722c0.483,0.527,0.856,0.999,1.131,1.314
							c0.268,0.322,0.412,0.517,0.412,0.517s-0.204-0.13-0.544-0.375c-0.333-0.252-0.83-0.591-1.39-1.036
							c-1.13-0.88-2.577-2.116-3.969-3.411c-1.388-1.3-2.722-2.657-3.678-3.723c-0.483-0.527-0.856-0.998-1.131-1.313
							C312.644,396.202,312.5,396.008,312.5,396.008z"/>
					</g>
					<g>
						<path style="fill:#004900;" d="M312.5,415.383c0,0-0.419,0.678-1.141,1.603c-0.717,0.932-1.735,2.114-2.811,3.242
							c-1.08,1.123-2.218,2.191-3.119,2.946c-0.894,0.762-1.555,1.208-1.555,1.208s0.417-0.679,1.141-1.605
							c0.716-0.933,1.735-2.114,2.811-3.241c1.081-1.122,2.219-2.189,3.119-2.945C311.84,415.83,312.5,415.383,312.5,415.383z"/>
					</g>
					<g>
						<path style="fill:#004900;" d="M312.5,415.008c0,0,0.771,0.495,1.836,1.335c1.071,0.833,2.441,2.007,3.756,3.238
							c1.311,1.237,2.566,2.531,3.464,3.55c0.903,1.013,1.444,1.752,1.444,1.752s-0.772-0.495-1.837-1.334
							c-1.071-0.833-2.44-2.008-3.755-3.239c-1.31-1.237-2.565-2.532-3.463-3.551C313.042,415.747,312.5,415.008,312.5,415.008z"/>
					</g>
					<g>
						<path style="fill:#004900;" d="M313.125,432.508c0,0-0.465,0.732-1.258,1.739c-0.787,1.014-1.898,2.306-3.067,3.542
							c-1.174,1.232-2.406,2.41-3.377,3.248c-0.965,0.845-1.673,1.346-1.673,1.346s0.464-0.733,1.257-1.74
							c0.787-1.014,1.898-2.305,3.068-3.541c1.174-1.232,2.407-2.409,3.378-3.247C312.418,433.01,313.125,432.508,313.125,432.508z"
							/>
					</g>
					<g>
						<path style="fill:#004900;" d="M313,432.133c0,0,0.198,0.149,0.528,0.429c0.322,0.285,0.803,0.674,1.342,1.174
							c1.089,0.992,2.479,2.373,3.81,3.809c1.326,1.439,2.593,2.933,3.496,4.097c0.457,0.577,0.805,1.089,1.064,1.432
							c0.252,0.351,0.385,0.561,0.385,0.561s-0.199-0.149-0.528-0.428c-0.322-0.286-0.804-0.673-1.343-1.174
							c-1.089-0.992-2.478-2.374-3.809-3.809c-1.325-1.44-2.592-2.934-3.495-4.098c-0.457-0.578-0.806-1.088-1.065-1.432
							C313.134,432.343,313,432.133,313,432.133z"/>
					</g>
				</g>
			</g>
			<g>
				<g>
					<path style="fill:#004900;" d="M295.667,420.925c0,0-9.166-13.166-3.333-56.333S310,320.925,311.5,320.925
						s9.667,4.334,3.833,42.667S295.667,420.925,295.667,420.925z"/>
					<g>
						<path style="fill:#42A732;" d="M295.667,419.925c0,0-0.027-1.512,0.004-4.156c0.051-2.644,0.084-6.423,0.278-10.952
							c0.177-4.53,0.469-9.813,0.9-15.465c0.226-2.824,0.448-5.745,0.749-8.707c0.298-2.962,0.613-5.97,0.966-8.975
							c0.367-3.002,0.77-6.001,1.199-8.949c0.412-2.951,0.921-5.84,1.412-8.636c0.492-2.796,1.052-5.485,1.607-8.028
							c0.295-1.268,0.582-2.503,0.859-3.696c0.311-1.186,0.611-2.331,0.898-3.431c0.316-1.093,0.62-2.14,0.908-3.135
							c0.324-0.985,0.632-1.92,0.92-2.798c0.621-1.741,1.161-3.258,1.696-4.473c0.486-1.233,0.967-2.161,1.286-2.794
							c0.316-0.634,0.485-0.972,0.485-0.972s-0.134,0.353-0.386,1.016c-0.262,0.658-0.617,1.631-1.021,2.886
							c-0.439,1.241-0.863,2.787-1.347,4.554c-0.463,1.774-0.928,3.79-1.426,5.989c-0.467,2.208-0.938,4.605-1.409,7.148
							c-0.454,2.546-0.893,5.237-1.334,8.024c-0.437,2.788-0.827,5.679-1.236,8.614c-0.406,2.937-0.78,5.926-1.127,8.918
							c-0.375,2.989-0.711,5.984-1.031,8.934c-0.313,2.951-0.62,5.855-0.918,8.666c-0.552,5.629-1.067,10.883-1.509,15.386
							C296.235,413.912,295.667,419.925,295.667,419.925z"/>
					</g>
				</g>
				<g>
					<path style="fill:#42A700;" d="M329.632,420.925c0,0,9.166-13.166,3.333-56.333c-5.833-43.167-17.667-43.667-19.167-43.667
						s-9.667,4.334-3.833,42.667S329.632,420.925,329.632,420.925z"/>
					<g>
						<path style="fill:#004900;" d="M329.632,419.925c0,0-0.569-6.013-1.423-15.031c-0.441-4.503-0.957-9.757-1.509-15.386
							c-0.298-2.811-0.605-5.715-0.918-8.666c-0.32-2.949-0.657-5.944-1.031-8.934c-0.347-2.992-0.721-5.981-1.127-8.918
							c-0.41-2.935-0.799-5.826-1.236-8.614c-0.441-2.787-0.88-5.479-1.334-8.024c-0.472-2.543-0.942-4.94-1.409-7.148
							c-0.497-2.199-0.963-4.215-1.426-5.989c-0.484-1.767-0.909-3.313-1.347-4.554c-0.404-1.255-0.759-2.228-1.021-2.886
							c-0.252-0.662-0.386-1.016-0.386-1.016s0.168,0.338,0.485,0.972c0.319,0.633,0.8,1.56,1.286,2.794
							c0.535,1.215,1.075,2.731,1.696,4.473c0.289,0.878,0.596,1.813,0.92,2.798c0.288,0.995,0.591,2.042,0.908,3.135
							c0.288,1.1,0.588,2.245,0.898,3.431c0.277,1.193,0.564,2.428,0.859,3.696c0.555,2.543,1.115,5.232,1.607,8.028
							c0.49,2.796,0.999,5.685,1.412,8.636c0.43,2.948,0.832,5.947,1.199,8.949c0.353,3.005,0.668,6.013,0.966,8.975
							c0.3,2.962,0.523,5.883,0.749,8.707c0.431,5.652,0.723,10.935,0.9,15.465c0.195,4.529,0.228,8.309,0.278,10.952
							C329.66,418.413,329.632,419.925,329.632,419.925z"/>
					</g>
				</g>
			</g>
			<g>
				<path style="fill:#FF5012;" d="M315.324,300.137c0,0-0.613-8.125-5.212-7.205c-4.599,0.92-4.446,8.892-4.446,8.892
					s-5.978-5.518-9.81-2.146c-3.833,3.371,0.153,8.584,0.153,8.584s-8.432,1.533-7.665,7.971c0.767,6.439,6.898,6.439,6.898,6.439
					s-4.446,3.985-1.38,7.818c3.066,3.832,8.585-0.153,8.585-0.153s0.153,5.365,4.905,6.898c4.752,1.533,7.665-4.293,7.665-4.293
					s2.606,2.76,6.592,0.92c3.985-1.84,2.453-6.131,2.453-6.131s4.292,0.766,7.051-3.833c2.759-4.599-1.839-7.358-1.839-7.358
					s4.753-2.299,3.373-8.584c-1.379-6.285-7.358-2.453-7.358-2.453s3.985-7.664-1.686-9.657
					C317.93,293.852,315.324,300.137,315.324,300.137z"/>
				<path style="fill:#C93114;" d="M310.725,308.913c0,0-1.84-4.483-5.059-3.565c-3.219,0.92-1.954,7.589-1.954,7.589
					s-5.864,0.459-5.518,4.828c0.345,4.369,5.863,2.989,5.863,2.989s-2.414,3.334,0.805,5.634c3.219,2.299,6.898-1.84,6.898-1.84
					s1.035,3.794,5.288,2.989c4.254-0.805,2.069-6.208,2.069-6.208s4.484,1.494,5.634-3.22c1.149-4.714-3.909-5.979-3.909-5.979
					s2.415-4.024-1.265-7.128C315.898,301.9,310.725,308.913,310.725,308.913z"/>
				<path style="fill:#FF5012;" d="M312.679,314.661c0,0-1.379-4.254-3.334-2.759c-1.955,1.494-1.265,4.369-1.265,4.369
					s-2.529,3.103-0.69,4.598c0,0,1.955,1.725,4.139-1.379c0,0,0,2.989,2.644,2.529c2.645-0.46,1.035-4.599,1.035-4.599
					s3.335,0,2.3-3.449C316.474,310.522,312.679,314.661,312.679,314.661z"/>
			</g>
		</g>
		<g>
			<g>
				<g>
					<path style="fill:#42A700;" d="M437.983,394.131c0,0-6.767,2.406-11.13,8.201c-4.363,5.795-0.33,11.146,5.264,5.22
						C437.711,401.627,437.983,394.131,437.983,394.131z"/>
					<path style="fill:#42A700;" d="M438.358,413.006c0,0-6.767,2.406-11.13,8.201c-4.363,5.795-0.33,11.146,5.264,5.22
						C438.086,420.502,438.358,413.006,438.358,413.006z"/>
					<path style="fill:#42A700;" d="M437.983,431.006c0,0-6.767,2.406-11.13,8.201c-4.363,5.795-0.33,11.146,5.264,5.22
						C437.711,438.502,437.983,431.006,437.983,431.006z"/>
					<path style="fill:#42A700;" d="M438.133,394.381c0,0,6.768,2.406,11.131,8.201c4.363,5.795,0.33,11.146-5.264,5.22
						C438.405,401.877,438.133,394.381,438.133,394.381z"/>
					<path style="fill:#42A700;" d="M438.258,413.006c0,0,6.768,2.406,11.131,8.201c4.363,5.795,0.33,11.146-5.264,5.22
						C438.53,420.502,438.258,413.006,438.258,413.006z"/>
					<path style="fill:#42A700;" d="M438.508,431.131c0,0,6.768,2.406,11.131,8.201c4.363,5.795,0.33,11.146-5.264,5.22
						C438.78,438.627,438.508,431.131,438.508,431.131z"/>
					<path style="fill:#42A700;" d="M438.125,448.008c0,0-3.75,6.125-3.5,13.375s6.75,8.875,7.375,0.75
						S438.125,448.008,438.125,448.008z"/>
				</g>
				<g>
					<path style="fill:#004900;" d="M438,464.383c0,0-0.142-2.02-0.389-5.554c-0.106-1.767-0.236-3.913-0.386-6.374
						c-0.069-1.23-0.144-2.54-0.222-3.921c-0.075-1.381,0.023-2.832-0.004-4.347c0-12.117,0-28.273,0-44.43
						c0-16.156,0-32.313,0-44.43c0.03-1.515-0.077-2.966,0.019-4.347c0.081-1.381,0.159-2.69,0.231-3.921
						c0.145-2.461,0.272-4.607,0.377-6.374c0.217-3.534,0.373-5.554,0.373-5.554s0.156,2.02,0.373,5.554
						c0.104,1.767,0.232,3.913,0.377,6.374c0.072,1.23,0.15,2.54,0.231,3.921c0.096,1.381-0.012,2.832,0.019,4.347
						c0,12.117,0,28.273,0,44.43c0,16.156,0,32.313,0,44.43c-0.026,1.515,0.071,2.966-0.004,4.347
						c-0.078,1.381-0.152,2.69-0.222,3.921c-0.149,2.461-0.279,4.607-0.386,6.374C438.142,462.363,438,464.383,438,464.383z"/>
				</g>
				<g>
					<g>
						<path style="fill:#004900;" d="M437.5,396.008c0,0-0.417,0.692-1.139,1.641c-0.716,0.953-1.732,2.166-2.809,3.325
							c-1.08,1.154-2.219,2.254-3.12,3.034c-0.896,0.786-1.558,1.25-1.558,1.25s0.416-0.692,1.138-1.641
							c0.716-0.954,1.733-2.167,2.81-3.325c1.08-1.153,2.22-2.253,3.121-3.034C436.839,396.472,437.5,396.008,437.5,396.008z"/>
					</g>
					<g>
						<path style="fill:#004900;" d="M437.5,396.008c0,0,0.204,0.13,0.544,0.375c0.333,0.252,0.829,0.592,1.39,1.037
							c1.129,0.88,2.576,2.116,3.97,3.41c1.389,1.299,2.723,2.656,3.679,3.722c0.484,0.527,0.856,0.999,1.131,1.314
							c0.268,0.322,0.412,0.517,0.412,0.517s-0.204-0.13-0.544-0.375c-0.334-0.252-0.831-0.591-1.39-1.036
							c-1.13-0.88-2.577-2.116-3.97-3.411c-1.388-1.3-2.722-2.657-3.679-3.723c-0.483-0.527-0.855-0.998-1.131-1.313
							C437.644,396.202,437.5,396.008,437.5,396.008z"/>
					</g>
					<g>
						<path style="fill:#004900;" d="M437.5,415.383c0,0-0.418,0.678-1.142,1.603c-0.717,0.932-1.734,2.114-2.811,3.242
							c-1.08,1.123-2.218,2.191-3.118,2.946c-0.895,0.762-1.555,1.208-1.555,1.208s0.418-0.679,1.141-1.605
							c0.717-0.933,1.735-2.114,2.811-3.241c1.08-1.122,2.219-2.189,3.119-2.945C436.84,415.83,437.5,415.383,437.5,415.383z"/>
					</g>
					<g>
						<path style="fill:#004900;" d="M437.5,415.008c0,0,0.77,0.495,1.836,1.335c1.071,0.833,2.441,2.007,3.757,3.238
							c1.309,1.237,2.566,2.531,3.463,3.55c0.903,1.013,1.444,1.752,1.444,1.752s-0.772-0.495-1.837-1.334
							c-1.072-0.833-2.44-2.008-3.756-3.239c-1.31-1.237-2.564-2.532-3.462-3.551C438.042,415.747,437.5,415.008,437.5,415.008z"/>
					</g>
					<g>
						<path style="fill:#004900;" d="M438.125,432.508c0,0-0.465,0.732-1.258,1.739c-0.787,1.014-1.898,2.306-3.067,3.542
							c-1.174,1.232-2.405,2.41-3.377,3.248c-0.965,0.845-1.673,1.346-1.673,1.346s0.464-0.733,1.257-1.74
							c0.786-1.014,1.899-2.305,3.068-3.541c1.175-1.232,2.407-2.409,3.378-3.247C437.418,433.01,438.125,432.508,438.125,432.508z"
							/>
					</g>
					<g>
						<path style="fill:#004900;" d="M438,432.133c0,0,0.198,0.149,0.527,0.429c0.322,0.285,0.804,0.674,1.343,1.174
							c1.089,0.992,2.479,2.373,3.81,3.809c1.326,1.439,2.594,2.933,3.496,4.097c0.457,0.577,0.805,1.089,1.064,1.432
							c0.251,0.351,0.385,0.561,0.385,0.561s-0.198-0.149-0.528-0.428c-0.321-0.286-0.804-0.673-1.343-1.174
							c-1.09-0.992-2.478-2.374-3.809-3.809c-1.325-1.44-2.592-2.934-3.495-4.098c-0.457-0.578-0.806-1.088-1.065-1.432
							C438.134,432.343,438,432.133,438,432.133z"/>
					</g>
				</g>
			</g>
			<g>
				<g>
					<path style="fill:#004900;" d="M420.666,420.925c0,0-9.166-13.166-3.332-56.333c5.832-43.167,17.666-43.667,19.166-43.667
						s9.667,4.334,3.834,42.667C434.5,401.925,420.666,420.925,420.666,420.925z"/>
					<g>
						<path style="fill:#42A732;" d="M420.666,419.925c0,0-0.027-1.512,0.004-4.156c0.051-2.644,0.084-6.423,0.278-10.952
							c0.178-4.53,0.469-9.813,0.9-15.465c0.226-2.824,0.447-5.746,0.748-8.707c0.298-2.962,0.612-5.97,0.966-8.975
							c0.367-3.002,0.77-6.002,1.199-8.949c0.412-2.951,0.922-5.84,1.412-8.636c0.491-2.797,1.052-5.485,1.607-8.029
							c0.295-1.268,0.581-2.502,0.859-3.695c0.311-1.186,0.61-2.331,0.898-3.432c0.316-1.092,0.619-2.139,0.907-3.134
							c0.324-0.985,0.632-1.92,0.921-2.798c0.621-1.741,1.161-3.258,1.695-4.474c0.486-1.232,0.967-2.16,1.287-2.793
							c0.315-0.634,0.484-0.972,0.484-0.972s-0.134,0.353-0.386,1.016c-0.262,0.658-0.617,1.631-1.02,2.886
							c-0.439,1.241-0.863,2.787-1.348,4.554c-0.463,1.774-0.929,3.79-1.426,5.989c-0.468,2.208-0.939,4.605-1.41,7.148
							c-0.453,2.547-0.892,5.238-1.334,8.025c-0.437,2.788-0.826,5.679-1.236,8.614c-0.405,2.937-0.779,5.926-1.127,8.918
							c-0.375,2.989-0.712,5.984-1.031,8.934c-0.313,2.951-0.62,5.855-0.918,8.666c-0.552,5.629-1.067,10.883-1.509,15.386
							C421.235,413.912,420.666,419.925,420.666,419.925z"/>
					</g>
				</g>
				<g>
					<path style="fill:#42A700;" d="M454.633,420.925c0,0,9.166-13.166,3.332-56.333c-5.832-43.167-17.666-43.667-19.166-43.667
						s-9.667,4.334-3.834,42.667C440.799,401.925,454.633,420.925,454.633,420.925z"/>
					<g>
						<path style="fill:#004900;" d="M454.633,419.925c0,0-0.569-6.013-1.423-15.031c-0.441-4.503-0.957-9.757-1.509-15.386
							c-0.298-2.811-0.605-5.715-0.918-8.666c-0.319-2.949-0.656-5.944-1.031-8.934c-0.348-2.992-0.722-5.981-1.127-8.918
							c-0.41-2.935-0.8-5.826-1.236-8.614c-0.441-2.787-0.881-5.479-1.334-8.025c-0.472-2.542-0.942-4.94-1.41-7.148
							c-0.497-2.199-0.963-4.215-1.426-5.989c-0.484-1.767-0.908-3.313-1.348-4.554c-0.403-1.255-0.759-2.228-1.021-2.886
							c-0.252-0.662-0.386-1.016-0.386-1.016s0.169,0.338,0.484,0.972c0.32,0.633,0.801,1.56,1.287,2.793
							c0.534,1.216,1.074,2.732,1.695,4.474c0.289,0.878,0.597,1.813,0.921,2.798c0.288,0.995,0.591,2.042,0.907,3.134
							c0.288,1.101,0.588,2.246,0.898,3.432c0.278,1.193,0.564,2.428,0.859,3.695c0.556,2.544,1.116,5.232,1.607,8.029
							c0.49,2.796,1,5.685,1.412,8.636c0.43,2.947,0.832,5.947,1.199,8.949c0.353,3.005,0.668,6.013,0.966,8.975
							c0.301,2.961,0.522,5.883,0.748,8.707c0.432,5.652,0.723,10.935,0.9,15.465c0.194,4.529,0.228,8.309,0.278,10.952
							C454.66,418.413,454.633,419.925,454.633,419.925z"/>
					</g>
				</g>
			</g>
			<g>
				<path style="fill:#FF5012;" d="M429.643,299.782c0,0-2.299-4.944-7.128-1.725c-4.829,3.22,0.575,7.933,0.575,7.933
					s-6.209-2.068-7.934,2.875c-1.725,4.943,3.449,5.748,3.449,5.748s-6.553,4.139-4.369,9.888c2.186,5.749,6.898,3.22,6.898,3.22
					s-3.334,5.633,0.461,9.082c3.793,3.449,9.427-1.494,9.427-1.494s1.495,4.139,6.208,4.598c4.715,0.461,6.209-5.863,6.209-5.863
					s2.414,2.414,6.323,1.15c3.909-1.266,1.839-8.968,1.839-8.968s5.06,1.495,6.439-2.645c1.379-4.139-3.564-6.898-3.564-6.898
					s4.254-2.99,2.299-8.853c-1.954-5.863-8.047-2.529-8.047-2.529s5.518-7.014,0.23-9.657c-5.288-2.645-9.198,3.909-9.198,3.909
					s0.346-8.623-5.173-8.392C429.068,291.39,429.643,299.782,429.643,299.782z"/>
				<path style="fill:#C93114;" d="M431.482,309.44c0,0-3.794-5.059-6.898-0.92c-3.104,4.14-0.115,7.934-0.115,7.934
					s-4.483,1.609-3.219,6.323c1.265,4.714,5.978,2.414,5.978,2.414s-1.955,3.335,1.15,5.06c3.104,1.725,7.127-2.415,7.127-2.415
					s1.84,3.909,6.209,2.185c4.369-1.725,1.955-6.438,1.955-6.438s4.943,1.149,5.863-3.794c0.92-4.943-4.254-6.209-4.254-6.209
					s2.299-1.379,0.345-5.748c-1.954-4.369-5.864,0-5.864,0s-1.494-6.668-4.828-5.863
					C431.598,302.772,431.482,309.44,431.482,309.44z"/>
				<path style="fill:#FF5012;" d="M433.438,314.153c0,0-1.955-2.3-3.91-0.345c-1.953,1.955,0.806,3.449,0.806,3.449
					s-3.794,1.494-2.3,3.679c1.494,2.185,5.289,0,5.289,0s-0.69,3.449,2.76,3.565c3.448,0.114,2.529-3.794,2.529-3.794
					s3.448,0.345,3.219-2.989c-0.23-3.335-2.414-1.954-2.414-1.954s1.148-3.104-1.725-4.715
					C434.816,309.44,433.438,314.153,433.438,314.153z"/>
			</g>
		</g>
		<g>
			<g>
				<g>
					<path style="fill:#42A700;" d="M653.983,394.631c0,0-6.767,2.406-11.13,8.201c-4.363,5.795-0.33,11.146,5.264,5.22
						C653.711,402.127,653.983,394.631,653.983,394.631z"/>
					<path style="fill:#42A700;" d="M654.358,413.506c0,0-6.767,2.406-11.13,8.201c-4.363,5.795-0.33,11.146,5.264,5.22
						C654.086,421.002,654.358,413.506,654.358,413.506z"/>
					<path style="fill:#42A700;" d="M653.983,431.506c0,0-6.767,2.406-11.13,8.201c-4.363,5.795-0.33,11.146,5.264,5.22
						C653.711,439.002,653.983,431.506,653.983,431.506z"/>
					<path style="fill:#42A700;" d="M654.133,394.881c0,0,6.768,2.406,11.131,8.201c4.363,5.795,0.33,11.146-5.264,5.22
						C654.405,402.377,654.133,394.881,654.133,394.881z"/>
					<path style="fill:#42A700;" d="M654.258,413.506c0,0,6.768,2.406,11.131,8.201c4.363,5.795,0.33,11.146-5.264,5.22
						C654.53,421.002,654.258,413.506,654.258,413.506z"/>
					<path style="fill:#42A700;" d="M654.508,431.631c0,0,6.768,2.406,11.131,8.201c4.363,5.795,0.33,11.146-5.264,5.22
						C654.78,439.127,654.508,431.631,654.508,431.631z"/>
					<path style="fill:#42A700;" d="M654.125,448.508c0,0-3.75,6.125-3.5,13.375s6.75,8.875,7.375,0.75
						S654.125,448.508,654.125,448.508z"/>
				</g>
				<g>
					<path style="fill:#004900;" d="M654,464.883c0,0-0.142-2.02-0.389-5.554c-0.106-1.767-0.236-3.913-0.386-6.374
						c-0.069-1.23-0.144-2.54-0.222-3.921c-0.075-1.381,0.022-2.832-0.004-4.347c0-12.117,0-28.273,0-44.43
						c0-16.156,0-32.313,0-44.43c0.03-1.515-0.077-2.966,0.019-4.347c0.081-1.381,0.159-2.69,0.231-3.921
						c0.146-2.461,0.272-4.607,0.377-6.374c0.217-3.534,0.373-5.554,0.373-5.554s0.156,2.02,0.373,5.554
						c0.104,1.767,0.232,3.913,0.377,6.374c0.072,1.23,0.15,2.54,0.231,3.921c0.096,1.381-0.012,2.832,0.019,4.347
						c0,12.117,0,28.273,0,44.43c0,16.156,0,32.313,0,44.43c-0.026,1.515,0.071,2.966-0.004,4.347
						c-0.078,1.381-0.152,2.69-0.222,3.921c-0.149,2.461-0.279,4.607-0.386,6.374C654.142,462.863,654,464.883,654,464.883z"/>
				</g>
				<g>
					<g>
						<path style="fill:#004900;" d="M653.5,396.508c0,0-0.417,0.692-1.139,1.641c-0.716,0.953-1.732,2.166-2.809,3.325
							c-1.08,1.154-2.219,2.254-3.12,3.034c-0.895,0.786-1.558,1.25-1.558,1.25s0.416-0.692,1.138-1.641
							c0.716-0.954,1.733-2.167,2.81-3.325c1.08-1.153,2.22-2.253,3.121-3.034C652.839,396.972,653.5,396.508,653.5,396.508z"/>
					</g>
					<g>
						<path style="fill:#004900;" d="M653.5,396.508c0,0,0.204,0.13,0.544,0.375c0.333,0.252,0.829,0.592,1.39,1.037
							c1.129,0.88,2.576,2.116,3.97,3.41c1.389,1.299,2.723,2.656,3.679,3.722c0.484,0.527,0.857,0.999,1.131,1.314
							c0.268,0.322,0.412,0.517,0.412,0.517s-0.204-0.13-0.544-0.375c-0.334-0.252-0.831-0.591-1.39-1.036
							c-1.13-0.88-2.577-2.116-3.97-3.411c-1.388-1.3-2.722-2.657-3.679-3.723c-0.483-0.527-0.856-0.998-1.131-1.313
							C653.644,396.702,653.5,396.508,653.5,396.508z"/>
					</g>
					<g>
						<path style="fill:#004900;" d="M653.5,415.883c0,0-0.418,0.678-1.142,1.603c-0.717,0.932-1.734,2.114-2.81,3.242
							c-1.08,1.123-2.218,2.191-3.118,2.946c-0.895,0.762-1.555,1.208-1.555,1.208s0.418-0.679,1.141-1.605
							c0.717-0.933,1.735-2.114,2.812-3.241c1.08-1.122,2.219-2.189,3.119-2.945C652.84,416.33,653.5,415.883,653.5,415.883z"/>
					</g>
					<g>
						<path style="fill:#004900;" d="M653.5,415.508c0,0,0.771,0.495,1.836,1.335c1.071,0.833,2.441,2.007,3.757,3.238
							c1.31,1.237,2.566,2.531,3.463,3.55c0.903,1.013,1.444,1.752,1.444,1.752s-0.772-0.495-1.837-1.334
							c-1.072-0.833-2.44-2.008-3.756-3.239c-1.31-1.237-2.564-2.532-3.462-3.551C654.042,416.247,653.5,415.508,653.5,415.508z"/>
					</g>
					<g>
						<path style="fill:#004900;" d="M654.125,433.008c0,0-0.465,0.732-1.258,1.739c-0.787,1.014-1.898,2.306-3.067,3.542
							c-1.174,1.232-2.405,2.41-3.377,3.248c-0.965,0.845-1.673,1.346-1.673,1.346s0.464-0.733,1.257-1.74
							c0.786-1.014,1.898-2.305,3.068-3.541c1.175-1.232,2.407-2.409,3.378-3.247C653.418,433.51,654.125,433.008,654.125,433.008z"
							/>
					</g>
					<g>
						<path style="fill:#004900;" d="M654,432.633c0,0,0.198,0.149,0.527,0.429c0.322,0.285,0.804,0.674,1.343,1.174
							c1.089,0.992,2.479,2.373,3.81,3.809c1.326,1.439,2.594,2.933,3.496,4.097c0.457,0.577,0.805,1.089,1.064,1.432
							c0.251,0.351,0.385,0.561,0.385,0.561s-0.198-0.149-0.528-0.428c-0.321-0.286-0.804-0.673-1.343-1.174
							c-1.09-0.992-2.479-2.374-3.809-3.809c-1.325-1.44-2.592-2.934-3.495-4.098c-0.457-0.578-0.806-1.088-1.065-1.432
							C654.134,432.843,654,432.633,654,432.633z"/>
					</g>
				</g>
			</g>
			<g>
				<g>
					<path style="fill:#004900;" d="M636.666,421.425c0,0-9.166-13.166-3.332-56.333c5.832-43.167,17.666-43.667,19.166-43.667
						s9.667,4.334,3.834,42.667C650.5,402.425,636.666,421.425,636.666,421.425z"/>
					<g>
						<path style="fill:#42A732;" d="M636.666,420.425c0,0-0.027-1.512,0.004-4.156c0.051-2.644,0.084-6.423,0.278-10.952
							c0.178-4.53,0.469-9.813,0.899-15.465c0.227-2.824,0.448-5.746,0.749-8.707c0.298-2.962,0.612-5.97,0.966-8.975
							c0.367-3.002,0.769-6.002,1.199-8.949c0.412-2.951,0.922-5.84,1.412-8.636c0.491-2.797,1.052-5.485,1.608-8.029
							c0.295-1.268,0.581-2.502,0.859-3.695c0.311-1.186,0.61-2.331,0.898-3.432c0.316-1.092,0.619-2.139,0.907-3.134
							c0.324-0.985,0.632-1.92,0.921-2.798c0.621-1.741,1.161-3.258,1.695-4.474c0.486-1.232,0.967-2.16,1.287-2.793
							c0.315-0.634,0.484-0.972,0.484-0.972s-0.134,0.353-0.386,1.016c-0.262,0.658-0.617,1.631-1.021,2.886
							c-0.439,1.241-0.863,2.787-1.348,4.554c-0.463,1.774-0.929,3.79-1.426,5.989c-0.468,2.208-0.939,4.605-1.41,7.148
							c-0.453,2.547-0.893,5.238-1.334,8.025c-0.437,2.788-0.826,5.679-1.236,8.614c-0.405,2.937-0.779,5.926-1.127,8.918
							c-0.375,2.989-0.711,5.984-1.031,8.934c-0.313,2.951-0.62,5.855-0.918,8.666c-0.552,5.629-1.067,10.883-1.509,15.386
							C637.235,414.412,636.666,420.425,636.666,420.425z"/>
					</g>
				</g>
				<g>
					<path style="fill:#42A700;" d="M670.633,421.425c0,0,9.166-13.166,3.332-56.333c-5.832-43.167-17.666-43.667-19.166-43.667
						s-9.667,4.334-3.834,42.667C656.799,402.425,670.633,421.425,670.633,421.425z"/>
					<g>
						<path style="fill:#004900;" d="M670.633,420.425c0,0-0.569-6.013-1.423-15.031c-0.441-4.503-0.957-9.757-1.509-15.386
							c-0.298-2.811-0.605-5.715-0.918-8.666c-0.32-2.949-0.656-5.944-1.031-8.934c-0.348-2.992-0.722-5.981-1.127-8.918
							c-0.41-2.935-0.8-5.826-1.236-8.614c-0.441-2.787-0.881-5.479-1.334-8.025c-0.472-2.542-0.942-4.94-1.41-7.148
							c-0.497-2.199-0.963-4.215-1.426-5.989c-0.484-1.767-0.908-3.313-1.348-4.554c-0.403-1.255-0.759-2.228-1.021-2.886
							c-0.252-0.662-0.386-1.016-0.386-1.016s0.169,0.338,0.484,0.972c0.32,0.633,0.801,1.56,1.287,2.793
							c0.534,1.216,1.074,2.732,1.695,4.474c0.289,0.878,0.597,1.813,0.921,2.798c0.288,0.995,0.591,2.042,0.907,3.134
							c0.288,1.101,0.588,2.246,0.898,3.432c0.278,1.193,0.564,2.428,0.859,3.695c0.556,2.544,1.116,5.232,1.607,8.029
							c0.49,2.796,1,5.685,1.412,8.636c0.43,2.947,0.832,5.947,1.199,8.949c0.354,3.005,0.668,6.013,0.966,8.975
							c0.301,2.961,0.523,5.883,0.749,8.707c0.431,5.652,0.722,10.935,0.899,15.465c0.194,4.529,0.227,8.309,0.278,10.952
							C670.66,418.913,670.633,420.425,670.633,420.425z"/>
					</g>
				</g>
			</g>
			<g>
				<path style="fill:#FF5012;" d="M646.541,298.957c0,0-5.173-5.863-8.622-1.035c-3.449,4.828,0,7.128,0,7.128
					s-6.438,0.115-7.128,5.978c-0.689,5.864,2.759,7.243,2.759,7.243s-3.794,3.449-1.38,8.738c2.415,5.288,5.634,2.299,5.634,2.299
					s-1.265,6.094,1.84,7.703c3.104,1.609,8.968-3.104,8.968-3.104s0.459,5.633,6.094,5.288c5.633-0.345,7.013-6.094,7.013-6.094
					s2.414,3.335,6.209,1.265c3.793-2.069,1.034-7.128,1.034-7.128s6.783,0.345,8.048-6.439c1.265-6.783-5.174-8.508-5.174-8.508
					s6.209-3.794,3.334-8.393c-2.874-4.6-7.357-1.494-7.357-1.494s2.299-6.439-1.84-7.934c-4.139-1.494-8.048,2.645-8.048,2.645
					s-1.265-7.129-6.783-5.748C645.622,292.748,646.541,298.957,646.541,298.957z"/>
				<path style="fill:#C93114;" d="M657.118,305.395c0,0-2.299-6.898-7.128-5.059c-4.828,1.84-2.759,8.049-2.759,8.049
					s-5.518-2.3-7.358,2.643c-1.84,4.944,1.955,6.554,1.955,6.554s-4.6,3.449-2.76,7.358c1.84,3.909,7.818,2.645,7.818,2.645
					s0.345,3.334,3.679,4.139c3.335,0.805,6.898-4.023,6.898-4.023s2.645,2.76,6.094,0c3.449-2.76,1.149-5.748,1.149-5.748
					s4.829,0.114,4.254-5.863c-0.575-5.978-5.749-5.864-5.749-5.864s2.645-3.449,0.92-5.634
					C662.407,302.406,657.118,305.395,657.118,305.395z"/>
				<path style="fill:#FF5012;" d="M650.565,313.098c0,0,0-4.599,2.185-4.483c2.185,0.114,3.449,3.794,3.449,3.794
					s2.644-1.38,4.599,1.265c1.955,2.643-1.609,3.334-1.609,3.334s2.874,5.288,0,7.013s-6.208-2.988-6.208-2.988
					s-5.059,5.518-6.439,2.759c-1.379-2.759,1.84-5.863,1.84-5.863s-5.059-1.839-3.794-4.599
					C645.852,310.568,650.565,313.098,650.565,313.098z"/>
			</g>
		</g>
	</g>
</g>
</svg>
