<?xml version="1.0" encoding="utf-8"?>
<!-- Generator: Adobe Illustrator 27.5.0, SVG Export Plug-In . SVG Version: 6.00 Build 0)  -->
<svg version="1.1" xmlns="http://www.w3.org/2000/svg" xmlns:xlink="http://www.w3.org/1999/xlink" x="0px" y="0px"
	 viewBox="0 0 750 300" xml:space="preserve">

<g id="OBJECTS">
	<g>
		<g>
			<g>
				<path style="fill:#DE8C00;" d="M60.234,50.222c33.403,8.776,67.561,15.162,101.602,20.837
					c73.297,12.218,147.564,19.057,221.909,17.489c70.19-1.481,140.349-8.041,209.667-19.136
					c20.132-3.223,40.208-6.854,60.148-11.115c10.949-2.34,22.024-4.671,32.704-8.074c1.225-0.39,0.701-2.321-0.531-1.929
					c-13.066,4.163-26.679,6.864-40.091,9.622c-24.917,5.125-50.023,9.336-75.196,12.988
					C497.525,81.481,423.453,87.551,349.74,86.771c-71.548-0.757-143.031-9.226-213.342-22.2
					c-25.327-4.673-50.71-9.729-75.632-16.277C59.517,47.965,58.988,49.895,60.234,50.222L60.234,50.222z"/>
			</g>
		</g>
		<g>
			<g>
				<path style="fill:#004900;" d="M167.59,186.183c1.026,4.762-3.301,9.411-5.853,10.019l-0.068,0.013
					c-2.774,0.507-18.188-4.219-21.606-8.23c-0.619-0.737-0.94-1.511-1.036-2.287c-0.437-3.53,3.585-7.114,3.585-7.114
					s3.278-2.781,6.621-3.294C152.578,174.785,166.563,181.42,167.59,186.183z"/>
				<path style="fill:#004900;" d="M167.928,173.416c-0.445,1.93-1.301,3.849-2.583,5.052c-2.705,2.545-14.438,5.64-17.23,4.936
					c-1.203-0.303-2.77-1.039-4.206-2.339c-1.9-1.707-3.587-4.421-3.897-8.471c-0.521-7.093,16.151-10.88,21.464-10.438
					c5.297,0.428,6.527,5.771,6.527,5.771C168.443,169.122,168.436,171.275,167.928,173.416z"/>
				<path style="fill:#004900;" d="M166.58,155.259c1.224,4.715-2.908,9.54-5.433,10.253l-0.067,0.016
					c-2.751,0.621-18.348-3.461-21.93-7.328c-0.648-0.711-1.001-1.471-1.129-2.241c-0.584-3.51,3.286-7.258,3.286-7.258
					s3.161-2.914,6.479-3.565C151.108,144.493,165.355,150.543,166.58,155.259z"/>
				<path style="fill:#004900;" d="M165.435,139.807c-0.637,1.876-1.68,3.699-3.077,4.768c-2.946,2.263-14.929,4.168-17.637,3.189
					c-1.167-0.423-2.652-1.312-3.951-2.749c-1.72-1.889-3.127-4.758-3.03-8.817c0.191-7.109,17.159-9.21,22.401-8.238
					c5.227,0.956,5.917,6.396,5.917,6.396C166.377,135.586,166.155,137.728,165.435,139.807z"/>
				<path style="fill:#004900;" d="M167.179,120.321c1.531,4.624-2.273,9.711-4.745,10.589l-0.067,0.02
					c-2.703,0.802-18.534-2.243-22.364-5.865c-0.694-0.667-1.095-1.402-1.275-2.163c-0.813-3.463,2.802-7.458,2.802-7.458
					s2.961-3.116,6.229-3.985C151.03,110.6,165.645,115.696,167.179,120.321z"/>
				<path style="fill:#004900;" d="M167.39,101.646c0.04,1.979-0.32,4.05-1.27,5.529c-2,3.13-12.62,9-15.5,9
					c-1.24,0-2.94-0.33-4.65-1.24c-2.26-1.189-4.56-3.409-5.85-7.26c-2.24-6.75,13-14.5,18.26-15.37c5.24-0.88,7.74,4,7.74,4
					C166.84,97.356,167.36,99.445,167.39,101.646z"/>
				<path style="fill:#004900;" d="M167.666,91.841c0.12,4.87-5,8.63-7.62,8.75h-0.07c-2.82-0.02-17.08-7.54-19.69-12.12
					c-0.47-0.84-0.64-1.659-0.59-2.439c0.23-3.55,4.85-6.32,4.85-6.32s3.74-2.12,7.12-2
					C155.046,77.841,167.546,86.971,167.666,91.841z"/>
			</g>
			<g>
				<g>
					<path style="fill:#DE8C00;" d="M152.5,72.508c0,21.301,0,42.603,0,63.903c0,25.866,0,51.732,0,77.597c0,0.75,0,1.5,0,2.25
						c0,1.29,2,1.29,2,0c0-21.301,0-42.603,0-63.903c0-25.866,0-51.732,0-77.597c0-0.75,0-1.499,0-2.249
						C154.5,71.218,152.5,71.218,152.5,72.508L152.5,72.508z"/>
				</g>
			</g>
			<g>
				<g>
					<path style="fill:#42A732;" d="M167.59,186.183c1.026,4.762-3.301,9.411-5.853,10.019l-0.068,0.013
						c1.902-6.753-13.392-12.459-18.996-12.595c-2.596-0.057-3.477,0.936-3.646,2.077c-0.437-3.53,3.585-7.114,3.585-7.114
						s3.278-2.781,6.621-3.294C152.578,174.785,166.563,181.42,167.59,186.183z"/>
					<g>
						<path style="fill:#004900;" d="M144.005,178.577c0,0,0.393-0.006,1.077,0.057c0.68,0.078,1.663,0.171,2.815,0.426
							c1.158,0.23,2.488,0.599,3.884,1.086c0.691,0.262,1.418,0.504,2.121,0.837c0.716,0.302,1.426,0.647,2.126,1.014
							c0.708,0.35,1.375,0.777,2.044,1.172c0.681,0.376,1.275,0.868,1.889,1.279c0.62,0.405,1.142,0.902,1.67,1.324
							c0.534,0.417,0.989,0.869,1.407,1.286c0.419,0.416,0.814,0.784,1.123,1.151c0.309,0.365,0.579,0.683,0.801,0.945
							c0.441,0.526,0.68,0.834,0.68,0.834s-0.306-0.249-0.82-0.698c-0.255-0.225-0.564-0.499-0.92-0.813
							c-0.355-0.312-0.797-0.618-1.243-0.988c-0.453-0.363-0.94-0.757-1.49-1.131c-0.549-0.373-1.092-0.813-1.711-1.188
							c-0.614-0.38-1.223-0.811-1.887-1.176c-0.658-0.376-1.312-0.781-2.007-1.113c-0.676-0.367-1.362-0.714-2.056-1.02
							c-0.683-0.329-1.371-0.615-2.038-0.896c-1.339-0.542-2.61-1.005-3.718-1.355c-1.105-0.358-2.04-0.626-2.702-0.788
							C144.389,178.659,144.005,178.577,144.005,178.577z"/>
					</g>
				</g>
				<g>
					<path style="fill:#42A732;" d="M167.928,173.416c-10.047-2.73-21.075,5.297-24.019,7.649c-1.9-1.707-3.587-4.421-3.897-8.471
						c-0.521-7.093,16.151-10.88,21.464-10.438c5.297,0.428,6.527,5.771,6.527,5.771
						C168.443,169.122,168.436,171.275,167.928,173.416z"/>
					<g>
						<path style="fill:#004900;" d="M141.556,175.69c0,0,0.283-0.332,0.84-0.852c0.56-0.515,1.363-1.258,2.423-2.028
							c1.053-0.778,2.327-1.633,3.77-2.424c0.725-0.384,1.486-0.769,2.275-1.12c0.808-0.308,1.602-0.694,2.448-0.941
							c0.838-0.27,1.676-0.536,2.528-0.706c0.423-0.094,0.843-0.187,1.257-0.279c0.421-0.055,0.838-0.108,1.248-0.162
							c0.41-0.047,0.81-0.117,1.206-0.143c0.397-0.007,0.786-0.013,1.165-0.02c0.755-0.023,1.467-0.029,2.123,0.053
							c0.655,0.054,1.255,0.107,1.78,0.187c0.52,0.115,0.974,0.215,1.347,0.297c0.739,0.177,1.162,0.278,1.162,0.278
							s-0.434-0.031-1.192-0.086c-0.375-0.033-0.831-0.073-1.354-0.119c-0.524,0.001-1.115,0.003-1.759,0.006
							c-0.642-0.03-1.335,0.031-2.066,0.112c-0.365,0.035-0.74,0.071-1.122,0.107c-0.379,0.065-0.767,0.131-1.161,0.198
							c-0.393,0.067-0.793,0.136-1.198,0.205c-0.399,0.1-0.802,0.202-1.208,0.304c-0.821,0.174-1.629,0.445-2.438,0.715
							c-0.823,0.226-1.598,0.593-2.387,0.88c-0.769,0.338-1.532,0.662-2.253,1.014c-0.708,0.375-1.42,0.691-2.058,1.063
							c-0.652,0.346-1.251,0.705-1.799,1.045c-1.094,0.683-2.007,1.263-2.615,1.714C141.899,175.422,141.556,175.69,141.556,175.69z
							"/>
					</g>
				</g>
				<g>
					<path style="fill:#42A732;" d="M166.58,155.259c1.224,4.715-2.908,9.54-5.433,10.253l-0.067,0.016
						c1.62-6.827-13.897-11.894-19.502-11.797c-2.596,0.052-3.434,1.079-3.557,2.227c-0.584-3.51,3.286-7.258,3.286-7.258
						s3.161-2.914,6.479-3.565C151.108,144.493,165.355,150.543,166.58,155.259z"/>
					<g>
						<path style="fill:#004900;" d="M142.7,148.638c0,0,0.392-0.023,1.078,0.012c0.683,0.05,1.668,0.103,2.83,0.309
							c1.166,0.182,2.511,0.495,3.926,0.924c0.701,0.233,1.438,0.444,2.153,0.748c0.728,0.273,1.451,0.588,2.165,0.925
							c0.723,0.32,1.406,0.72,2.09,1.087c0.697,0.347,1.31,0.814,1.94,1.199c0.636,0.379,1.178,0.855,1.724,1.253
							c0.551,0.394,1.024,0.827,1.459,1.227c0.436,0.398,0.845,0.749,1.169,1.104c0.324,0.351,0.607,0.658,0.84,0.911
							c0.462,0.506,0.714,0.804,0.714,0.804s-0.316-0.236-0.848-0.663c-0.264-0.215-0.584-0.475-0.953-0.773
							c-0.367-0.298-0.822-0.585-1.283-0.936c-0.467-0.344-0.971-0.717-1.536-1.068c-0.564-0.35-1.125-0.767-1.759-1.116
							c-0.629-0.354-1.255-0.76-1.935-1.097c-0.672-0.348-1.343-0.726-2.051-1.028c-0.691-0.339-1.391-0.657-2.097-0.934
							c-0.696-0.3-1.396-0.557-2.073-0.81c-1.36-0.486-2.649-0.896-3.77-1.2c-1.119-0.313-2.064-0.54-2.732-0.675
							C143.086,148.703,142.7,148.638,142.7,148.638z"/>
					</g>
				</g>
				<g>
					<path style="fill:#42A732;" d="M165.435,139.807c-9.725-3.722-21.5,3.162-24.665,5.207c-1.72-1.889-3.127-4.758-3.03-8.817
						c0.191-7.109,17.159-9.21,22.401-8.238c5.227,0.956,5.917,6.396,5.917,6.396C166.377,135.586,166.155,137.728,165.435,139.807z
						"/>
					<g>
						<path style="fill:#004900;" d="M138.967,139.432c0,0,0.315-0.302,0.921-0.764c0.608-0.457,1.482-1.115,2.614-1.775
							c1.126-0.669,2.479-1.393,3.993-2.035c0.761-0.309,1.556-0.616,2.377-0.887c0.834-0.226,1.663-0.53,2.53-0.691
							c0.86-0.185,1.722-0.366,2.587-0.45c0.43-0.051,0.857-0.102,1.279-0.152c0.425-0.012,0.845-0.024,1.258-0.036
							c0.413-0.006,0.818-0.036,1.214-0.021c0.396,0.033,0.783,0.065,1.16,0.097c0.754,0.053,1.463,0.118,2.107,0.266
							c0.647,0.12,1.238,0.232,1.754,0.364c0.506,0.167,0.947,0.311,1.311,0.431c0.718,0.25,1.128,0.393,1.128,0.393
							s-0.428-0.074-1.178-0.204c-0.37-0.071-0.82-0.156-1.335-0.254c-0.521-0.051-1.109-0.108-1.751-0.17
							c-0.636-0.094-1.332-0.102-2.067-0.095c-0.366-0.002-0.743-0.004-1.128-0.005c-0.384,0.026-0.776,0.053-1.174,0.081
							c-0.398,0.027-0.803,0.055-1.212,0.083c-0.407,0.06-0.818,0.12-1.233,0.181c-0.834,0.091-1.666,0.28-2.497,0.468
							c-0.841,0.143-1.649,0.43-2.463,0.637c-0.798,0.26-1.59,0.505-2.342,0.783c-0.742,0.302-1.482,0.546-2.154,0.852
							c-0.684,0.279-1.314,0.577-1.895,0.86c-1.156,0.57-2.123,1.056-2.773,1.443C139.335,139.199,138.967,139.432,138.967,139.432z
							"/>
					</g>
				</g>
				<g>
					<path style="fill:#42A732;" d="M167.179,120.321c1.531,4.624-2.273,9.711-4.745,10.589l-0.067,0.02
						c1.168-6.918-14.65-10.95-20.236-10.484c-2.587,0.222-3.355,1.303-3.402,2.456c-0.813-3.463,2.802-7.458,2.802-7.458
						s2.961-3.116,6.229-3.985C151.03,110.6,165.645,115.696,167.179,120.321z"/>
					<g>
						<path style="fill:#004900;" d="M142.913,115.289c0,0,0.39-0.048,1.077-0.059c0.685,0.004,1.671-0.008,2.844,0.122
							c1.176,0.104,2.539,0.329,3.979,0.663c0.714,0.187,1.464,0.349,2.198,0.604c0.745,0.224,1.487,0.491,2.223,0.78
							c0.742,0.272,1.45,0.626,2.157,0.947c0.718,0.301,1.361,0.727,2.015,1.069c0.66,0.336,1.232,0.775,1.803,1.137
							c0.576,0.357,1.076,0.758,1.537,1.128c0.461,0.368,0.893,0.692,1.24,1.024c0.347,0.33,0.649,0.617,0.898,0.854
							c0.495,0.476,0.766,0.756,0.766,0.756s-0.33-0.215-0.89-0.606c-0.278-0.197-0.615-0.435-1.002-0.709
							c-0.386-0.272-0.859-0.529-1.342-0.849c-0.489-0.313-1.016-0.652-1.603-0.965c-0.586-0.312-1.173-0.691-1.829-0.997
							c-0.651-0.312-1.303-0.676-2.002-0.967c-0.694-0.303-1.388-0.636-2.115-0.891c-0.711-0.293-1.431-0.564-2.154-0.793
							c-0.714-0.254-1.43-0.464-2.122-0.672c-1.39-0.396-2.703-0.719-3.841-0.948c-1.137-0.238-2.096-0.403-2.771-0.493
							C143.303,115.329,142.913,115.289,142.913,115.289z"/>
					</g>
				</g>
				<g>
					<path style="fill:#42A732;" d="M167.39,101.646c-10.41-0.19-19.14,10.289-21.42,13.289c-2.26-1.189-4.56-3.409-5.85-7.26
						c-2.24-6.75,13-14.5,18.26-15.37c5.24-0.88,7.74,4,7.74,4C166.84,97.356,167.36,99.445,167.39,101.646z"/>
					<g>
						<path style="fill:#004900;" d="M142.375,110.3c0,0,0.193-0.391,0.606-1.032c0.417-0.636,1.015-1.553,1.854-2.559
							c0.831-1.012,1.857-2.153,3.062-3.272c0.61-0.55,1.253-1.108,1.933-1.643c0.708-0.496,1.383-1.064,2.144-1.511
							c0.747-0.466,1.495-0.93,2.279-1.303c0.387-0.194,0.771-0.387,1.151-0.578c0.396-0.156,0.786-0.311,1.17-0.462
							c0.386-0.146,0.757-0.312,1.134-0.434c0.384-0.104,0.759-0.205,1.124-0.304c0.727-0.207,1.415-0.387,2.072-0.467
							c0.649-0.108,1.243-0.203,1.772-0.255c0.533-0.016,0.997-0.029,1.379-0.041c0.76-0.009,1.194-0.015,1.194-0.015
							s-0.428,0.076-1.177,0.208c-0.372,0.06-0.824,0.132-1.342,0.216c-0.508,0.13-1.08,0.276-1.705,0.436
							c-0.63,0.128-1.287,0.357-1.976,0.614c-0.345,0.123-0.7,0.249-1.062,0.379c-0.352,0.155-0.711,0.314-1.077,0.476
							c-0.365,0.161-0.736,0.325-1.111,0.491c-0.362,0.194-0.729,0.392-1.098,0.59c-0.753,0.37-1.471,0.83-2.188,1.289
							c-0.743,0.421-1.405,0.966-2.099,1.438c-0.662,0.516-1.324,1.017-1.936,1.534c-0.595,0.537-1.208,1.018-1.735,1.534
							c-0.548,0.495-1.04,0.989-1.489,1.453c-0.893,0.93-1.637,1.716-2.116,2.301C142.642,109.956,142.375,110.3,142.375,110.3z"/>
					</g>
				</g>
				<g>
					<path style="fill:#42A732;" d="M167.666,91.841c0.12,4.87-5,8.63-7.62,8.75h-0.07c3.13-6.279-10.83-14.74-16.31-15.92
						c-2.54-0.54-3.59,0.271-3.97,1.36c0.23-3.55,4.85-6.32,4.85-6.32s3.74-2.12,7.12-2
						C155.046,77.841,167.546,86.971,167.666,91.841z"/>
					<g>
						<path style="fill:#004900;" d="M145.917,79.966c0,0,0.387,0.067,1.047,0.257c0.654,0.204,1.602,0.479,2.686,0.944
							c1.095,0.442,2.333,1.053,3.613,1.793c0.629,0.387,1.299,0.76,1.927,1.218c0.647,0.431,1.28,0.903,1.899,1.394
							c0.631,0.476,1.205,1.02,1.789,1.533c0.599,0.497,1.091,1.091,1.617,1.609c0.533,0.513,0.953,1.1,1.394,1.612
							c0.447,0.509,0.809,1.038,1.142,1.526c0.334,0.487,0.653,0.922,0.888,1.34c0.236,0.417,0.442,0.779,0.611,1.078
							c0.335,0.599,0.512,0.946,0.512,0.946s-0.254-0.302-0.675-0.839c-0.208-0.269-0.461-0.595-0.752-0.97
							c-0.29-0.373-0.667-0.755-1.037-1.202c-0.377-0.441-0.783-0.919-1.252-1.389c-0.47-0.469-0.921-1.002-1.46-1.486
							c-0.533-0.488-1.05-1.025-1.634-1.508c-0.576-0.492-1.143-1.012-1.764-1.468c-0.596-0.487-1.205-0.956-1.83-1.385
							c-0.609-0.45-1.232-0.86-1.835-1.26c-1.214-0.783-2.377-1.475-3.399-2.025c-1.018-0.559-1.887-0.996-2.507-1.278
							C146.278,80.118,145.917,79.966,145.917,79.966z"/>
					</g>
				</g>
			</g>
			<g>
				<path style="fill:#F3AF00;" d="M148.409,196.043c0,0-3.344-3.79-5.573-0.669c-2.23,3.122,0,4.608,0,4.608
					s-4.163,0.074-4.608,3.865c-0.446,3.79,1.784,4.682,1.784,4.682s-2.454,2.23-0.893,5.648c1.561,3.419,3.643,1.487,3.643,1.487
					s-0.818,3.939,1.188,4.98c2.007,1.04,5.797-2.007,5.797-2.007s0.298,3.642,3.939,3.419c3.642-0.224,4.534-3.939,4.534-3.939
					s1.561,2.155,4.013,0.817c2.453-1.338,0.67-4.607,0.67-4.607s4.385,0.223,5.202-4.162c0.817-4.386-3.345-5.5-3.345-5.5
					s4.014-2.453,2.155-5.426c-1.857-2.973-4.756-0.967-4.756-0.967s1.485-4.161-1.189-5.128c-2.676-0.966-5.203,1.709-5.203,1.709
					s-0.817-4.607-4.386-3.716C147.815,192.03,148.409,196.043,148.409,196.043z"/>
				<path style="fill:#DE8C00;" d="M155.247,200.205c0,0-1.486-4.459-4.607-3.27c-3.122,1.188-1.784,5.202-1.784,5.202
					s-3.567-1.486-4.757,1.71c-1.189,3.195,1.264,4.236,1.264,4.236s-2.973,2.23-1.784,4.756c1.189,2.527,5.055,1.71,5.055,1.71
					s0.223,2.155,2.378,2.676c2.155,0.521,4.46-2.602,4.46-2.602s1.709,1.783,3.939,0c2.229-1.784,0.743-3.717,0.743-3.717
					s3.121,0.075,2.75-3.79c-0.372-3.864-3.717-3.79-3.717-3.79s1.71-2.229,0.595-3.643
					C158.665,198.273,155.247,200.205,155.247,200.205z"/>
			</g>
			<g>
				<path style="fill:#FF5012;" d="M149.22,60.538c0,0-1.486-3.195-4.608-1.114c-3.121,2.081,0.372,5.128,0.372,5.128
					s-4.014-1.338-5.128,1.858c-1.115,3.195,2.23,3.716,2.23,3.716s-4.236,2.676-2.824,6.392c1.411,3.717,4.459,2.081,4.459,2.081
					s-2.155,3.642,0.297,5.872c2.453,2.229,6.095-0.967,6.095-0.967s0.966,2.676,4.014,2.973c3.047,0.298,4.014-3.79,4.014-3.79
					s1.561,1.561,4.087,0.743c2.527-0.817,1.189-5.797,1.189-5.797s3.271,0.966,4.162-1.71c0.893-2.675-2.304-4.459-2.304-4.459
					s2.75-1.933,1.486-5.723c-1.264-3.791-5.203-1.636-5.203-1.636s3.568-4.533,0.15-6.242c-3.419-1.71-5.946,2.526-5.946,2.526
					s0.224-5.574-3.344-5.426C148.848,55.113,149.22,60.538,149.22,60.538z"/>
				<path style="fill:#C93114;" d="M150.408,66.781c0,0-2.452-3.271-4.458-0.595c-2.008,2.676-0.075,5.129-0.075,5.129
					s-2.898,1.04-2.081,4.088c0.817,3.047,3.865,1.561,3.865,1.561s-1.264,2.155,0.742,3.271c2.007,1.114,4.608-1.562,4.608-1.562
					s1.189,2.527,4.014,1.412c2.824-1.114,1.264-4.162,1.264-4.162s3.196,0.743,3.79-2.452c0.595-3.196-2.75-4.014-2.75-4.014
					s1.486-0.892,0.224-3.716c-1.264-2.824-3.791,0-3.791,0s-0.966-4.311-3.121-3.791C150.483,62.471,150.408,66.781,150.408,66.781
					z"/>
			</g>
		</g>
		<g>
			<g>
				<path style="fill:#004900;" d="M580.967,186.183c-1.027,4.762,3.301,9.411,5.852,10.019l0.068,0.013
					c2.775,0.507,18.188-4.219,21.607-8.23c0.619-0.737,0.94-1.511,1.035-2.287c0.438-3.53-3.584-7.114-3.584-7.114
					s-3.279-2.781-6.621-3.294C595.978,174.785,581.994,181.42,580.967,186.183z"/>
				<path style="fill:#004900;" d="M580.629,173.416c0.445,1.93,1.301,3.849,2.584,5.052c2.704,2.545,14.438,5.64,17.23,4.936
					c1.202-0.303,2.77-1.039,4.205-2.339c1.9-1.707,3.588-4.421,3.896-8.471c0.522-7.093-16.15-10.88-21.463-10.438
					c-5.297,0.428-6.527,5.771-6.527,5.771C580.113,169.122,580.12,171.275,580.629,173.416z"/>
				<path style="fill:#004900;" d="M581.977,155.259c-1.223,4.715,2.908,9.54,5.434,10.253l0.066,0.016
					c2.752,0.621,18.348-3.461,21.93-7.328c0.648-0.711,1.002-1.471,1.129-2.241c0.584-3.51-3.285-7.258-3.285-7.258
					s-3.162-2.914-6.481-3.565C597.449,144.493,583.201,150.543,581.977,155.259z"/>
				<path style="fill:#004900;" d="M583.121,139.807c0.637,1.876,1.68,3.699,3.077,4.768c2.946,2.263,14.929,4.168,17.638,3.189
					c1.166-0.423,2.652-1.312,3.95-2.749c1.72-1.889,3.128-4.758,3.03-8.817c-0.191-7.109-17.158-9.21-22.4-8.238
					c-5.227,0.956-5.918,6.396-5.918,6.396C582.18,135.586,582.402,137.728,583.121,139.807z"/>
				<path style="fill:#004900;" d="M581.378,120.321c-1.531,4.624,2.273,9.711,4.745,10.589l0.067,0.02
					c2.703,0.802,18.534-2.243,22.364-5.865c0.694-0.667,1.095-1.402,1.274-2.163c0.813-3.463-2.802-7.458-2.802-7.458
					s-2.961-3.116-6.229-3.985C597.526,110.6,582.911,115.696,581.378,120.321z"/>
				<path style="fill:#004900;" d="M581.166,101.646c-0.039,1.979,0.32,4.05,1.27,5.529c2,3.13,12.62,9,15.5,9
					c1.24,0,2.941-0.33,4.649-1.24c2.261-1.189,4.561-3.409,5.851-7.26c2.24-6.75-13-14.5-18.26-15.37c-5.24-0.88-7.74,4-7.74,4
					C581.717,97.356,581.197,99.445,581.166,101.646z"/>
				<path style="fill:#004900;" d="M580.891,91.841c-0.121,4.87,5,8.63,7.619,8.75h0.07c2.82-0.02,17.08-7.54,19.689-12.12
					c0.471-0.84,0.641-1.659,0.591-2.439c-0.23-3.55-4.851-6.32-4.851-6.32s-3.74-2.12-7.119-2
					C593.51,77.841,581.01,86.971,580.891,91.841z"/>
			</g>
			<g>
				<g>
					<path style="fill:#DE8C00;" d="M594.057,72.508c0,21.301,0,42.603,0,63.903c0,25.866,0,51.732,0,77.597c0,0.75,0,1.5,0,2.25
						c0,1.29,2,1.29,2,0c0-21.301,0-42.603,0-63.903c0-25.866,0-51.732,0-77.597c0-0.75,0-1.499,0-2.249
						C596.057,71.218,594.057,71.218,594.057,72.508L594.057,72.508z"/>
				</g>
			</g>
			<g>
				<g>
					<path style="fill:#42A732;" d="M580.967,186.183c-1.027,4.762,3.301,9.411,5.852,10.019l0.068,0.013
						c-1.902-6.753,13.393-12.459,18.996-12.595c2.596-0.057,3.477,0.936,3.646,2.077c0.438-3.53-3.584-7.114-3.584-7.114
						s-3.279-2.781-6.621-3.294C595.978,174.785,581.994,181.42,580.967,186.183z"/>
					<g>
						<path style="fill:#004900;" d="M604.551,178.577c0,0-0.384,0.082-1.045,0.248c-0.661,0.162-1.597,0.429-2.701,0.788
							c-1.107,0.35-2.378,0.813-3.717,1.355c-0.667,0.281-1.356,0.567-2.038,0.896c-0.694,0.305-1.38,0.652-2.057,1.02
							c-0.694,0.332-1.349,0.737-2.006,1.113c-0.665,0.365-1.273,0.796-1.888,1.177c-0.618,0.374-1.162,0.814-1.711,1.187
							c-0.549,0.374-1.037,0.768-1.49,1.131c-0.445,0.37-0.889,0.675-1.243,0.988c-0.354,0.314-0.665,0.587-0.92,0.813
							c-0.514,0.449-0.819,0.698-0.819,0.698s0.239-0.308,0.68-0.834c0.223-0.262,0.492-0.58,0.802-0.945
							c0.309-0.367,0.704-0.735,1.123-1.151c0.418-0.417,0.873-0.87,1.407-1.286c0.528-0.421,1.05-0.919,1.67-1.324
							c0.613-0.411,1.207-0.903,1.889-1.279c0.669-0.395,1.334-0.822,2.043-1.172c0.7-0.366,1.409-0.712,2.126-1.014
							c0.702-0.333,1.43-0.575,2.12-0.837c1.396-0.487,2.727-0.857,3.884-1.086c1.152-0.254,2.135-0.348,2.815-0.426
							C604.158,178.571,604.551,178.577,604.551,178.577z"/>
					</g>
				</g>
				<g>
					<path style="fill:#42A732;" d="M580.629,173.416c10.047-2.73,21.075,5.297,24.019,7.649c1.9-1.707,3.588-4.421,3.896-8.471
						c0.522-7.093-16.15-10.88-21.463-10.438c-5.297,0.428-6.527,5.771-6.527,5.771C580.113,169.122,580.12,171.275,580.629,173.416
						z"/>
					<g>
						<path style="fill:#004900;" d="M607,175.69c0,0-0.343-0.268-0.964-0.702c-0.607-0.451-1.521-1.031-2.614-1.714
							c-0.549-0.34-1.146-0.699-1.799-1.045c-0.639-0.371-1.35-0.688-2.058-1.063c-0.72-0.352-1.483-0.675-2.252-1.013
							c-0.788-0.288-1.563-0.654-2.387-0.88c-0.808-0.27-1.616-0.541-2.437-0.715c-0.407-0.102-0.811-0.204-1.209-0.304
							c-0.405-0.069-0.805-0.137-1.198-0.205c-0.393-0.067-0.781-0.133-1.16-0.198c-0.383-0.037-0.758-0.072-1.122-0.107
							c-0.731-0.081-1.425-0.142-2.066-0.112c-0.645-0.002-1.235-0.004-1.759-0.006c-0.523,0.046-0.98,0.086-1.355,0.119
							c-0.759,0.054-1.192,0.086-1.192,0.086s0.422-0.101,1.161-0.278c0.374-0.083,0.827-0.183,1.348-0.297
							c0.525-0.08,1.125-0.132,1.78-0.187c0.656-0.082,1.367-0.076,2.123-0.053c0.378,0.006,0.767,0.013,1.164,0.02
							c0.396,0.025,0.797,0.095,1.206,0.143c0.41,0.053,0.826,0.107,1.248,0.162c0.414,0.092,0.834,0.185,1.257,0.279
							c0.853,0.17,1.69,0.436,2.529,0.706c0.846,0.247,1.64,0.633,2.447,0.941c0.79,0.352,1.55,0.736,2.275,1.12
							c1.442,0.792,2.717,1.646,3.769,2.425c1.06,0.77,1.863,1.513,2.423,2.028C606.717,175.358,607,175.69,607,175.69z"/>
					</g>
				</g>
				<g>
					<path style="fill:#42A732;" d="M581.977,155.259c-1.223,4.715,2.908,9.54,5.434,10.253l0.066,0.016
						c-1.619-6.827,13.898-11.894,19.502-11.797c2.596,0.052,3.436,1.079,3.557,2.227c0.584-3.51-3.285-7.258-3.285-7.258
						s-3.162-2.914-6.481-3.565C597.449,144.493,583.201,150.543,581.977,155.259z"/>
					<g>
						<path style="fill:#004900;" d="M605.857,148.638c0,0-0.387,0.065-1.054,0.205c-0.668,0.134-1.613,0.362-2.732,0.675
							c-1.12,0.304-2.409,0.713-3.771,1.2c-0.677,0.253-1.377,0.51-2.072,0.81c-0.706,0.276-1.406,0.595-2.098,0.934
							c-0.707,0.303-1.378,0.681-2.051,1.028c-0.679,0.337-1.305,0.743-1.934,1.097c-0.635,0.349-1.195,0.766-1.76,1.116
							c-0.564,0.351-1.067,0.724-1.535,1.068c-0.461,0.351-0.916,0.638-1.283,0.936c-0.368,0.298-0.688,0.559-0.953,0.773
							c-0.532,0.427-0.848,0.663-0.848,0.663s0.252-0.298,0.714-0.804c0.232-0.253,0.516-0.56,0.84-0.911
							c0.324-0.354,0.733-0.706,1.17-1.104c0.435-0.4,0.908-0.833,1.459-1.227c0.546-0.399,1.088-0.874,1.724-1.253
							c0.63-0.385,1.244-0.852,1.94-1.199c0.685-0.367,1.367-0.767,2.09-1.087c0.715-0.337,1.438-0.653,2.166-0.925
							c0.716-0.304,1.453-0.515,2.153-0.748c1.415-0.429,2.76-0.743,3.926-0.924c1.162-0.207,2.148-0.259,2.83-0.309
							C605.466,148.615,605.857,148.638,605.857,148.638z"/>
					</g>
				</g>
				<g>
					<path style="fill:#42A732;" d="M583.121,139.807c9.725-3.722,21.5,3.162,24.665,5.207c1.72-1.889,3.128-4.758,3.03-8.817
						c-0.191-7.109-17.158-9.21-22.4-8.238c-5.227,0.956-5.918,6.396-5.918,6.396C582.18,135.586,582.402,137.728,583.121,139.807z"
						/>
					<g>
						<path style="fill:#004900;" d="M609.59,139.432c0,0-0.368-0.232-1.029-0.603c-0.649-0.387-1.617-0.873-2.773-1.443
							c-0.58-0.283-1.211-0.581-1.895-0.86c-0.672-0.305-1.411-0.549-2.154-0.852c-0.752-0.278-1.544-0.523-2.342-0.783
							c-0.813-0.207-1.622-0.494-2.463-0.637c-0.832-0.188-1.663-0.376-2.497-0.468c-0.415-0.061-0.826-0.121-1.233-0.181
							c-0.409-0.028-0.813-0.056-1.212-0.083c-0.398-0.027-0.791-0.054-1.175-0.081c-0.385,0.002-0.761,0.003-1.127,0.005
							c-0.735-0.007-1.432,0.001-2.067,0.095c-0.642,0.063-1.23,0.12-1.751,0.17c-0.516,0.098-0.966,0.184-1.336,0.254
							c-0.749,0.13-1.178,0.204-1.178,0.204s0.41-0.143,1.128-0.393c0.363-0.119,0.805-0.264,1.31-0.431
							c0.516-0.132,1.106-0.244,1.753-0.364c0.645-0.148,1.354-0.212,2.108-0.266c0.377-0.031,0.765-0.064,1.16-0.097
							c0.396-0.015,0.802,0.015,1.215,0.021c0.413,0.012,0.833,0.024,1.258,0.036c0.422,0.05,0.849,0.101,1.278,0.152
							c0.865,0.084,1.727,0.265,2.587,0.45c0.867,0.161,1.695,0.466,2.53,0.691c0.82,0.271,1.616,0.577,2.376,0.887
							c1.515,0.643,2.868,1.366,3.993,2.035c1.132,0.66,2.006,1.319,2.614,1.775C609.275,139.129,609.59,139.432,609.59,139.432z"/>
					</g>
				</g>
				<g>
					<path style="fill:#42A732;" d="M581.378,120.321c-1.531,4.624,2.273,9.711,4.745,10.589l0.067,0.02
						c-1.168-6.918,14.65-10.95,20.236-10.484c2.587,0.222,3.355,1.303,3.402,2.456c0.813-3.463-2.802-7.458-2.802-7.458
						s-2.961-3.116-6.229-3.985C597.526,110.6,582.911,115.696,581.378,120.321z"/>
					<g>
						<path style="fill:#004900;" d="M605.644,115.289c0,0-0.391,0.04-1.065,0.135c-0.675,0.09-1.634,0.255-2.771,0.493
							c-1.139,0.229-2.452,0.553-3.841,0.948c-0.693,0.208-1.408,0.418-2.122,0.672c-0.724,0.229-1.442,0.5-2.154,0.793
							c-0.727,0.255-1.421,0.588-2.114,0.891c-0.7,0.291-1.352,0.655-2.003,0.967c-0.655,0.306-1.243,0.685-1.828,0.997
							c-0.587,0.313-1.114,0.652-1.603,0.965c-0.483,0.32-0.956,0.576-1.342,0.849c-0.387,0.274-0.724,0.512-1.002,0.709
							c-0.559,0.391-0.89,0.606-0.89,0.606s0.271-0.28,0.766-0.756c0.249-0.236,0.551-0.524,0.898-0.854
							c0.346-0.332,0.778-0.656,1.239-1.024c0.461-0.37,0.962-0.771,1.537-1.128c0.571-0.362,1.143-0.801,1.803-1.137
							c0.654-0.342,1.297-0.768,2.015-1.069c0.708-0.321,1.416-0.675,2.158-0.947c0.734-0.289,1.478-0.557,2.222-0.78
							c0.734-0.256,1.483-0.418,2.198-0.604c1.44-0.335,2.803-0.56,3.979-0.663c1.173-0.13,2.16-0.117,2.845-0.122
							C605.254,115.241,605.644,115.289,605.644,115.289z"/>
					</g>
				</g>
				<g>
					<path style="fill:#42A732;" d="M581.166,101.646c10.41-0.19,19.141,10.289,21.42,13.289c2.261-1.189,4.561-3.409,5.851-7.26
						c2.24-6.75-13-14.5-18.26-15.37c-5.24-0.88-7.74,4-7.74,4C581.717,97.356,581.197,99.445,581.166,101.646z"/>
					<g>
						<path style="fill:#004900;" d="M606.182,110.3c0,0-0.268-0.344-0.763-0.917c-0.479-0.585-1.224-1.372-2.116-2.301
							c-0.449-0.464-0.941-0.958-1.489-1.453c-0.527-0.516-1.14-0.997-1.735-1.534c-0.612-0.517-1.273-1.018-1.935-1.534
							c-0.695-0.472-1.357-1.017-2.1-1.438c-0.718-0.459-1.436-0.92-2.189-1.289c-0.369-0.198-0.735-0.396-1.098-0.59
							c-0.375-0.166-0.746-0.33-1.111-0.491c-0.366-0.162-0.726-0.32-1.077-0.476c-0.362-0.129-0.717-0.256-1.063-0.379
							c-0.688-0.257-1.346-0.486-1.976-0.614c-0.625-0.16-1.197-0.306-1.704-0.436c-0.519-0.084-0.971-0.156-1.343-0.216
							c-0.749-0.133-1.177-0.208-1.177-0.208s0.435,0.005,1.194,0.015c0.382,0.012,0.847,0.025,1.379,0.041
							c0.529,0.052,1.123,0.147,1.772,0.255c0.656,0.08,1.345,0.261,2.071,0.467c0.365,0.099,0.74,0.2,1.124,0.304
							c0.378,0.122,0.749,0.287,1.135,0.434c0.385,0.151,0.775,0.306,1.17,0.462c0.38,0.19,0.764,0.383,1.151,0.578
							c0.784,0.373,1.532,0.837,2.279,1.303c0.761,0.447,1.436,1.015,2.144,1.511c0.68,0.534,1.322,1.093,1.933,1.643
							c1.205,1.12,2.231,2.261,3.062,3.272c0.84,1.006,1.438,1.923,1.854,2.559C605.988,109.909,606.182,110.3,606.182,110.3z"/>
					</g>
				</g>
				<g>
					<path style="fill:#42A732;" d="M580.891,91.841c-0.121,4.87,5,8.63,7.619,8.75h0.07c-3.13-6.279,10.83-14.74,16.31-15.92
						c2.539-0.54,3.59,0.271,3.97,1.36c-0.23-3.55-4.851-6.32-4.851-6.32s-3.74-2.12-7.119-2
						C593.51,77.841,581.01,86.971,580.891,91.841z"/>
					<g>
						<path style="fill:#004900;" d="M602.641,79.966c0,0-0.361,0.152-0.979,0.438c-0.62,0.283-1.489,0.72-2.508,1.278
							c-1.022,0.551-2.184,1.243-3.398,2.025c-0.603,0.4-1.226,0.81-1.835,1.26c-0.625,0.429-1.234,0.898-1.83,1.385
							c-0.62,0.456-1.188,0.977-1.764,1.468c-0.584,0.482-1.102,1.02-1.634,1.508c-0.538,0.484-0.99,1.017-1.46,1.486
							c-0.47,0.47-0.875,0.948-1.253,1.389c-0.369,0.447-0.747,0.829-1.037,1.202c-0.29,0.374-0.543,0.701-0.752,0.97
							c-0.421,0.537-0.675,0.839-0.675,0.839s0.178-0.347,0.513-0.946c0.169-0.299,0.375-0.662,0.61-1.078
							c0.235-0.419,0.555-0.854,0.889-1.34c0.333-0.488,0.695-1.017,1.143-1.526c0.441-0.513,0.86-1.099,1.394-1.612
							c0.526-0.519,1.018-1.113,1.616-1.609c0.584-0.513,1.158-1.057,1.789-1.533c0.619-0.491,1.252-0.962,1.899-1.394
							c0.628-0.458,1.297-0.831,1.927-1.218c1.28-0.739,2.519-1.351,3.613-1.793c1.084-0.465,2.032-0.74,2.686-0.944
							C602.254,80.033,602.641,79.966,602.641,79.966z"/>
					</g>
				</g>
			</g>
			<g>
				<path style="fill:#F3AF00;" d="M600.148,196.043c0,0,3.344-3.79,5.572-0.669c2.23,3.122,0,4.608,0,4.608
					s4.164,0.074,4.609,3.865c0.445,3.79-1.785,4.682-1.785,4.682s2.455,2.23,0.893,5.648c-1.56,3.419-3.643,1.487-3.643,1.487
					s0.818,3.939-1.188,4.98c-2.008,1.04-5.797-2.007-5.797-2.007s-0.299,3.642-3.939,3.419c-3.643-0.224-4.535-3.939-4.535-3.939
					s-1.56,2.155-4.012,0.817c-2.453-1.338-0.67-4.607-0.67-4.607s-4.385,0.223-5.203-4.162c-0.816-4.386,3.346-5.5,3.346-5.5
					s-4.014-2.453-2.156-5.426c1.857-2.973,4.756-0.967,4.756-0.967s-1.484-4.161,1.189-5.128c2.676-0.966,5.203,1.709,5.203,1.709
					s0.818-4.607,4.387-3.716C600.742,192.03,600.148,196.043,600.148,196.043z"/>
				<path style="fill:#DE8C00;" d="M593.31,200.205c0,0,1.486-4.459,4.608-3.27c3.121,1.188,1.783,5.202,1.783,5.202
					s3.568-1.486,4.758,1.71c1.189,3.195-1.264,4.236-1.264,4.236s2.973,2.23,1.783,4.756c-1.189,2.527-5.055,1.71-5.055,1.71
					s-0.223,2.155-2.377,2.676c-2.156,0.521-4.461-2.602-4.461-2.602s-1.709,1.783-3.939,0c-2.228-1.784-0.742-3.717-0.742-3.717
					s-3.121,0.075-2.75-3.79c0.371-3.864,3.717-3.79,3.717-3.79s-1.711-2.229-0.596-3.643
					C589.891,198.273,593.31,200.205,593.31,200.205z"/>
			</g>
			<g>
				<path style="fill:#FF5012;" d="M599.337,60.538c0,0,1.486-3.195,4.608-1.114c3.121,2.081-0.372,5.128-0.372,5.128
					s4.014-1.338,5.128,1.858c1.115,3.195-2.229,3.716-2.229,3.716s4.236,2.676,2.824,6.392c-1.411,3.717-4.459,2.081-4.459,2.081
					s2.155,3.642-0.297,5.872c-2.453,2.229-6.095-0.967-6.095-0.967s-0.966,2.676-4.014,2.973c-3.047,0.298-4.014-3.79-4.014-3.79
					s-1.561,1.561-4.087,0.743c-2.527-0.817-1.189-5.797-1.189-5.797s-3.271,0.966-4.162-1.71c-0.893-2.675,2.304-4.459,2.304-4.459
					s-2.75-1.933-1.486-5.723C583.06,61.95,587,64.106,587,64.106s-3.568-4.533-0.149-6.242c3.419-1.71,5.946,2.526,5.946,2.526
					s-0.224-5.574,3.344-5.426C599.709,55.113,599.337,60.538,599.337,60.538z"/>
				<path style="fill:#C93114;" d="M598.148,66.781c0,0,2.452-3.271,4.458-0.595c2.008,2.676,0.075,5.129,0.075,5.129
					s2.898,1.04,2.081,4.088c-0.817,3.047-3.865,1.561-3.865,1.561s1.264,2.155-0.742,3.271c-2.007,1.114-4.608-1.562-4.608-1.562
					s-1.19,2.527-4.014,1.412c-2.824-1.114-1.264-4.162-1.264-4.162s-3.196,0.743-3.79-2.452c-0.595-3.196,2.75-4.014,2.75-4.014
					s-1.486-0.892-0.224-3.716c1.264-2.824,3.791,0,3.791,0s0.966-4.311,3.121-3.791C598.073,62.471,598.148,66.781,598.148,66.781z
					"/>
			</g>
		</g>
		<g>
			<g>
				<g>
					<path style="fill:#F3AF00;" d="M96.864,237.961c0,0-2.299-4.943-7.129-1.725c-4.829,3.22,0.575,7.934,0.575,7.934
						s-6.208-2.07-7.933,2.874c-1.725,4.944,3.449,5.749,3.449,5.749s-6.553,4.139-4.369,9.887c2.185,5.748,6.898,3.219,6.898,3.219
						s-3.334,5.635,0.46,9.083c3.794,3.449,9.427-1.495,9.427-1.495s1.495,4.14,6.208,4.6c4.714,0.46,6.209-5.863,6.209-5.863
						s2.414,2.414,6.323,1.149c3.909-1.265,1.839-8.968,1.839-8.968s5.059,1.494,6.438-2.645c1.38-4.139-3.564-6.898-3.564-6.898
						s4.254-2.988,2.299-8.852c-1.955-5.864-8.048-2.529-8.048-2.529s5.519-7.014,0.23-9.658c-5.289-2.644-9.198,3.909-9.198,3.909
						s0.345-8.623-5.174-8.392C96.289,229.568,96.864,237.961,96.864,237.961z"/>
					<path style="fill:#DE8C00;" d="M98.704,247.619c0,0-3.794-5.059-6.898-0.92c-3.104,4.139-0.115,7.933-0.115,7.933
						s-4.484,1.61-3.219,6.323c1.265,4.714,5.979,2.414,5.979,2.414s-1.955,3.334,1.15,5.059c3.104,1.725,7.128-2.414,7.128-2.414
						s1.839,3.909,6.208,2.185c4.369-1.725,1.955-6.438,1.955-6.438s4.943,1.15,5.863-3.794c0.92-4.943-4.254-6.208-4.254-6.208
						s2.299-1.38,0.345-5.748c-1.955-4.369-5.864,0-5.864,0s-1.495-6.669-4.829-5.864C98.819,240.951,98.704,247.619,98.704,247.619
						z"/>
					<path style="fill:#F3AF00;" d="M100.658,252.332c0,0-1.955-2.299-3.909-0.344c-1.955,1.953,0.805,3.448,0.805,3.448
						s-3.794,1.495-2.299,3.679c1.495,2.186,5.289,0,5.289,0s-0.689,3.449,2.759,3.565c3.449,0.115,2.53-3.794,2.53-3.794
						s3.449,0.345,3.219-2.989c-0.23-3.334-2.414-1.955-2.414-1.955s1.149-3.104-1.725-4.713
						C102.038,247.619,100.658,252.332,100.658,252.332z"/>
				</g>
				<g>
					<path style="fill:#FF5012;" d="M96.374,204.457c0,0-5.173-5.863-8.622-1.034c-3.449,4.828,0,7.128,0,7.128
						s-6.438,0.115-7.129,5.979c-0.689,5.863,2.759,7.243,2.759,7.243s-3.794,3.449-1.379,8.737c2.415,5.289,5.633,2.3,5.633,2.3
						s-1.265,6.093,1.84,7.702c3.104,1.609,8.968-3.104,8.968-3.104s0.46,5.633,6.093,5.289c5.633-0.346,7.013-6.094,7.013-6.094
						s2.414,3.334,6.209,1.264c3.793-2.068,1.034-7.127,1.034-7.127s6.783,0.345,8.048-6.438c1.265-6.783-5.174-8.508-5.174-8.508
						s6.209-3.794,3.334-8.392c-2.874-4.6-7.357-1.495-7.357-1.495s2.299-6.438-1.84-7.933c-4.139-1.495-8.048,2.645-8.048,2.645
						s-1.265-7.129-6.783-5.749C95.455,198.249,96.374,204.457,96.374,204.457z"/>
					<path style="fill:#C93114;" d="M106.951,210.896c0,0-2.299-6.898-7.127-5.059c-4.829,1.84-2.759,8.048-2.759,8.048
						s-5.519-2.299-7.358,2.645c-1.84,4.943,1.954,6.553,1.954,6.553s-4.599,3.449-2.759,7.358c1.84,3.909,7.818,2.645,7.818,2.645
						s0.345,3.334,3.679,4.139c3.334,0.805,6.898-4.023,6.898-4.023s2.645,2.759,6.094,0c3.449-2.76,1.149-5.749,1.149-5.749
						s4.829,0.115,4.254-5.863c-0.575-5.979-5.749-5.863-5.749-5.863s2.645-3.449,0.92-5.634
						C112.24,207.906,106.951,210.896,106.951,210.896z"/>
					<path style="fill:#FF5012;" d="M100.398,218.599c0,0,0-4.599,2.185-4.483c2.185,0.114,3.449,3.794,3.449,3.794
						s2.644-1.38,4.599,1.265c1.955,2.644-1.609,3.334-1.609,3.334s2.874,5.288,0,7.013c-2.874,1.725-6.208-2.989-6.208-2.989
						s-5.059,5.519-6.439,2.76c-1.379-2.76,1.84-5.863,1.84-5.863s-5.059-1.84-3.795-4.6
						C95.685,216.069,100.398,218.599,100.398,218.599z"/>
				</g>
				<g>
					<path style="fill:#F3AF00;" d="M105.302,174.055c0,0-0.613-8.125-5.212-7.205c-4.599,0.92-4.446,8.892-4.446,8.892
						s-5.978-5.519-9.81-2.146c-3.833,3.372,0.153,8.584,0.153,8.584s-8.432,1.533-7.665,7.972c0.767,6.439,6.898,6.439,6.898,6.439
						s-4.446,3.985-1.38,7.817c3.066,3.832,8.584-0.153,8.584-0.153s0.154,5.366,4.906,6.898c4.752,1.533,7.664-4.292,7.664-4.292
						s2.607,2.759,6.592,0.92c3.985-1.84,2.453-6.132,2.453-6.132s4.292,0.767,7.051-3.832c2.759-4.6-1.839-7.358-1.839-7.358
						s4.752-2.3,3.373-8.585c-1.38-6.285-7.358-2.452-7.358-2.452s3.985-7.664-1.687-9.657S105.302,174.055,105.302,174.055z"/>
					<path style="fill:#DE8C00;" d="M100.703,182.83c0,0-1.839-4.483-5.059-3.564c-3.219,0.919-1.954,7.588-1.954,7.588
						s-5.864,0.46-5.519,4.828c0.345,4.369,5.864,2.989,5.864,2.989s-2.415,3.335,0.805,5.634c3.219,2.3,6.898-1.84,6.898-1.84
						s1.035,3.795,5.289,2.989c4.254-0.805,2.069-6.208,2.069-6.208s4.484,1.495,5.633-3.219c1.15-4.714-3.909-5.979-3.909-5.979
						s2.415-4.024-1.265-7.129C105.876,175.817,100.703,182.83,100.703,182.83z"/>
					<path style="fill:#F3AF00;" d="M102.657,188.579c0,0-1.379-4.254-3.334-2.76c-1.954,1.495-1.265,4.369-1.265,4.369
						s-2.529,3.104-0.69,4.599c0,0,1.954,1.725,4.139-1.38c0,0,0,2.989,2.644,2.529c2.645-0.459,1.035-4.599,1.035-4.599
						s3.335,0,2.3-3.449C106.451,184.44,102.657,188.579,102.657,188.579z"/>
				</g>
				<g>
					<path style="fill:#FF5012;" d="M95.138,138.192c0,0-2.299-4.943-7.128-1.725c-4.829,3.22,0.575,7.934,0.575,7.934
						s-6.208-2.069-7.933,2.874c-1.725,4.943,3.449,5.748,3.449,5.748s-6.553,4.14-4.369,9.888c2.185,5.749,6.898,3.22,6.898,3.22
						s-3.334,5.633,0.46,9.082c3.794,3.449,9.427-1.494,9.427-1.494s1.495,4.139,6.208,4.599c4.714,0.46,6.209-5.863,6.209-5.863
						s2.414,2.414,6.323,1.149c3.909-1.265,1.839-8.968,1.839-8.968s5.059,1.495,6.438-2.645c1.38-4.139-3.564-6.898-3.564-6.898
						s4.254-2.989,2.299-8.854c-1.955-5.863-8.048-2.529-8.048-2.529s5.519-7.013,0.23-9.657c-5.288-2.645-9.198,3.909-9.198,3.909
						s0.345-8.623-5.173-8.393C94.563,129.8,95.138,138.192,95.138,138.192z"/>
					<path style="fill:#C93114;" d="M96.978,147.851c0,0-3.794-5.06-6.898-0.92c-3.104,4.139-0.115,7.933-0.115,7.933
						s-4.484,1.609-3.219,6.323c1.265,4.714,5.979,2.414,5.979,2.414s-1.955,3.335,1.15,5.06c3.104,1.725,7.128-2.415,7.128-2.415
						s1.84,3.909,6.209,2.185c4.369-1.725,1.955-6.438,1.955-6.438s4.944,1.15,5.863-3.794c0.92-4.943-4.254-6.208-4.254-6.208
						s2.299-1.38,0.345-5.749c-1.954-4.368-5.864,0-5.864,0s-1.495-6.668-4.829-5.863C97.093,141.182,96.978,147.851,96.978,147.851
						z"/>
					<path style="fill:#FF5012;" d="M98.932,152.564c0,0-1.955-2.299-3.909-0.345c-1.954,1.955,0.805,3.449,0.805,3.449
						s-3.794,1.495-2.3,3.679c1.495,2.184,5.289,0,5.289,0s-0.689,3.449,2.76,3.564c3.449,0.115,2.529-3.794,2.529-3.794
						s3.449,0.345,3.219-2.989c-0.229-3.334-2.414-1.954-2.414-1.954s1.149-3.105-1.725-4.714
						C100.312,147.851,98.932,152.564,98.932,152.564z"/>
				</g>
				<g>
					<path style="fill:#F3AF00;" d="M95.116,107.443c0,0-2.299-4.944-7.128-1.725c-4.829,3.219,0.575,7.933,0.575,7.933
						s-6.209-2.069-7.933,2.874c-1.725,4.944,3.449,5.749,3.449,5.749s-6.553,4.139-4.369,9.887c2.185,5.749,6.898,3.22,6.898,3.22
						s-3.334,5.634,0.46,9.082c3.794,3.449,9.427-1.494,9.427-1.494s1.495,4.139,6.208,4.599c4.714,0.46,6.209-5.863,6.209-5.863
						s2.414,2.414,6.323,1.149c3.909-1.265,1.839-8.968,1.839-8.968s5.059,1.495,6.438-2.644c1.38-4.14-3.564-6.898-3.564-6.898
						s4.254-2.989,2.299-8.853c-1.955-5.864-8.048-2.529-8.048-2.529s5.519-7.014,0.23-9.658c-5.289-2.644-9.198,3.909-9.198,3.909
						s0.345-8.623-5.174-8.393C94.541,99.05,95.116,107.443,95.116,107.443z"/>
					<path style="fill:#DE8C00;" d="M96.956,117.101c0,0-3.794-5.059-6.898-0.92c-3.104,4.139-0.115,7.933-0.115,7.933
						s-4.484,1.61-3.219,6.323c1.265,4.714,5.979,2.415,5.979,2.415s-1.955,3.334,1.15,5.059c3.104,1.725,7.128-2.414,7.128-2.414
						s1.839,3.908,6.209,2.184c4.369-1.725,1.955-6.438,1.955-6.438s4.943,1.149,5.863-3.795c0.92-4.943-4.254-6.208-4.254-6.208
						s2.299-1.38,0.345-5.748c-1.955-4.369-5.864,0-5.864,0s-1.495-6.669-4.829-5.864C97.071,110.433,96.956,117.101,96.956,117.101
						z"/>
					<path style="fill:#F3AF00;" d="M98.91,121.815c0,0-1.955-2.3-3.909-0.345c-1.955,1.954,0.805,3.448,0.805,3.448
						s-3.794,1.495-2.299,3.68c1.495,2.185,5.289,0,5.289,0s-0.689,3.449,2.759,3.563c3.449,0.115,2.53-3.794,2.53-3.794
						s3.449,0.345,3.219-2.989c-0.23-3.334-2.414-1.954-2.414-1.954s1.149-3.104-1.725-4.714
						C100.29,117.101,98.91,121.815,98.91,121.815z"/>
				</g>
				<g>
					<path style="fill:#FF5012;" d="M104.324,75.304c0,0-0.613-8.124-5.212-7.204c-4.599,0.919-4.446,8.891-4.446,8.891
						s-5.978-5.519-9.811-2.146c-3.833,3.372,0.153,8.584,0.153,8.584s-8.432,1.533-7.665,7.972
						c0.767,6.438,6.898,6.438,6.898,6.438s-4.446,3.986-1.38,7.818c3.066,3.832,8.585-0.153,8.585-0.153s0.153,5.365,4.905,6.899
						c4.752,1.533,7.665-4.293,7.665-4.293s2.606,2.76,6.592,0.92c3.985-1.839,2.453-6.131,2.453-6.131s4.292,0.767,7.051-3.833
						c2.759-4.599-1.839-7.358-1.839-7.358s4.752-2.3,3.373-8.585c-1.379-6.285-7.358-2.452-7.358-2.452s3.985-7.665-1.686-9.658
						C106.93,69.019,104.324,75.304,104.324,75.304z"/>
					<path style="fill:#C93114;" d="M99.725,84.08c0,0-1.84-4.483-5.059-3.564c-3.219,0.92-1.954,7.589-1.954,7.589
						s-5.864,0.459-5.519,4.828c0.345,4.369,5.863,2.989,5.863,2.989s-2.415,3.334,0.805,5.634c3.219,2.299,6.898-1.84,6.898-1.84
						s1.035,3.794,5.288,2.989c4.254-0.805,2.069-6.208,2.069-6.208s4.484,1.494,5.634-3.22c1.149-4.714-3.909-5.979-3.909-5.979
						s2.414-4.023-1.265-7.128C104.898,77.067,99.725,84.08,99.725,84.08z"/>
					<path style="fill:#FF5012;" d="M101.679,89.828c0,0-1.379-4.254-3.334-2.759c-1.955,1.494-1.265,4.369-1.265,4.369
						s-2.529,3.103-0.69,4.599c0,0,1.955,1.725,4.139-1.38c0,0,0,2.989,2.644,2.529c2.645-0.46,1.035-4.599,1.035-4.599
						s3.335,0,2.3-3.449C105.474,85.69,101.679,89.828,101.679,89.828z"/>
				</g>
				<g>
					<path style="fill:#F3AF00;" d="M93.353,39.208c0,0-5.173-5.864-8.622-1.035c-3.449,4.829,0,7.128,0,7.128
						s-6.439,0.115-7.128,5.979c-0.689,5.863,2.759,7.243,2.759,7.243s-3.794,3.449-1.379,8.738
						c2.415,5.288,5.633,2.299,5.633,2.299s-1.265,6.094,1.84,7.703c3.104,1.609,8.967-3.104,8.967-3.104s0.46,5.634,6.094,5.289
						c5.634-0.345,7.014-6.094,7.014-6.094s2.414,3.334,6.208,1.265c3.794-2.069,1.035-7.128,1.035-7.128s6.783,0.345,8.048-6.438
						c1.265-6.783-5.174-8.508-5.174-8.508s6.209-3.794,3.334-8.392c-2.874-4.599-7.357-1.495-7.357-1.495s2.299-6.438-1.84-7.933
						c-4.139-1.494-8.048,2.645-8.048,2.645s-1.265-7.128-6.783-5.749C92.433,32.999,93.353,39.208,93.353,39.208z"/>
					<path style="fill:#DE8C00;" d="M103.93,45.646c0,0-2.299-6.898-7.128-5.059c-4.829,1.84-2.759,8.048-2.759,8.048
						s-5.519-2.299-7.358,2.645c-1.84,4.944,1.954,6.554,1.954,6.554s-4.599,3.449-2.759,7.357c1.84,3.909,7.818,2.645,7.818,2.645
						s0.345,3.334,3.679,4.139c3.334,0.806,6.898-4.023,6.898-4.023s2.645,2.759,6.094,0c3.449-2.76,1.15-5.749,1.15-5.749
						s4.829,0.115,4.254-5.863c-0.575-5.978-5.749-5.863-5.749-5.863s2.645-3.449,0.92-5.634
						C109.219,42.656,103.93,45.646,103.93,45.646z"/>
					<path style="fill:#F3AF00;" d="M97.377,53.349c0,0,0-4.599,2.184-4.483c2.185,0.115,3.449,3.794,3.449,3.794
						s2.645-1.38,4.599,1.265c1.955,2.645-1.609,3.334-1.609,3.334s2.874,5.289,0,7.014c-2.875,1.725-6.209-2.989-6.209-2.989
						s-5.059,5.519-6.438,2.759c-1.379-2.759,1.84-5.863,1.84-5.863s-5.059-1.84-3.794-4.599
						C92.663,50.819,97.377,53.349,97.377,53.349z"/>
				</g>
			</g>
			<g>
				<g>
					<path style="fill:#42A700;" d="M103,61.258c0,0-7.333-5.667-15.833,5.5S67.334,92.925,51.333,91.092
						c0,0,4.667,12.499,24.833,13.666S121.333,74.758,103,61.258z"/>
					<g>
						<path style="fill:#42A700;" d="M55.5,94.258c0,0,32.667,4.001,43.834-24.333"/>
						<path style="fill:#004900;" d="M55.5,94.258c0,0,3.398,0.082,8.37-0.548c2.483-0.322,5.357-0.826,8.351-1.65
							c1.503-0.387,3.015-0.919,4.542-1.464c1.512-0.584,3.039-1.208,4.488-1.984c1.478-0.719,2.882-1.573,4.235-2.455
							c0.646-0.482,1.317-0.924,1.946-1.404c0.609-0.503,1.252-0.956,1.815-1.482c1.155-1.019,2.223-2.062,3.182-3.108
							c0.464-0.537,0.917-1.06,1.354-1.565c0.411-0.529,0.809-1.041,1.19-1.532c0.392-0.486,0.689-1.006,1.022-1.468
							c0.319-0.472,0.649-0.905,0.895-1.351c0.503-0.883,1.016-1.622,1.343-2.279c0.7-1.301,1.101-2.044,1.101-2.044
							s-0.269,0.804-0.739,2.21c-0.232,0.708-0.622,1.522-1.032,2.478c-0.43,0.945-0.985,1.983-1.634,3.091
							c-0.344,0.543-0.703,1.11-1.074,1.696c-0.396,0.57-0.844,1.133-1.285,1.727c-0.921,1.157-1.954,2.336-3.136,3.446
							c-1.175,1.114-2.464,2.19-3.854,3.176c-1.413,0.949-2.879,1.872-4.425,2.646c-1.536,0.794-3.145,1.427-4.734,2.015
							c-1.599,0.563-3.208,1.006-4.778,1.355c-1.564,0.378-3.105,0.59-4.561,0.783c-1.46,0.167-2.844,0.276-4.123,0.302
							c-2.556,0.091-4.682-0.075-6.156-0.236C56.328,94.443,55.5,94.258,55.5,94.258z"/>
					</g>
				</g>
				<g>
					<path style="fill:#42A700;" d="M108.167,62.425c0,0,5.333-2.5,13,6.833C128.833,78.592,140,89.592,155,93.592
						c0,0-23.333,12-38.667,0.5S100.5,63.259,108.167,62.425z"/>
					<g>
						<path style="fill:#42A700;" d="M108,65.425c0,0,12.666,29.333,41.5,28.667"/>
						<path style="fill:#004900;" d="M108,65.425c0,0,1.634,2.937,4.6,6.919c1.486,1.987,3.307,4.23,5.433,6.459
							c1.045,1.131,2.213,2.209,3.392,3.307c1.206,1.066,2.449,2.132,3.776,3.081c1.294,0.996,2.662,1.885,4.033,2.718
							c0.699,0.394,1.392,0.785,2.076,1.172c0.705,0.346,1.394,0.708,2.087,1.029c0.704,0.3,1.395,0.596,2.072,0.885
							c0.691,0.258,1.367,0.511,2.025,0.757c0.672,0.209,1.326,0.413,1.958,0.61c0.637,0.182,1.262,0.329,1.858,0.486
							c0.595,0.172,1.18,0.255,1.732,0.372c0.554,0.104,1.076,0.239,1.576,0.301c0.999,0.121,1.871,0.291,2.595,0.352
							c1.455,0.14,2.287,0.219,2.287,0.219s-0.836,0.065-2.3,0.178c-0.735,0.047-1.627,0.02-2.657,0.012
							c-1.024-0.055-2.191-0.115-3.445-0.306c-0.627-0.101-1.285-0.19-1.961-0.314c-0.669-0.155-1.361-0.316-2.073-0.481
							c-0.702-0.207-1.422-0.421-2.159-0.639c-0.733-0.232-1.457-0.541-2.208-0.816c-0.739-0.305-1.474-0.652-2.228-0.984
							c-0.733-0.373-1.479-0.748-2.207-1.165c-1.447-0.852-2.894-1.76-4.256-2.785c-1.373-1.012-2.652-2.138-3.888-3.264
							c-1.219-1.146-2.349-2.344-3.387-3.546c-1.06-1.184-1.975-2.419-2.836-3.587c-0.843-1.183-1.601-2.326-2.245-3.415
							C109.023,68.648,108,65.425,108,65.425z"/>
					</g>
				</g>
				<g>
					<path style="fill:#004900;" d="M102.667,58.925c0,0-12.169,1.182-8.001,21.591s15.834,32.075,39.167,29.242
						c0,0-7.666-6-14.666-26.666C112.167,62.425,110.334,58.759,102.667,58.925z"/>
					<g>
						<path style="fill:#42A732;" d="M104.333,62.925c0,0,0.754,3.185,2.071,7.869c0.342,1.166,0.712,2.429,1.104,3.766
							c0.405,1.33,0.862,2.723,1.334,4.161c0.476,1.437,1.013,2.904,1.568,4.389c0.546,1.488,1.163,2.973,1.804,4.446
							c0.643,1.471,1.31,2.931,2.042,4.326c0.74,1.389,1.453,2.769,2.264,4.026c0.787,1.273,1.604,2.467,2.434,3.556
							c0.837,1.084,1.676,2.072,2.507,2.934c0.395,0.455,0.84,0.814,1.232,1.197c0.387,0.39,0.788,0.718,1.172,1.019
							c0.746,0.637,1.463,1.1,2.046,1.505c0.585,0.398,1.087,0.644,1.413,0.846c0.333,0.192,0.51,0.294,0.51,0.294
							s-0.192-0.068-0.553-0.195c-0.354-0.144-0.914-0.279-1.56-0.596c-0.646-0.316-1.459-0.669-2.299-1.23
							c-0.435-0.259-0.892-0.546-1.34-0.894c-0.453-0.342-0.95-0.683-1.406-1.106c-0.955-0.804-1.932-1.746-2.874-2.822
							c-0.946-1.071-1.897-2.248-2.757-3.544c-0.448-0.638-0.876-1.302-1.288-1.987c-0.435-0.673-0.821-1.383-1.209-2.1
							c-0.776-1.433-1.489-2.925-2.166-4.43c-0.636-1.522-1.247-3.054-1.784-4.583c-0.56-1.522-1-3.054-1.434-4.531
							c-0.848-2.961-1.452-5.771-1.874-8.191C104.425,66.207,104.334,62.925,104.333,62.925z"/>
					</g>
				</g>
			</g>
		</g>
		<g>
			<g>
				<g>
					<path style="fill:#F3AF00;" d="M652.459,237.961c0,0,2.299-4.943,7.128-1.725c4.829,3.22-0.575,7.934-0.575,7.934
						s6.209-2.07,7.934,2.874c1.725,4.944-3.449,5.749-3.449,5.749s6.553,4.139,4.369,9.887c-2.185,5.748-6.898,3.219-6.898,3.219
						s3.334,5.635-0.461,9.083c-3.793,3.449-9.427-1.495-9.427-1.495s-1.495,4.14-6.208,4.6c-4.715,0.46-6.209-5.863-6.209-5.863
						s-2.414,2.414-6.323,1.149c-3.909-1.265-1.839-8.968-1.839-8.968s-5.06,1.494-6.44-2.645c-1.379-4.139,3.565-6.898,3.565-6.898
						s-4.254-2.988-2.299-8.852c1.954-5.864,8.047-2.529,8.047-2.529s-5.518-7.014-0.229-9.658c5.288-2.644,9.198,3.909,9.198,3.909
						s-0.346-8.623,5.174-8.392C653.033,229.568,652.459,237.961,652.459,237.961z"/>
					<path style="fill:#DE8C00;" d="M650.619,247.619c0,0,3.794-5.059,6.898-0.92c3.104,4.139,0.115,7.933,0.115,7.933
						s4.483,1.61,3.219,6.323c-1.265,4.714-5.979,2.414-5.979,2.414s1.955,3.334-1.15,5.059c-3.104,1.725-7.127-2.414-7.127-2.414
						s-1.84,3.909-6.209,2.185c-4.369-1.725-1.955-6.438-1.955-6.438s-4.943,1.15-5.863-3.794c-0.92-4.943,4.254-6.208,4.254-6.208
						s-2.299-1.38-0.345-5.748c1.954-4.369,5.864,0,5.864,0s1.494-6.669,4.828-5.864
						C650.504,240.951,650.619,247.619,650.619,247.619z"/>
					<path style="fill:#F3AF00;" d="M648.664,252.332c0,0,1.955-2.299,3.91-0.344c1.954,1.953-0.805,3.448-0.805,3.448
						s3.793,1.495,2.299,3.679c-1.494,2.186-5.289,0-5.289,0s0.69,3.449-2.759,3.565c-3.449,0.115-2.53-3.794-2.53-3.794
						s-3.448,0.345-3.219-2.989c0.231-3.334,2.414-1.955,2.414-1.955s-1.148-3.104,1.725-4.713
						C647.285,247.619,648.664,252.332,648.664,252.332z"/>
				</g>
				<g>
					<path style="fill:#FF5012;" d="M652.948,204.457c0,0,5.173-5.863,8.622-1.034c3.449,4.828,0,7.128,0,7.128
						s6.439,0.115,7.129,5.979c0.69,5.863-2.76,7.243-2.76,7.243s3.795,3.449,1.38,8.737c-2.415,5.289-5.634,2.3-5.634,2.3
						s1.266,6.093-1.84,7.702c-3.104,1.609-8.967-3.104-8.967-3.104s-0.46,5.633-6.094,5.289c-5.633-0.346-7.014-6.094-7.014-6.094
						s-2.414,3.334-6.209,1.264c-3.793-2.068-1.033-7.127-1.033-7.127s-6.783,0.345-8.049-6.438
						c-1.264-6.783,5.174-8.508,5.174-8.508s-6.209-3.794-3.334-8.392c2.875-4.6,7.357-1.495,7.357-1.495s-2.299-6.438,1.84-7.933
						c4.139-1.495,8.049,2.645,8.049,2.645s1.264-7.129,6.783-5.749C653.867,198.249,652.948,204.457,652.948,204.457z"/>
					<path style="fill:#C93114;" d="M642.371,210.896c0,0,2.299-6.898,7.128-5.059c4.829,1.84,2.759,8.048,2.759,8.048
						s5.519-2.299,7.358,2.645c1.84,4.943-1.954,6.553-1.954,6.553s4.599,3.449,2.76,7.358c-1.84,3.909-7.818,2.645-7.818,2.645
						s-0.346,3.334-3.68,4.139c-3.334,0.805-6.898-4.023-6.898-4.023s-2.645,2.759-6.094,0c-3.449-2.76-1.148-5.749-1.148-5.749
						s-4.83,0.115-4.254-5.863c0.574-5.979,5.748-5.863,5.748-5.863s-2.644-3.449-0.92-5.634
						C637.082,207.906,642.371,210.896,642.371,210.896z"/>
					<path style="fill:#FF5012;" d="M648.924,218.599c0,0,0-4.599-2.184-4.483c-2.185,0.114-3.449,3.794-3.449,3.794
						s-2.645-1.38-4.6,1.265c-1.955,2.644,1.609,3.334,1.609,3.334s-2.873,5.288,0,7.013c2.875,1.725,6.209-2.989,6.209-2.989
						s5.059,5.519,6.438,2.76c1.38-2.76-1.84-5.863-1.84-5.863s5.06-1.84,3.794-4.6
						C653.638,216.069,648.924,218.599,648.924,218.599z"/>
				</g>
				<g>
					<path style="fill:#F3AF00;" d="M644.021,174.055c0,0,0.613-8.125,5.211-7.205c4.6,0.92,4.446,8.892,4.446,8.892
						s5.978-5.519,9.811-2.146c3.833,3.372-0.153,8.584-0.153,8.584s8.432,1.533,7.665,7.972c-0.767,6.439-6.898,6.439-6.898,6.439
						s4.446,3.985,1.38,7.817c-3.066,3.832-8.584-0.153-8.584-0.153s-0.154,5.366-4.906,6.898c-4.752,1.533-7.664-4.292-7.664-4.292
						s-2.607,2.759-6.592,0.92c-3.986-1.84-2.453-6.132-2.453-6.132s-4.292,0.767-7.051-3.832c-2.76-4.6,1.839-7.358,1.839-7.358
						s-4.752-2.3-3.372-8.585c1.379-6.285,7.357-2.452,7.357-2.452s-3.985-7.664,1.687-9.657
						C641.415,167.77,644.021,174.055,644.021,174.055z"/>
					<path style="fill:#DE8C00;" d="M648.62,182.83c0,0,1.839-4.483,5.059-3.564c3.22,0.919,1.954,7.588,1.954,7.588
						s5.863,0.46,5.519,4.828c-0.346,4.369-5.864,2.989-5.864,2.989s2.415,3.335-0.805,5.634c-3.22,2.3-6.898-1.84-6.898-1.84
						s-1.034,3.795-5.288,2.989c-4.254-0.805-2.07-6.208-2.07-6.208s-4.483,1.495-5.633-3.219c-1.15-4.714,3.908-5.979,3.908-5.979
						s-2.414-4.024,1.266-7.129C643.446,175.817,648.62,182.83,648.62,182.83z"/>
					<path style="fill:#F3AF00;" d="M646.666,188.579c0,0,1.379-4.254,3.334-2.76c1.954,1.495,1.264,4.369,1.264,4.369
						s2.529,3.104,0.69,4.599c0,0-1.954,1.725-4.14-1.38c0,0,0,2.989-2.644,2.529c-2.645-0.459-1.034-4.599-1.034-4.599
						s-3.335,0-2.301-3.449C642.871,184.44,646.666,188.579,646.666,188.579z"/>
				</g>
				<g>
					<path style="fill:#FF5012;" d="M653.851,138.859c0,0,2.3-4.943,7.128-1.725c4.829,3.22-0.574,7.934-0.574,7.934
						s6.208-2.069,7.933,2.874c1.725,4.943-3.449,5.748-3.449,5.748s6.554,4.14,4.369,9.888c-2.185,5.749-6.898,3.22-6.898,3.22
						s3.334,5.633-0.46,9.082c-3.794,3.449-9.428-1.494-9.428-1.494s-1.494,4.139-6.208,4.599c-4.714,0.46-6.208-5.863-6.208-5.863
						s-2.415,2.414-6.324,1.149c-3.908-1.265-1.839-8.968-1.839-8.968s-5.06,1.495-6.439-2.645c-1.38-4.139,3.565-6.897,3.565-6.897
						s-4.254-2.989-2.3-8.854c1.954-5.863,8.048-2.529,8.048-2.529s-5.518-7.013-0.23-9.657c5.289-2.645,9.198,3.909,9.198,3.909
						s-0.345-8.623,5.173-8.393C654.426,130.467,653.851,138.859,653.851,138.859z"/>
					<path style="fill:#C93114;" d="M652.012,148.518c0,0,3.793-5.06,6.898-0.92c3.104,4.139,0.115,7.933,0.115,7.933
						s4.483,1.609,3.22,6.323c-1.266,4.714-5.979,2.414-5.979,2.414s1.954,3.335-1.15,5.059c-3.104,1.725-7.128-2.415-7.128-2.415
						s-1.84,3.909-6.208,2.185c-4.369-1.725-1.955-6.439-1.955-6.439s-4.943,1.15-5.863-3.794c-0.92-4.943,4.254-6.208,4.254-6.208
						s-2.299-1.38-0.346-5.749c1.955-4.368,5.864,0,5.864,0s1.495-6.668,4.829-5.863
						C651.896,141.849,652.012,148.518,652.012,148.518z"/>
					<path style="fill:#FF5012;" d="M650.057,153.231c0,0,1.955-2.299,3.909-0.345c1.954,1.955-0.806,3.449-0.806,3.449
						s3.795,1.495,2.301,3.679c-1.495,2.185-5.289,0-5.289,0s0.689,3.449-2.76,3.564c-3.449,0.115-2.529-3.794-2.529-3.794
						s-3.449,0.345-3.219-2.989c0.229-3.334,2.414-1.954,2.414-1.954s-1.149-3.104,1.725-4.714
						C648.678,148.518,650.057,153.231,650.057,153.231z"/>
				</g>
				<g>
					<path style="fill:#F3AF00;" d="M654.207,107.443c0,0,2.299-4.944,7.128-1.725c4.829,3.219-0.575,7.933-0.575,7.933
						s6.209-2.069,7.934,2.874c1.725,4.944-3.449,5.749-3.449,5.749s6.553,4.139,4.369,9.887c-2.186,5.749-6.898,3.22-6.898,3.22
						s3.334,5.634-0.461,9.082c-3.793,3.449-9.427-1.494-9.427-1.494s-1.495,4.139-6.208,4.599c-4.715,0.46-6.209-5.863-6.209-5.863
						s-2.414,2.414-6.323,1.149c-3.909-1.265-1.839-8.968-1.839-8.968s-5.06,1.495-6.439-2.644c-1.379-4.14,3.564-6.898,3.564-6.898
						s-4.254-2.989-2.299-8.853c1.954-5.864,8.047-2.529,8.047-2.529s-5.518-7.014-0.229-9.658c5.288-2.644,9.198,3.909,9.198,3.909
						s-0.346-8.623,5.174-8.393C654.781,99.05,654.207,107.443,654.207,107.443z"/>
					<path style="fill:#DE8C00;" d="M652.367,117.101c0,0,3.794-5.059,6.898-0.92c3.104,4.139,0.115,7.933,0.115,7.933
						s4.483,1.61,3.219,6.323c-1.265,4.714-5.979,2.415-5.979,2.415s1.955,3.334-1.15,5.059c-3.104,1.725-7.127-2.414-7.127-2.414
						s-1.84,3.908-6.209,2.184c-4.369-1.725-1.955-6.438-1.955-6.438s-4.943,1.149-5.863-3.795c-0.92-4.943,4.254-6.208,4.254-6.208
						s-2.299-1.38-0.345-5.748c1.954-4.369,5.864,0,5.864,0s1.494-6.669,4.828-5.864
						C652.252,110.433,652.367,117.101,652.367,117.101z"/>
					<path style="fill:#F3AF00;" d="M650.412,121.815c0,0,1.955-2.3,3.91-0.345c1.954,1.954-0.805,3.448-0.805,3.448
						s3.793,1.495,2.299,3.68c-1.494,2.185-5.289,0-5.289,0s0.69,3.449-2.759,3.563c-3.449,0.115-2.53-3.794-2.53-3.794
						s-3.448,0.345-3.219-2.989c0.231-3.334,2.414-1.954,2.414-1.954s-1.148-3.104,1.725-4.714
						C649.033,117.101,650.412,121.815,650.412,121.815z"/>
				</g>
				<g>
					<path style="fill:#FF5012;" d="M644.999,75.304c0,0,0.613-8.124,5.212-7.204c4.599,0.919,4.445,8.891,4.445,8.891
						s5.978-5.519,9.81-2.146c3.833,3.372-0.152,8.584-0.152,8.584s8.432,1.533,7.664,7.972c-0.766,6.438-6.898,6.438-6.898,6.438
						s4.446,3.986,1.381,7.818c-3.066,3.832-8.586-0.153-8.586-0.153s-0.152,5.365-4.904,6.899
						c-4.752,1.533-7.665-4.293-7.665-4.293s-2.607,2.76-6.592,0.92c-3.985-1.839-2.452-6.131-2.452-6.131s-4.293,0.767-7.052-3.833
						c-2.759-4.599,1.839-7.358,1.839-7.358s-4.752-2.3-3.372-8.585c1.38-6.285,7.358-2.452,7.358-2.452s-3.986-7.665,1.686-9.658
						C642.393,69.019,644.999,75.304,644.999,75.304z"/>
					<path style="fill:#C93114;" d="M649.598,84.08c0,0,1.84-4.483,5.059-3.564c3.219,0.92,1.955,7.589,1.955,7.589
						s5.863,0.459,5.518,4.828c-0.344,4.369-5.863,2.989-5.863,2.989s2.415,3.334-0.805,5.634c-3.219,2.299-6.898-1.84-6.898-1.84
						s-1.034,3.794-5.288,2.989c-4.254-0.805-2.069-6.208-2.069-6.208s-4.484,1.494-5.634-3.22
						c-1.149-4.714,3.909-5.979,3.909-5.979s-2.414-4.023,1.265-7.128C644.424,77.067,649.598,84.08,649.598,84.08z"/>
					<path style="fill:#FF5012;" d="M647.644,89.828c0,0,1.38-4.254,3.334-2.759c1.954,1.494,1.265,4.369,1.265,4.369
						s2.529,3.103,0.689,4.599c0,0-1.954,1.725-4.139-1.38c0,0,0,2.989-2.645,2.529c-2.644-0.46-1.034-4.599-1.034-4.599
						s-3.335,0-2.3-3.449C643.85,85.69,647.644,89.828,647.644,89.828z"/>
				</g>
				<g>
					<path style="fill:#F3AF00;" d="M655.971,39.208c0,0,5.173-5.864,8.622-1.035c3.449,4.829,0,7.128,0,7.128
						s6.439,0.115,7.128,5.979c0.689,5.863-2.759,7.243-2.759,7.243s3.794,3.449,1.38,8.738c-2.415,5.288-5.634,2.299-5.634,2.299
						s1.265,6.094-1.84,7.703s-8.968-3.104-8.968-3.104s-0.459,5.634-6.094,5.289c-5.633-0.345-7.014-6.094-7.014-6.094
						s-2.414,3.334-6.207,1.265c-3.795-2.069-1.035-7.128-1.035-7.128s-6.783,0.345-8.049-6.438
						c-1.264-6.783,5.174-8.508,5.174-8.508s-6.209-3.794-3.334-8.392c2.875-4.599,7.357-1.495,7.357-1.495s-2.299-6.438,1.84-7.933
						c4.139-1.494,8.049,2.645,8.049,2.645s1.265-7.128,6.783-5.749C656.89,32.999,655.971,39.208,655.971,39.208z"/>
					<path style="fill:#DE8C00;" d="M645.393,45.646c0,0,2.3-6.898,7.129-5.059c4.828,1.84,2.759,8.048,2.759,8.048
						s5.518-2.299,7.358,2.645c1.84,4.944-1.955,6.554-1.955,6.554s4.6,3.449,2.76,7.357c-1.84,3.909-7.818,2.645-7.818,2.645
						s-0.345,3.334-3.679,4.139c-3.335,0.806-6.898-4.023-6.898-4.023s-2.645,2.759-6.095,0c-3.449-2.76-1.148-5.749-1.148-5.749
						s-4.83,0.115-4.254-5.863c0.574-5.978,5.748-5.863,5.748-5.863s-2.644-3.449-0.92-5.634
						C640.103,42.656,645.393,45.646,645.393,45.646z"/>
					<path style="fill:#F3AF00;" d="M651.946,53.349c0,0,0-4.599-2.185-4.483c-2.185,0.115-3.449,3.794-3.449,3.794
						s-2.644-1.38-4.6,1.265c-1.955,2.645,1.609,3.334,1.609,3.334s-2.873,5.289,0,7.014c2.875,1.725,6.209-2.989,6.209-2.989
						s5.058,5.519,6.439,2.759c1.379-2.759-1.84-5.863-1.84-5.863s5.059-1.84,3.794-4.599
						C656.66,50.819,651.946,53.349,651.946,53.349z"/>
				</g>
			</g>
			<g>
				<g>
					<path style="fill:#42A700;" d="M646.322,61.258c0,0,7.334-5.667,15.834,5.5s19.833,26.167,35.833,24.334
						c0,0-4.667,12.499-24.833,13.666C652.989,105.925,627.99,74.758,646.322,61.258z"/>
					<g>
						<path style="fill:#42A700;" d="M693.822,94.258c0,0-32.666,4.001-43.833-24.333"/>
						<path style="fill:#004900;" d="M693.822,94.258c0,0-0.828,0.186-2.304,0.356c-1.475,0.161-3.6,0.327-6.155,0.236
							c-1.279-0.026-2.663-0.134-4.123-0.302c-1.455-0.192-2.997-0.404-4.56-0.783c-1.57-0.35-3.18-0.793-4.778-1.356
							c-1.589-0.587-3.197-1.22-4.733-2.014c-1.546-0.774-3.013-1.697-4.425-2.646c-1.391-0.985-2.68-2.061-3.854-3.176
							c-1.181-1.109-2.215-2.289-3.135-3.446c-0.441-0.594-0.889-1.157-1.285-1.727c-0.371-0.586-0.731-1.153-1.074-1.696
							c-0.649-1.108-1.204-2.146-1.634-3.091c-0.411-0.956-0.801-1.77-1.032-2.478c-0.471-1.406-0.739-2.21-0.739-2.21
							s0.4,0.743,1.101,2.044c0.328,0.657,0.84,1.396,1.344,2.279c0.245,0.445,0.574,0.879,0.893,1.351
							c0.334,0.462,0.631,0.981,1.023,1.468c0.382,0.491,0.779,1.002,1.19,1.532c0.438,0.505,0.889,1.028,1.354,1.565
							c0.958,1.045,2.026,2.088,3.182,3.108c0.563,0.526,1.205,0.979,1.815,1.482c0.629,0.48,1.299,0.922,1.946,1.404
							c1.353,0.882,2.757,1.735,4.234,2.455c1.449,0.776,2.977,1.4,4.488,1.983c1.527,0.546,3.038,1.077,4.542,1.464
							c2.994,0.824,5.867,1.328,8.351,1.65C690.425,94.34,693.822,94.258,693.822,94.258z"/>
					</g>
				</g>
				<g>
					<path style="fill:#42A700;" d="M641.156,62.425c0,0-5.334-2.5-13,6.833c-7.667,9.334-18.834,20.334-33.834,24.334
						c0,0,23.334,12,38.667,0.5C648.322,82.592,648.822,63.259,641.156,62.425z"/>
					<g>
						<path style="fill:#42A700;" d="M641.322,65.425c0,0-12.666,29.333-41.5,28.667"/>
						<path style="fill:#004900;" d="M641.322,65.425c0,0-1.023,3.223-3.65,7.556c-0.644,1.089-1.402,2.232-2.245,3.415
							c-0.861,1.168-1.775,2.403-2.835,3.587c-1.039,1.202-2.168,2.4-3.387,3.546c-1.237,1.126-2.516,2.252-3.889,3.264
							c-1.362,1.024-2.81,1.933-4.256,2.785c-0.729,0.417-1.475,0.792-2.207,1.164c-0.754,0.332-1.49,0.679-2.228,0.984
							c-0.751,0.276-1.475,0.584-2.207,0.816c-0.737,0.218-1.458,0.431-2.159,0.639c-0.712,0.165-1.404,0.326-2.073,0.481
							c-0.676,0.124-1.334,0.213-1.961,0.314c-1.255,0.191-2.422,0.251-3.445,0.306c-1.029,0.007-1.923,0.035-2.657-0.012
							c-1.464-0.113-2.3-0.178-2.3-0.178s0.832-0.08,2.287-0.219c0.725-0.061,1.596-0.231,2.595-0.352
							c0.499-0.062,1.022-0.197,1.576-0.301c0.552-0.116,1.137-0.2,1.731-0.372c0.598-0.158,1.222-0.304,1.859-0.486
							c0.632-0.197,1.286-0.401,1.958-0.61c0.657-0.246,1.334-0.499,2.024-0.757c0.677-0.289,1.369-0.585,2.072-0.885
							c0.693-0.321,1.382-0.684,2.088-1.029c0.685-0.386,1.377-0.777,2.075-1.172c1.371-0.833,2.74-1.722,4.033-2.718
							c1.328-0.949,2.571-2.015,3.776-3.081c1.179-1.097,2.347-2.175,3.392-3.306c2.126-2.229,3.946-4.473,5.433-6.459
							C639.688,68.362,641.322,65.425,641.322,65.425z"/>
					</g>
				</g>
				<g>
					<path style="fill:#004900;" d="M646.656,58.925c0,0,12.168,1.182,8,21.591c-4.167,20.409-15.834,32.075-39.167,29.242
						c0,0,7.667-6,14.667-26.666C637.156,62.425,638.988,58.759,646.656,58.925z"/>
					<g>
						<path style="fill:#42A732;" d="M644.989,62.925c0,0-0.091,3.282-0.956,8.123c-0.423,2.42-1.026,5.229-1.874,8.191
							c-0.434,1.477-0.874,3.01-1.434,4.531c-0.537,1.529-1.148,3.061-1.783,4.583c-0.678,1.505-1.391,2.997-2.167,4.43
							c-0.388,0.717-0.773,1.427-1.209,2.1c-0.411,0.686-0.84,1.35-1.288,1.988c-0.86,1.296-1.811,2.472-2.757,3.544
							c-0.941,1.076-1.919,2.018-2.874,2.821c-0.456,0.424-0.954,0.765-1.406,1.106c-0.448,0.348-0.905,0.635-1.34,0.895
							c-0.841,0.562-1.653,0.914-2.3,1.23c-0.646,0.317-1.206,0.453-1.559,0.596c-0.361,0.127-0.554,0.195-0.554,0.195
							s0.178-0.103,0.51-0.294c0.326-0.202,0.827-0.448,1.413-0.846c0.583-0.405,1.3-0.868,2.046-1.504
							c0.385-0.301,0.785-0.629,1.173-1.019c0.392-0.383,0.837-0.742,1.232-1.197c0.831-0.861,1.67-1.85,2.507-2.933
							c0.83-1.09,1.647-2.284,2.434-3.557c0.811-1.257,1.524-2.637,2.265-4.026c0.731-1.396,1.398-2.855,2.041-4.326
							c0.641-1.473,1.258-2.958,1.804-4.446c0.556-1.484,1.092-2.952,1.568-4.389c0.472-1.438,0.929-2.83,1.333-4.161
							c0.392-1.336,0.763-2.6,1.104-3.766C644.235,66.109,644.989,62.925,644.989,62.925z"/>
					</g>
				</g>
			</g>
		</g>
		<g>
			<g>
				<path style="fill:#42A700;" d="M189.5,66.508c0,0-12.25-2-11.25,15s4.25,34.75,2.5,42.25c0,0,9.5-7,14.75-27.5
					S197.5,67.758,189.5,66.508z"/>
				<g>
					<path style="fill:#004900;" d="M189.5,66.508c0,0-0.046,0.224-0.133,0.643c-0.107,0.415-0.18,1.044-0.293,1.831
						c-0.116,0.783-0.258,1.733-0.42,2.823c-0.103,1.102-0.219,2.344-0.346,3.7c-0.121,1.354-0.305,2.812-0.431,4.362
						c-0.087,1.558-0.168,3.2-0.292,4.894c-0.121,1.695-0.218,3.447-0.369,5.223c-0.152,1.781-0.219,3.599-0.348,5.418
						c-0.15,1.817-0.3,3.635-0.447,5.424c-0.151,1.79-0.375,3.545-0.574,5.246c-0.207,1.701-0.46,3.34-0.723,4.892
						c-0.264,1.552-0.558,3.014-0.884,4.354c-0.316,1.341-0.656,2.561-1.033,3.621c-0.35,1.066-0.746,1.968-1.107,2.689
						c-0.163,0.368-0.361,0.673-0.521,0.941c-0.154,0.271-0.302,0.492-0.438,0.661c-0.255,0.344-0.391,0.527-0.391,0.527
						s0.104-0.203,0.298-0.584c0.206-0.37,0.423-0.96,0.685-1.7c0.253-0.747,0.506-1.669,0.737-2.742
						c0.245-1.068,0.438-2.295,0.643-3.631c0.197-1.338,0.358-2.798,0.533-4.341c0.143-1.548,0.294-3.182,0.45-4.871
						c0.13-1.694,0.265-3.445,0.401-5.224c0.124-1.781,0.251-3.591,0.377-5.4c0.152-1.808,0.243-3.626,0.418-5.411
						c0.16-1.791,0.37-3.55,0.544-5.253c0.172-1.703,0.378-3.345,0.563-4.902c0.213-1.555,0.533-3.015,0.778-4.363
						c0.252-1.349,0.5-2.579,0.728-3.668c0.304-1.077,0.569-2.016,0.787-2.79c0.212-0.771,0.404-1.364,0.572-1.759
						C189.418,66.72,189.5,66.508,189.5,66.508z"/>
				</g>
			</g>
			<g>
				<path style="fill:#42A700;" d="M338.5,72.175c0,0-12.25-2-11.25,15s4.25,34.75,2.5,42.25c0,0,9.5-7,14.75-27.5
					S346.5,73.425,338.5,72.175z"/>
				<g>
					<path style="fill:#004900;" d="M338.5,72.175c0,0-0.046,0.224-0.133,0.643c-0.107,0.415-0.18,1.044-0.293,1.831
						c-0.116,0.783-0.258,1.733-0.42,2.823c-0.103,1.102-0.219,2.344-0.346,3.7c-0.121,1.354-0.305,2.812-0.431,4.362
						c-0.087,1.558-0.168,3.2-0.292,4.894c-0.121,1.695-0.218,3.447-0.369,5.223c-0.152,1.781-0.219,3.599-0.348,5.418
						c-0.15,1.817-0.3,3.635-0.447,5.424c-0.151,1.79-0.374,3.545-0.574,5.246c-0.207,1.701-0.46,3.34-0.723,4.892
						c-0.264,1.552-0.558,3.014-0.884,4.354c-0.316,1.341-0.656,2.561-1.033,3.621c-0.35,1.066-0.746,1.968-1.107,2.689
						c-0.163,0.368-0.361,0.673-0.522,0.941c-0.154,0.271-0.302,0.492-0.438,0.661c-0.255,0.344-0.391,0.527-0.391,0.527
						s0.103-0.203,0.298-0.583c0.207-0.37,0.424-0.96,0.686-1.7c0.253-0.747,0.506-1.669,0.737-2.742
						c0.245-1.068,0.439-2.295,0.643-3.631c0.197-1.338,0.358-2.798,0.533-4.341c0.143-1.548,0.294-3.182,0.45-4.871
						c0.13-1.694,0.265-3.445,0.401-5.224c0.124-1.781,0.251-3.591,0.377-5.4c0.152-1.808,0.243-3.626,0.418-5.411
						c0.16-1.791,0.37-3.55,0.544-5.253c0.173-1.703,0.379-3.345,0.563-4.902c0.213-1.555,0.533-3.015,0.778-4.363
						c0.252-1.349,0.5-2.579,0.728-3.668c0.304-1.077,0.569-2.016,0.787-2.79c0.212-0.771,0.404-1.364,0.572-1.759
						C338.418,72.387,338.5,72.175,338.5,72.175z"/>
				</g>
			</g>
			<g>
				<path style="fill:#42A700;" d="M493.834,72.842c0,0-12.25-2-11.25,15s4.25,34.75,2.5,42.25c0,0,9.5-7,14.75-27.5
					S501.834,74.092,493.834,72.842z"/>
				<g>
					<path style="fill:#004900;" d="M493.834,72.842c0,0-0.046,0.224-0.133,0.643c-0.107,0.415-0.181,1.044-0.293,1.831
						c-0.117,0.782-0.258,1.732-0.42,2.822c-0.103,1.101-0.22,2.345-0.347,3.7c-0.121,1.355-0.305,2.812-0.432,4.363
						c-0.087,1.557-0.167,3.2-0.291,4.894c-0.121,1.695-0.218,3.447-0.369,5.223c-0.151,1.782-0.219,3.599-0.348,5.418
						c-0.15,1.818-0.3,3.636-0.447,5.425c-0.15,1.789-0.374,3.545-0.574,5.246c-0.206,1.701-0.459,3.34-0.723,4.892
						c-0.264,1.552-0.558,3.014-0.884,4.354c-0.316,1.341-0.656,2.561-1.033,3.621c-0.35,1.066-0.746,1.969-1.107,2.689
						c-0.163,0.368-0.361,0.673-0.522,0.941c-0.153,0.271-0.302,0.492-0.438,0.661c-0.255,0.344-0.391,0.527-0.391,0.527
						s0.103-0.203,0.298-0.583c0.206-0.37,0.424-0.96,0.686-1.7c0.253-0.747,0.506-1.669,0.736-2.743
						c0.245-1.068,0.439-2.295,0.643-3.631c0.197-1.338,0.357-2.798,0.533-4.341c0.143-1.549,0.294-3.182,0.45-4.871
						c0.13-1.694,0.265-3.445,0.4-5.224c0.125-1.781,0.251-3.591,0.378-5.4c0.152-1.808,0.242-3.626,0.417-5.411
						c0.16-1.792,0.37-3.55,0.545-5.253c0.172-1.704,0.378-3.346,0.563-4.902c0.213-1.556,0.532-3.015,0.778-4.363
						c0.252-1.349,0.5-2.58,0.729-3.668c0.304-1.077,0.568-2.017,0.787-2.79c0.212-0.771,0.404-1.364,0.571-1.759
						C493.752,73.054,493.834,72.842,493.834,72.842z"/>
				</g>
			</g>
			<g>
				<path style="fill:#004900;" d="M255.998,70.758c0,0,12.25-2,11.25,15s-4.25,34.75-2.5,42.25c0,0-9.5-7-14.75-27.5
					S247.998,72.008,255.998,70.758z"/>
				<g>
					<path style="fill:#42A732;" d="M255.998,70.758c0,0,0.082,0.212,0.236,0.611c0.168,0.395,0.36,0.988,0.572,1.759
						c0.218,0.774,0.483,1.713,0.787,2.79c0.228,1.089,0.476,2.319,0.728,3.668c0.246,1.348,0.565,2.808,0.778,4.363
						c0.185,1.557,0.39,3.199,0.563,4.902c0.174,1.703,0.384,3.462,0.544,5.253c0.175,1.785,0.266,3.603,0.417,5.411
						c0.126,1.81,0.253,3.619,0.378,5.4c0.137,1.779,0.271,3.53,0.401,5.224c0.156,1.689,0.307,3.322,0.45,4.871
						c0.175,1.543,0.336,3.003,0.533,4.341c0.204,1.336,0.398,2.563,0.643,3.631c0.231,1.073,0.483,1.996,0.737,2.742
						c0.262,0.74,0.479,1.33,0.686,1.7c0.194,0.38,0.298,0.584,0.298,0.584s-0.136-0.184-0.391-0.527
						c-0.135-0.17-0.283-0.39-0.438-0.661c-0.16-0.268-0.358-0.574-0.522-0.941c-0.361-0.721-0.757-1.623-1.107-2.689
						c-0.377-1.06-0.717-2.28-1.033-3.621c-0.326-1.339-0.621-2.801-0.884-4.354c-0.264-1.552-0.517-3.191-0.723-4.892
						c-0.199-1.701-0.423-3.456-0.574-5.246c-0.147-1.789-0.297-3.607-0.447-5.424c-0.129-1.819-0.196-3.637-0.348-5.418
						c-0.151-1.776-0.247-3.528-0.369-5.223c-0.124-1.694-0.205-3.336-0.292-4.894c-0.126-1.551-0.31-3.008-0.431-4.362
						c-0.127-1.356-0.243-2.599-0.346-3.7c-0.162-1.09-0.304-2.04-0.42-2.823c-0.113-0.787-0.186-1.416-0.293-1.831
						C256.044,70.981,255.998,70.758,255.998,70.758z"/>
				</g>
			</g>
			<g>
				<path style="fill:#004900;" d="M410.664,72.758c0,0,12.25-2,11.25,15s-4.25,34.75-2.5,42.25c0,0-9.5-7-14.75-27.5
					S402.664,74.008,410.664,72.758z"/>
				<g>
					<path style="fill:#42A732;" d="M410.664,72.758c0,0,0.082,0.212,0.236,0.611c0.167,0.395,0.359,0.988,0.571,1.759
						c0.219,0.773,0.483,1.713,0.787,2.79c0.229,1.088,0.477,2.319,0.729,3.668c0.246,1.348,0.565,2.807,0.778,4.363
						c0.185,1.557,0.391,3.199,0.563,4.902c0.175,1.703,0.385,3.461,0.545,5.253c0.175,1.785,0.265,3.603,0.417,5.411
						c0.126,1.81,0.253,3.619,0.378,5.4c0.136,1.779,0.27,3.53,0.4,5.224c0.156,1.689,0.308,3.322,0.45,4.871
						c0.175,1.542,0.336,3.002,0.533,4.341c0.204,1.336,0.397,2.563,0.642,3.631c0.231,1.073,0.484,1.996,0.737,2.742
						c0.262,0.74,0.479,1.33,0.685,1.7c0.194,0.38,0.298,0.583,0.298,0.583s-0.136-0.184-0.391-0.527
						c-0.136-0.17-0.284-0.39-0.438-0.661c-0.159-0.268-0.358-0.574-0.521-0.941c-0.361-0.721-0.758-1.623-1.107-2.689
						c-0.377-1.06-0.717-2.28-1.033-3.621c-0.326-1.34-0.62-2.801-0.884-4.354c-0.264-1.552-0.517-3.191-0.724-4.892
						c-0.199-1.701-0.423-3.457-0.573-5.246c-0.147-1.789-0.298-3.607-0.447-5.425c-0.129-1.819-0.196-3.636-0.348-5.418
						c-0.151-1.776-0.248-3.528-0.369-5.223c-0.124-1.694-0.204-3.336-0.291-4.894c-0.127-1.551-0.311-3.008-0.432-4.363
						c-0.127-1.355-0.243-2.598-0.347-3.7c-0.162-1.09-0.303-2.04-0.42-2.822c-0.112-0.787-0.186-1.416-0.293-1.831
						C410.71,72.981,410.664,72.758,410.664,72.758z"/>
				</g>
			</g>
			<g>
				<path style="fill:#004900;" d="M558.664,65.425c0,0,12.25-2,11.25,15s-4.25,34.75-2.5,42.25c0,0-9.5-7-14.75-27.5
					S550.664,66.675,558.664,65.425z"/>
				<g>
					<path style="fill:#42A732;" d="M558.664,65.425c0,0,0.082,0.212,0.236,0.611c0.167,0.395,0.359,0.988,0.571,1.759
						c0.219,0.773,0.483,1.713,0.787,2.79c0.229,1.088,0.477,2.319,0.729,3.668c0.246,1.348,0.565,2.807,0.778,4.363
						c0.185,1.557,0.391,3.199,0.563,4.902c0.175,1.703,0.385,3.461,0.545,5.253c0.175,1.785,0.265,3.603,0.417,5.411
						c0.126,1.81,0.253,3.619,0.378,5.4c0.136,1.779,0.27,3.53,0.4,5.224c0.156,1.689,0.307,3.322,0.45,4.871
						c0.175,1.542,0.336,3.002,0.533,4.341c0.204,1.336,0.397,2.563,0.642,3.631c0.231,1.073,0.484,1.996,0.737,2.742
						c0.262,0.74,0.479,1.33,0.686,1.7c0.194,0.38,0.298,0.584,0.298,0.584s-0.136-0.184-0.391-0.527
						c-0.136-0.17-0.284-0.39-0.438-0.661c-0.159-0.268-0.358-0.574-0.521-0.941c-0.361-0.721-0.758-1.623-1.108-2.689
						c-0.377-1.06-0.717-2.28-1.033-3.621c-0.326-1.34-0.62-2.801-0.884-4.354c-0.264-1.552-0.517-3.191-0.724-4.892
						c-0.199-1.701-0.423-3.457-0.573-5.246c-0.147-1.789-0.298-3.607-0.447-5.425c-0.129-1.819-0.196-3.636-0.348-5.418
						c-0.151-1.776-0.248-3.528-0.369-5.223c-0.124-1.694-0.204-3.336-0.291-4.894c-0.127-1.551-0.311-3.008-0.432-4.363
						c-0.127-1.355-0.243-2.598-0.347-3.7c-0.162-1.09-0.303-2.04-0.42-2.822c-0.112-0.787-0.187-1.416-0.293-1.831
						C558.71,65.648,558.664,65.425,558.664,65.425z"/>
				</g>
			</g>
		</g>
		<g>
			<g>
				<g>
					<path style="fill:#004900;" d="M462.889,89.842c0,0,14.75,37.25,1,87c0,0-12-42.25-13-83.75c0,0-0.084-6.5,1.5-12.25
						C454.805,72.068,461.889,87.842,462.889,89.842z"/>
					<g>
						<path style="fill:#42A732;" d="M455.139,80.925c0,0,0.118,0.354,0.341,1.02c0.218,0.667,0.548,1.643,0.913,2.9
							c0.385,1.253,0.802,2.786,1.307,4.541c0.464,1.764,1.037,3.744,1.538,5.934c0.263,1.092,0.535,2.23,0.817,3.408
							c0.256,1.184,0.52,2.408,0.791,3.666c0.559,2.514,1.05,5.185,1.556,7.949c0.484,2.768,0.948,5.635,1.378,8.555
							c0.353,2.93,0.806,5.896,1.088,8.883c0.265,2.988,0.596,5.97,0.735,8.921c0.197,2.947,0.342,5.85,0.361,8.664
							c0.023,1.406,0.046,2.789,0.068,4.142c0.025,1.353-0.06,2.678-0.082,3.967c-0.092,2.577-0.092,5.014-0.328,7.256
							c-0.174,2.243-0.364,4.296-0.534,6.112c-0.222,1.813-0.478,3.387-0.656,4.684c-0.382,2.592-0.627,4.065-0.627,4.065
							s0.07-1.499,0.24-4.107c0.08-1.305,0.217-2.884,0.301-4.699c0.027-1.82,0.061-3.871,0.129-6.104
							c0.109-2.231-0.022-4.656-0.018-7.214c0.017-2.559-0.137-5.255-0.253-8.043c-0.073-1.394-0.088-2.813-0.21-4.245
							c-0.105-1.432-0.211-2.882-0.318-4.344c-0.16-2.926-0.516-5.885-0.797-8.849c-0.257-2.967-0.684-5.917-1.011-8.83
							c-0.419-2.902-0.77-5.769-1.2-8.529c-0.456-2.756-0.822-5.435-1.283-7.955c-0.427-2.527-0.853-4.913-1.265-7.113
							c-0.418-2.2-0.802-4.216-1.141-6.004c-0.372-1.781-0.673-3.341-0.962-4.615C455.458,82.385,455.139,80.925,455.139,80.925z"/>
					</g>
				</g>
				<g>
					<path style="fill:#42A700;" d="M442.25,90.009c0,0-14.75,37.25-1,87c0,0,12-42.25,13-83.75c0,0,0.084-6.5-1.5-12.25
						C450.332,72.235,443.25,88.009,442.25,90.009z"/>
					<g>
						<path style="fill:#004900;" d="M450,81.092c0,0-0.319,1.46-0.879,4.017c-0.289,1.274-0.59,2.834-0.962,4.615
							c-0.339,1.787-0.723,3.804-1.141,6.004c-0.412,2.2-0.838,4.585-1.265,7.113c-0.461,2.521-0.827,5.199-1.283,7.956
							c-0.431,2.76-0.781,5.627-1.2,8.529c-0.327,2.913-0.754,5.863-1.011,8.83c-0.281,2.963-0.637,5.922-0.797,8.849
							c-0.107,1.462-0.213,2.912-0.318,4.344c-0.122,1.432-0.137,2.851-0.21,4.245c-0.116,2.789-0.27,5.484-0.253,8.044
							c0.005,2.558-0.127,4.982-0.017,7.214c0.068,2.233,0.102,4.284,0.129,6.104c0.084,1.815,0.221,3.395,0.301,4.699
							c0.17,2.608,0.24,4.107,0.24,4.107s-0.245-1.473-0.627-4.065c-0.179-1.297-0.435-2.871-0.656-4.684
							c-0.17-1.816-0.36-3.869-0.534-6.112c-0.236-2.242-0.236-4.679-0.328-7.256c-0.022-1.289-0.107-2.614-0.082-3.967
							c0.022-1.353,0.045-2.736,0.068-4.142c0.02-2.814,0.164-5.717,0.361-8.664c0.14-2.952,0.471-5.933,0.735-8.921
							c0.282-2.986,0.734-5.953,1.088-8.883c0.43-2.92,0.894-5.787,1.378-8.555c0.506-2.764,0.997-5.435,1.556-7.949
							c0.271-1.258,0.535-2.482,0.791-3.666c0.282-1.178,0.555-2.316,0.817-3.408c0.501-2.189,1.074-4.17,1.538-5.934
							c0.505-1.755,0.922-3.288,1.307-4.541c0.365-1.257,0.695-2.233,0.913-2.9C449.882,81.446,450,81.092,450,81.092z"/>
					</g>
				</g>
			</g>
			<g>
				<path style="fill:#FF5012;" d="M456.227,70.176c0,0-0.397-5.252-3.369-4.657c-2.973,0.594-2.874,5.747-2.874,5.747
					s-3.865-3.567-6.342-1.387c-2.478,2.18,0.099,5.549,0.099,5.549s-5.45,0.991-4.955,5.153c0.496,4.162,4.46,4.162,4.46,4.162
					s-2.874,2.576-0.893,5.054c1.983,2.478,5.55-0.099,5.55-0.099s0.1,3.468,3.171,4.459c3.072,0.991,4.955-2.774,4.955-2.774
					s1.685,1.783,4.262,0.594c2.575-1.188,1.585-3.963,1.585-3.963s2.774,0.495,4.559-2.478c1.783-2.973-1.19-4.757-1.19-4.757
					s3.072-1.486,2.181-5.55c-0.892-4.063-4.757-1.585-4.757-1.585s2.576-4.955-1.09-6.243
					C457.911,66.112,456.227,70.176,456.227,70.176z"/>
				<path style="fill:#C93114;" d="M453.253,75.85c0,0-1.188-2.899-3.27-2.305c-2.081,0.595-1.264,4.905-1.264,4.905
					s-3.791,0.297-3.567,3.122c0.223,2.824,3.791,1.932,3.791,1.932s-1.562,2.155,0.52,3.642c2.081,1.487,4.46-1.189,4.46-1.189
					s0.669,2.452,3.419,1.933c2.75-0.521,1.337-4.014,1.337-4.014s2.899,0.966,3.643-2.081c0.742-3.048-2.527-3.865-2.527-3.865
					s1.561-2.601-0.817-4.607C456.598,71.315,453.253,75.85,453.253,75.85z"/>
			</g>
		</g>
		<g>
			<g>
				<g>
					<path style="fill:#004900;" d="M306.555,90.175c0,0,14.75,37.25,1,87c0,0-12-42.25-13-83.75c0,0-0.084-6.5,1.5-12.25
						C298.472,72.401,305.555,88.175,306.555,90.175z"/>
					<g>
						<path style="fill:#42A732;" d="M298.805,81.259c0,0,0.119,0.354,0.341,1.02c0.218,0.667,0.547,1.643,0.913,2.9
							c0.385,1.253,0.802,2.786,1.307,4.54c0.463,1.764,1.037,3.745,1.538,5.934c0.262,1.092,0.535,2.23,0.818,3.408
							c0.255,1.184,0.519,2.408,0.79,3.666c0.559,2.514,1.05,5.185,1.556,7.949c0.484,2.768,0.948,5.635,1.378,8.555
							c0.353,2.93,0.805,5.896,1.087,8.883c0.265,2.988,0.596,5.97,0.736,8.921c0.198,2.947,0.342,5.849,0.361,8.664
							c0.023,1.406,0.046,2.789,0.068,4.142c0.025,1.353-0.059,2.678-0.082,3.967c-0.091,2.577-0.092,5.014-0.328,7.255
							c-0.174,2.243-0.364,4.296-0.534,6.113c-0.222,1.813-0.478,3.386-0.656,4.684c-0.382,2.592-0.627,4.065-0.627,4.065
							s0.07-1.498,0.24-4.107c0.08-1.305,0.216-2.884,0.301-4.699c0.027-1.82,0.061-3.871,0.129-6.104
							c0.108-2.231-0.023-4.656-0.018-7.214c0.016-2.559-0.138-5.255-0.254-8.043c-0.073-1.394-0.087-2.813-0.21-4.245
							c-0.105-1.433-0.211-2.882-0.318-4.344c-0.16-2.926-0.516-5.885-0.797-8.849c-0.256-2.967-0.683-5.917-1.011-8.83
							c-0.419-2.902-0.77-5.768-1.2-8.529c-0.456-2.756-0.823-5.435-1.284-7.956c-0.427-2.527-0.853-4.913-1.265-7.113
							c-0.418-2.2-0.802-4.216-1.142-6.003c-0.371-1.78-0.672-3.34-0.961-4.615C299.124,82.719,298.805,81.259,298.805,81.259z"/>
					</g>
				</g>
				<g>
					<path style="fill:#42A700;" d="M285.917,90.342c0,0-14.75,37.25-1,87c0,0,12-42.25,13-83.75c0,0,0.084-6.5-1.5-12.25
						C293.999,72.568,286.917,88.342,285.917,90.342z"/>
					<g>
						<path style="fill:#004900;" d="M293.667,81.426c0,0-0.319,1.46-0.879,4.017c-0.289,1.274-0.59,2.834-0.961,4.615
							c-0.34,1.788-0.723,3.804-1.141,6.003c-0.412,2.2-0.838,4.586-1.265,7.113c-0.46,2.521-0.828,5.199-1.284,7.956
							c-0.43,2.761-0.781,5.627-1.199,8.529c-0.328,2.914-0.755,5.863-1.011,8.83c-0.282,2.963-0.637,5.922-0.797,8.849
							c-0.106,1.462-0.213,2.912-0.317,4.344c-0.123,1.432-0.137,2.851-0.21,4.245c-0.116,2.789-0.27,5.484-0.254,8.043
							c0.005,2.558-0.126,4.983-0.018,7.214c0.069,2.233,0.102,4.284,0.129,6.104c0.084,1.815,0.221,3.395,0.301,4.699
							c0.17,2.608,0.24,4.107,0.24,4.107s-0.246-1.473-0.628-4.065c-0.178-1.297-0.434-2.871-0.656-4.684
							c-0.17-1.817-0.36-3.87-0.534-6.113c-0.236-2.242-0.237-4.678-0.328-7.255c-0.023-1.289-0.107-2.614-0.082-3.967
							c0.022-1.354,0.046-2.736,0.068-4.142c0.02-2.814,0.164-5.717,0.361-8.664c0.14-2.952,0.47-5.933,0.736-8.921
							c0.282-2.986,0.734-5.953,1.087-8.883c0.43-2.919,0.894-5.787,1.378-8.555c0.506-2.764,0.998-5.435,1.556-7.949
							c0.271-1.258,0.536-2.482,0.791-3.666c0.283-1.178,0.556-2.315,0.817-3.408c0.501-2.189,1.075-4.17,1.538-5.934
							c0.506-1.754,0.922-3.288,1.307-4.54c0.366-1.257,0.695-2.233,0.913-2.9C293.548,81.78,293.667,81.426,293.667,81.426z"/>
					</g>
				</g>
			</g>
			<g>
				<path style="fill:#FF5012;" d="M291.887,68.205c0,0-1.486-3.195-4.608-1.114c-3.121,2.081,0.372,5.128,0.372,5.128
					s-4.014-1.338-5.128,1.858c-1.115,3.195,2.229,3.716,2.229,3.716s-4.236,2.676-2.824,6.392c1.411,3.717,4.459,2.081,4.459,2.081
					s-2.155,3.642,0.297,5.872c2.453,2.229,6.095-0.967,6.095-0.967s0.966,2.676,4.014,2.973c3.047,0.298,4.014-3.79,4.014-3.79
					s1.561,1.561,4.087,0.743c2.527-0.817,1.189-5.797,1.189-5.797s3.271,0.966,4.162-1.71c0.893-2.675-2.304-4.459-2.304-4.459
					s2.75-1.933,1.486-5.723c-1.264-3.791-5.203-1.636-5.203-1.636s3.568-4.533,0.149-6.242c-3.419-1.71-5.946,2.526-5.946,2.526
					s0.224-5.574-3.344-5.426C291.515,62.78,291.887,68.205,291.887,68.205z"/>
				<path style="fill:#C93114;" d="M293.076,74.448c0,0-2.452-3.271-4.458-0.595c-2.008,2.676-0.075,5.129-0.075,5.129
					s-2.898,1.04-2.081,4.088c0.817,3.047,3.865,1.561,3.865,1.561s-1.264,2.155,0.742,3.271c2.007,1.114,4.608-1.562,4.608-1.562
					s1.19,2.527,4.014,1.412c2.824-1.114,1.264-4.162,1.264-4.162s3.196,0.743,3.79-2.452c0.595-3.196-2.75-4.014-2.75-4.014
					s1.486-0.892,0.224-3.716c-1.264-2.824-3.791,0-3.791,0s-0.966-4.311-3.121-3.791C293.151,70.138,293.076,74.448,293.076,74.448
					z"/>
			</g>
		</g>
		<g>
			<g>
				<g>
					<path style="fill:#004900;" d="M210.917,83.841c0,0-14.75,37.25-1,87c0,0,12-42.25,13-83.75c0,0,0.084-6.5-1.5-12.25
						C219,66.067,211.917,81.841,210.917,83.841z"/>
					<g>
						<path style="fill:#42A732;" d="M218.667,74.925c0,0-0.319,1.46-0.879,4.017c-0.289,1.274-0.59,2.834-0.961,4.615
							c-0.34,1.787-0.723,3.804-1.141,6.003c-0.412,2.2-0.838,4.586-1.265,7.113c-0.46,2.521-0.827,5.199-1.284,7.955
							c-0.43,2.761-0.78,5.627-1.199,8.529c-0.328,2.913-0.754,5.863-1.011,8.83c-0.282,2.963-0.637,5.922-0.797,8.849
							c-0.107,1.462-0.213,2.911-0.318,4.344c-0.122,1.432-0.137,2.851-0.21,4.245c-0.116,2.788-0.27,5.484-0.254,8.043
							c0.005,2.558-0.127,4.983-0.018,7.214c0.069,2.233,0.102,4.284,0.129,6.104c0.084,1.815,0.221,3.395,0.301,4.699
							c0.17,2.608,0.24,4.107,0.24,4.107s-0.246-1.473-0.627-4.065c-0.178-1.297-0.434-2.871-0.656-4.684
							c-0.17-1.817-0.36-3.87-0.534-6.113c-0.236-2.242-0.237-4.678-0.328-7.255c-0.023-1.288-0.107-2.614-0.082-3.967
							c0.023-1.354,0.046-2.736,0.068-4.142c0.02-2.814,0.164-5.717,0.361-8.664c0.14-2.952,0.47-5.934,0.736-8.921
							c0.282-2.986,0.734-5.953,1.087-8.883c0.43-2.919,0.893-5.787,1.378-8.555c0.506-2.764,0.998-5.435,1.556-7.949
							c0.272-1.258,0.536-2.482,0.791-3.666c0.282-1.178,0.555-2.315,0.817-3.408c0.501-2.189,1.075-4.17,1.538-5.934
							c0.506-1.754,0.922-3.288,1.307-4.541c0.366-1.257,0.695-2.233,0.913-2.9C218.548,75.279,218.667,74.925,218.667,74.925z"/>
					</g>
				</g>
				<g>
					<path style="fill:#42A700;" d="M231.556,84.008c0,0,14.75,37.25,1,87c0,0-12-42.25-13-83.75c0,0-0.084-6.5,1.5-12.25
						C223.473,66.234,230.556,82.008,231.556,84.008z"/>
					<g>
						<path style="fill:#004900;" d="M223.806,75.092c0,0,0.119,0.354,0.341,1.02c0.218,0.667,0.547,1.643,0.913,2.9
							c0.385,1.253,0.801,2.786,1.307,4.54c0.463,1.764,1.037,3.745,1.538,5.934c0.262,1.093,0.535,2.23,0.817,3.408
							c0.255,1.184,0.52,2.408,0.791,3.666c0.558,2.515,1.05,5.186,1.556,7.949c0.484,2.768,0.948,5.635,1.378,8.555
							c0.353,2.93,0.805,5.896,1.087,8.883c0.266,2.988,0.596,5.97,0.736,8.921c0.198,2.947,0.342,5.849,0.361,8.663
							c0.023,1.406,0.046,2.789,0.068,4.142c0.025,1.353-0.059,2.678-0.082,3.967c-0.091,2.577-0.092,5.014-0.328,7.255
							c-0.174,2.243-0.364,4.296-0.534,6.113c-0.222,1.813-0.478,3.386-0.656,4.684c-0.382,2.592-0.627,4.065-0.627,4.065
							s0.07-1.499,0.24-4.107c0.08-1.305,0.216-2.884,0.301-4.699c0.027-1.82,0.061-3.871,0.129-6.104
							c0.109-2.231-0.023-4.656-0.018-7.214c0.016-2.559-0.138-5.254-0.254-8.043c-0.073-1.394-0.087-2.813-0.21-4.245
							c-0.104-1.432-0.211-2.882-0.317-4.344c-0.16-2.926-0.516-5.885-0.797-8.849c-0.256-2.967-0.684-5.916-1.011-8.83
							c-0.419-2.902-0.77-5.768-1.2-8.529c-0.456-2.756-0.823-5.434-1.284-7.955c-0.427-2.527-0.853-4.913-1.265-7.113
							c-0.418-2.2-0.801-4.216-1.141-6.003c-0.372-1.78-0.672-3.34-0.961-4.615C224.125,76.552,223.806,75.092,223.806,75.092z"/>
					</g>
				</g>
			</g>
			<g>
				<path style="fill:#F3AF00;" d="M222.913,64.611c0,0-0.396-5.252-3.37-4.658c-2.973,0.595-2.873,5.748-2.873,5.748
					s-3.865-3.567-6.342-1.388c-2.479,2.181,0.098,5.55,0.098,5.55s-5.45,0.991-4.954,5.153c0.495,4.162,4.46,4.162,4.46,4.162
					s-2.875,2.576-0.894,5.054c1.982,2.478,5.55-0.099,5.55-0.099s0.1,3.468,3.172,4.459c3.071,0.991,4.955-2.774,4.955-2.774
					s1.684,1.783,4.261,0.595c2.576-1.189,1.585-3.965,1.585-3.965s2.775,0.496,4.559-2.477c1.784-2.974-1.189-4.757-1.189-4.757
					s3.072-1.486,2.18-5.55c-0.892-4.062-4.757-1.585-4.757-1.585s2.577-4.955-1.089-6.243
					C224.597,60.548,222.913,64.611,222.913,64.611z"/>
				<path style="fill:#DE8C00;" d="M219.939,70.284c0,0-1.189-2.898-3.27-2.304c-2.082,0.595-1.264,4.905-1.264,4.905
					s-3.791,0.297-3.568,3.121c0.224,2.825,3.791,1.933,3.791,1.933s-1.56,2.155,0.521,3.642c2.081,1.486,4.46-1.189,4.46-1.189
					s0.668,2.452,3.418,1.932c2.75-0.52,1.338-4.013,1.338-4.013s2.899,0.966,3.642-2.081c0.743-3.048-2.526-3.865-2.526-3.865
					s1.561-2.601-0.817-4.607C223.284,65.751,219.939,70.284,219.939,70.284z"/>
			</g>
		</g>
		<g>
			<g>
				<g>
					<path style="fill:#004900;" d="M516.585,84.508c0,0-14.75,37.25-1,87c0,0,12-42.25,13-83.75c0,0,0.084-6.5-1.5-12.25
						C524.667,66.734,517.585,82.508,516.585,84.508z"/>
					<g>
						<path style="fill:#42A732;" d="M524.335,75.591c0,0-0.319,1.46-0.879,4.017c-0.289,1.274-0.59,2.834-0.962,4.615
							c-0.34,1.787-0.723,3.804-1.141,6.003c-0.412,2.2-0.838,4.585-1.266,7.113c-0.46,2.521-0.827,5.199-1.283,7.955
							c-0.43,2.76-0.78,5.626-1.199,8.528c-0.328,2.914-0.755,5.864-1.012,8.831c-0.281,2.963-0.637,5.922-0.797,8.849
							c-0.107,1.461-0.213,2.912-0.317,4.344c-0.123,1.432-0.138,2.851-0.21,4.245c-0.116,2.789-0.27,5.484-0.254,8.044
							c0.005,2.558-0.127,4.982-0.018,7.214c0.068,2.233,0.102,4.284,0.129,6.104c0.084,1.815,0.221,3.395,0.301,4.699
							c0.17,2.608,0.24,4.107,0.24,4.107s-0.245-1.473-0.627-4.065c-0.179-1.297-0.435-2.871-0.656-4.684
							c-0.17-1.816-0.36-3.869-0.534-6.112c-0.236-2.242-0.236-4.679-0.328-7.256c-0.022-1.288-0.107-2.614-0.082-3.967
							c0.023-1.353,0.045-2.736,0.068-4.142c0.019-2.814,0.164-5.717,0.361-8.663c0.14-2.952,0.471-5.934,0.736-8.921
							c0.281-2.987,0.734-5.953,1.087-8.883c0.43-2.92,0.894-5.788,1.378-8.555c0.506-2.764,0.998-5.435,1.556-7.949
							c0.271-1.258,0.536-2.482,0.791-3.666c0.283-1.178,0.556-2.316,0.817-3.408c0.502-2.189,1.075-4.17,1.539-5.934
							c0.505-1.754,0.922-3.288,1.307-4.541c0.365-1.257,0.695-2.233,0.913-2.9C524.217,75.945,524.335,75.591,524.335,75.591z"/>
					</g>
				</g>
				<g>
					<path style="fill:#42A700;" d="M537.224,84.675c0,0,14.75,37.25,1,87c0,0-12-42.25-13-83.75c0,0-0.084-6.5,1.5-12.25
						C529.14,66.901,536.224,82.675,537.224,84.675z"/>
					<g>
						<path style="fill:#004900;" d="M529.474,75.758c0,0,0.118,0.354,0.341,1.02c0.218,0.667,0.548,1.643,0.913,2.9
							c0.385,1.253,0.802,2.786,1.307,4.541c0.464,1.764,1.037,3.744,1.538,5.934c0.263,1.092,0.535,2.23,0.818,3.408
							c0.255,1.184,0.519,2.408,0.79,3.666c0.559,2.514,1.05,5.185,1.556,7.949c0.484,2.768,0.948,5.635,1.378,8.555
							c0.354,2.93,0.806,5.896,1.088,8.883c0.265,2.988,0.596,5.97,0.735,8.921c0.197,2.947,0.342,5.85,0.361,8.664
							c0.023,1.406,0.046,2.789,0.068,4.142c0.025,1.353-0.059,2.678-0.082,3.967c-0.092,2.577-0.092,5.014-0.328,7.256
							c-0.174,2.243-0.364,4.296-0.534,6.112c-0.222,1.814-0.478,3.387-0.656,4.684c-0.382,2.592-0.627,4.065-0.627,4.065
							s0.07-1.498,0.24-4.107c0.08-1.305,0.216-2.884,0.301-4.699c0.027-1.82,0.061-3.871,0.129-6.104
							c0.109-2.231-0.022-4.656-0.018-7.214c0.017-2.559-0.138-5.255-0.253-8.044c-0.073-1.393-0.088-2.813-0.21-4.245
							c-0.106-1.432-0.211-2.882-0.318-4.344c-0.16-2.926-0.516-5.885-0.797-8.849c-0.257-2.967-0.684-5.917-1.011-8.83
							c-0.419-2.902-0.769-5.769-1.199-8.529c-0.457-2.756-0.823-5.435-1.284-7.955c-0.427-2.527-0.852-4.913-1.265-7.113
							c-0.418-2.2-0.802-4.216-1.141-6.004c-0.372-1.781-0.673-3.341-0.962-4.615C529.793,77.218,529.474,75.758,529.474,75.758z"/>
					</g>
				</g>
			</g>
			<g>
				<path style="fill:#F3AF00;" d="M523.051,65.478c0,0-1.486-3.196-4.607-1.115c-3.122,2.081,0.371,5.128,0.371,5.128
					s-4.013-1.337-5.128,1.858c-1.115,3.196,2.23,3.717,2.23,3.717s-4.236,2.675-2.824,6.392c1.412,3.716,4.46,2.081,4.46,2.081
					s-2.156,3.642,0.297,5.871c2.453,2.229,6.095-0.966,6.095-0.966s0.966,2.676,4.013,2.973c3.048,0.297,4.014-3.791,4.014-3.791
					s1.561,1.562,4.088,0.744c2.526-0.818,1.19-5.798,1.19-5.798s3.271,0.967,4.162-1.709c0.892-2.676-2.305-4.46-2.305-4.46
					s2.75-1.932,1.487-5.723c-1.264-3.79-5.203-1.635-5.203-1.635s3.567-4.534,0.149-6.243c-3.42-1.709-5.946,2.527-5.946,2.527
					s0.223-5.575-3.345-5.426C522.68,60.052,523.051,65.478,523.051,65.478z"/>
				<path style="fill:#DE8C00;" d="M524.24,71.721c0,0-2.452-3.271-4.459-0.595c-2.007,2.676-0.074,5.128-0.074,5.128
					s-2.898,1.041-2.082,4.088c0.818,3.047,3.865,1.561,3.865,1.561s-1.264,2.155,0.743,3.271c2.007,1.115,4.608-1.561,4.608-1.561
					s1.188,2.526,4.013,1.412c2.825-1.115,1.264-4.162,1.264-4.162s3.196,0.743,3.791-2.453c0.595-3.195-2.75-4.013-2.75-4.013
					s1.486-0.893,0.224-3.717c-1.265-2.824-3.791,0-3.791,0s-0.967-4.311-3.122-3.79C524.315,67.41,524.24,71.721,524.24,71.721z"/>
			</g>
		</g>
		<g>
			<g>
				<g>
					<path style="fill:#004900;" d="M364.25,90.508c0,0-14.75,37.25-1,87c0,0,12-42.25,13-83.75c0,0,0.084-6.5-1.5-12.25
						C372.333,72.734,365.25,88.508,364.25,90.508z"/>
					<g>
						<path style="fill:#42A732;" d="M372,81.592c0,0-0.319,1.46-0.879,4.017c-0.289,1.274-0.59,2.834-0.961,4.615
							c-0.34,1.788-0.723,3.804-1.141,6.003c-0.412,2.2-0.838,4.586-1.265,7.113c-0.46,2.521-0.827,5.199-1.284,7.955
							c-0.43,2.761-0.78,5.627-1.199,8.529c-0.328,2.913-0.754,5.863-1.011,8.83c-0.282,2.963-0.638,5.922-0.797,8.849
							c-0.107,1.462-0.213,2.911-0.318,4.344c-0.122,1.432-0.137,2.851-0.21,4.245c-0.116,2.788-0.27,5.484-0.254,8.043
							c0.005,2.558-0.126,4.983-0.018,7.214c0.069,2.233,0.102,4.284,0.129,6.104c0.085,1.815,0.221,3.395,0.301,4.699
							c0.17,2.608,0.24,4.107,0.24,4.107s-0.246-1.473-0.627-4.065c-0.178-1.297-0.434-2.871-0.656-4.684
							c-0.17-1.817-0.36-3.87-0.534-6.113c-0.236-2.242-0.237-4.678-0.328-7.255c-0.023-1.288-0.107-2.614-0.082-3.967
							c0.022-1.354,0.045-2.736,0.068-4.142c0.02-2.814,0.164-5.717,0.361-8.663c0.14-2.952,0.47-5.934,0.736-8.921
							c0.282-2.986,0.734-5.953,1.087-8.883c0.43-2.919,0.893-5.787,1.378-8.555c0.506-2.764,0.998-5.435,1.556-7.949
							c0.272-1.258,0.536-2.482,0.791-3.666c0.282-1.178,0.555-2.315,0.817-3.408c0.501-2.189,1.075-4.17,1.538-5.934
							c0.505-1.754,0.922-3.288,1.307-4.54c0.366-1.257,0.695-2.233,0.913-2.9C371.881,81.946,372,81.592,372,81.592z"/>
					</g>
				</g>
				<g>
					<path style="fill:#42A700;" d="M384.889,90.675c0,0,14.75,37.25,1,87c0,0-12-42.25-13-83.75c0,0-0.084-6.5,1.5-12.25
						C376.806,72.901,383.889,88.675,384.889,90.675z"/>
					<g>
						<path style="fill:#004900;" d="M377.139,81.759c0,0,0.118,0.354,0.341,1.02c0.218,0.667,0.548,1.643,0.913,2.9
							c0.385,1.253,0.802,2.786,1.307,4.54c0.464,1.764,1.037,3.745,1.538,5.934c0.263,1.093,0.535,2.23,0.817,3.408
							c0.256,1.184,0.52,2.408,0.791,3.666c0.559,2.515,1.05,5.186,1.556,7.949c0.484,2.768,0.948,5.635,1.378,8.555
							c0.353,2.93,0.806,5.896,1.088,8.883c0.266,2.988,0.596,5.97,0.735,8.921c0.197,2.947,0.342,5.849,0.361,8.664
							c0.023,1.406,0.046,2.789,0.068,4.142c0.025,1.353-0.06,2.678-0.082,3.967c-0.092,2.577-0.092,5.014-0.328,7.255
							c-0.174,2.243-0.364,4.296-0.534,6.113c-0.222,1.813-0.478,3.386-0.656,4.684c-0.382,2.592-0.627,4.065-0.627,4.065
							s0.07-1.498,0.24-4.107c0.08-1.305,0.217-2.884,0.301-4.699c0.027-1.82,0.061-3.871,0.129-6.104
							c0.109-2.231-0.022-4.656-0.018-7.214c0.017-2.559-0.137-5.254-0.253-8.043c-0.073-1.394-0.088-2.813-0.21-4.245
							c-0.105-1.432-0.211-2.882-0.318-4.344c-0.16-2.926-0.516-5.885-0.797-8.849c-0.257-2.967-0.684-5.917-1.011-8.83
							c-0.419-2.902-0.77-5.768-1.2-8.529c-0.456-2.756-0.822-5.435-1.283-7.956c-0.427-2.527-0.853-4.913-1.265-7.113
							c-0.418-2.2-0.802-4.216-1.141-6.003c-0.372-1.78-0.673-3.34-0.962-4.615C377.458,83.219,377.139,81.759,377.139,81.759z"/>
					</g>
				</g>
			</g>
			<g>
				<path style="fill:#F3AF00;" d="M370.549,69.212c0,0-3.344-3.79-5.573-0.669c-2.23,3.122,0,4.608,0,4.608
					s-4.163,0.074-4.608,3.865c-0.446,3.79,1.784,4.682,1.784,4.682s-2.454,2.23-0.893,5.648c1.561,3.419,3.643,1.487,3.643,1.487
					s-0.818,3.939,1.188,4.98c2.007,1.04,5.797-2.007,5.797-2.007s0.298,3.642,3.94,3.419c3.642-0.224,4.534-3.939,4.534-3.939
					s1.561,2.155,4.013,0.817c2.453-1.338,0.67-4.607,0.67-4.607s4.385,0.223,5.202-4.162c0.817-4.386-3.345-5.5-3.345-5.5
					s4.014-2.453,2.155-5.426c-1.858-2.973-4.756-0.967-4.756-0.967s1.485-4.161-1.189-5.128c-2.676-0.966-5.203,1.709-5.203,1.709
					s-0.817-4.608-4.386-3.716C369.955,65.199,370.549,69.212,370.549,69.212z"/>
				<path style="fill:#DE8C00;" d="M377.387,73.374c0,0-1.486-4.459-4.607-3.269c-3.122,1.188-1.784,5.202-1.784,5.202
					s-3.567-1.486-4.757,1.71c-1.189,3.195,1.264,4.236,1.264,4.236s-2.973,2.23-1.784,4.756c1.189,2.527,5.055,1.71,5.055,1.71
					s0.223,2.155,2.378,2.676c2.155,0.52,4.46-2.602,4.46-2.602s1.709,1.783,3.939,0c2.229-1.784,0.743-3.717,0.743-3.717
					s3.121,0.075,2.75-3.79c-0.372-3.864-3.717-3.79-3.717-3.79s1.71-2.229,0.595-3.643
					C380.806,71.441,377.387,73.374,377.387,73.374z"/>
			</g>
		</g>
	</g>
</g>
</svg>
